<svg width="256" height="200" viewBox="0 0 256 200" fill="none" xmlns="http://www.w3.org/2000/svg">
<rect width="256" height="200" fill="#0D1117"/>
<path d="M68 60.1158H59.5" stroke="#23A787"/>
<path d="M68.5 158.5H60" stroke="#23A787"/>
<path d="M190 150.5H181.5" stroke="#23A787"/>
<path d="M191 70.1158H182.5" stroke="#FCEB4F"/>
<path d="M68 109.116H59.5" stroke="#FCEB4F"/>
<path d="M86.5 60.1158H78" stroke="#23A787"/>
<path d="M87 158.5H78.5" stroke="#23A787"/>
<path d="M208.5 150.5H200" stroke="#23A787"/>
<path d="M209.5 70.1158H201" stroke="#FCEB4F"/>
<path d="M86.5 109.116H78" stroke="#FCEB4F"/>
<rect x="31" y="43.6158" width="32" height="32" rx="4" fill="url(#paint0_linear_2_48)"/>
<rect x="153" y="134" width="32" height="32" rx="4" fill="url(#paint1_linear_2_48)"/>
<rect x="154" y="53.6158" width="32" height="32" rx="4" fill="url(#paint2_linear_2_48)"/>
<rect x="31" y="92.6158" width="32" height="32" rx="4" fill="url(#paint3_linear_2_48)"/>
<rect x="31" y="141.616" width="32" height="32" rx="4" fill="url(#paint4_linear_2_48)"/>
<rect x="83" y="43.6158" width="32" height="32" rx="4" fill="url(#paint5_linear_2_48)"/>
<rect x="205" y="134" width="32" height="32" rx="4" fill="url(#paint6_linear_2_48)"/>
<rect x="206" y="53.6158" width="32" height="32" rx="4" fill="url(#paint7_linear_2_48)"/>
<rect x="83" y="92.6158" width="32" height="32" rx="4" fill="url(#paint8_linear_2_48)"/>
<rect x="83" y="141.616" width="32" height="32" rx="4" fill="url(#paint9_linear_2_48)"/>
<rect x="17" y="32.6158" width="2" height="151" fill="#405472"/>
<rect width="2" height="151" transform="matrix(-1 0 0 1 129 32.6158)" fill="#405472"/>
<rect x="17" y="32.6158" width="7" height="2" fill="#405472"/>
<rect width="7" height="2" transform="matrix(-1 0 0 1 129 32.6158)" fill="#405472"/>
<rect x="17" y="181.616" width="7" height="2" fill="#4A6082"/>
<rect width="7" height="2" transform="matrix(-1 0 0 1 129 181.616)" fill="#4A6082"/>
<path d="M34.72 70.6158V65.0318H38.24V65.6158H35.392V67.4958H38V68.0798H35.392V70.6158H34.72ZM41.1969 70.7118C40.9089 70.7118 40.6475 70.6611 40.4129 70.5598C40.1835 70.4585 39.9862 70.3145 39.8209 70.1278C39.6609 69.9358 39.5382 69.7091 39.4529 69.4478C39.3675 69.1811 39.3249 68.8825 39.3249 68.5518C39.3249 68.2265 39.3675 67.9305 39.4529 67.6638C39.5382 67.3971 39.6609 67.1705 39.8209 66.9838C39.9862 66.7918 40.1835 66.6451 40.4129 66.5438C40.6475 66.4425 40.9089 66.3918 41.1969 66.3918C41.4849 66.3918 41.7435 66.4425 41.9729 66.5438C42.2075 66.6451 42.4049 66.7918 42.5649 66.9838C42.7302 67.1705 42.8555 67.3971 42.9409 67.6638C43.0262 67.9305 43.0689 68.2265 43.0689 68.5518C43.0689 68.8825 43.0262 69.1811 42.9409 69.4478C42.8555 69.7091 42.7302 69.9358 42.5649 70.1278C42.4049 70.3145 42.2075 70.4585 41.9729 70.5598C41.7435 70.6611 41.4849 70.7118 41.1969 70.7118ZM41.1969 70.1598C41.5542 70.1598 41.8422 70.0531 42.0609 69.8398C42.2795 69.6265 42.3889 69.2958 42.3889 68.8478V68.2558C42.3889 67.8078 42.2795 67.4771 42.0609 67.2638C41.8422 67.0505 41.5542 66.9438 41.1969 66.9438C40.8395 66.9438 40.5515 67.0505 40.3329 67.2638C40.1142 67.4771 40.0049 67.8078 40.0049 68.2558V68.8478C40.0049 69.2958 40.1142 69.6265 40.3329 69.8398C40.5515 70.0531 40.8395 70.1598 41.1969 70.1598ZM44.2098 70.0718H45.4178V67.0318H44.2098V66.4878H46.0578V67.5278H46.0978C46.1831 67.2025 46.3431 66.9491 46.5778 66.7678C46.8178 66.5811 47.1218 66.4878 47.4898 66.4878H48.0658V67.1278H47.2898C46.9218 67.1278 46.6231 67.2345 46.3938 67.4478C46.1698 67.6611 46.0578 67.9411 46.0578 68.2878V70.0718H47.6578V70.6158H44.2098V70.0718ZM48.8226 70.6158V66.4878H49.4146V66.9678H49.4466C49.5106 66.8078 49.6013 66.6718 49.7186 66.5598C49.836 66.4478 50.0093 66.3918 50.2386 66.3918C50.4786 66.3918 50.6573 66.4531 50.7746 66.5758C50.892 66.6931 50.964 66.8478 50.9906 67.0398H51.0146C51.0893 66.8531 51.196 66.6985 51.3346 66.5758C51.4733 66.4531 51.6653 66.3918 51.9106 66.3918C52.2466 66.3918 52.4706 66.5091 52.5826 66.7438C52.7 66.9785 52.7586 67.3145 52.7586 67.7518V70.6158H52.1666V67.8558C52.1666 67.5038 52.1293 67.2611 52.0546 67.1278C51.9853 66.9891 51.8546 66.9198 51.6626 66.9198C51.492 66.9198 51.3533 66.9758 51.2466 67.0878C51.14 67.1945 51.0866 67.3598 51.0866 67.5838V70.6158H50.4946V67.8558C50.4946 67.5038 50.4573 67.2611 50.3826 67.1278C50.3133 66.9891 50.1853 66.9198 49.9986 66.9198C49.828 66.9198 49.6866 66.9758 49.5746 67.0878C49.468 67.1945 49.4146 67.3598 49.4146 67.5838V70.6158H48.8226Z" fill="#EFEFEF"/>
<path d="M159.688 153V147.416H163.28V148.168H160.584V149.792H163.032V150.544H160.584V153H159.688ZM166.197 153.096C165.893 153.096 165.618 153.045 165.373 152.944C165.133 152.843 164.928 152.699 164.757 152.512C164.592 152.325 164.464 152.099 164.373 151.832C164.282 151.565 164.237 151.267 164.237 150.936C164.237 150.605 164.282 150.307 164.373 150.04C164.464 149.773 164.592 149.547 164.757 149.36C164.928 149.173 165.133 149.029 165.373 148.928C165.618 148.827 165.893 148.776 166.197 148.776C166.501 148.776 166.773 148.827 167.013 148.928C167.258 149.029 167.464 149.173 167.629 149.36C167.8 149.547 167.93 149.773 168.021 150.04C168.112 150.307 168.157 150.605 168.157 150.936C168.157 151.267 168.112 151.565 168.021 151.832C167.93 152.099 167.8 152.325 167.629 152.512C167.464 152.699 167.258 152.843 167.013 152.944C166.773 153.045 166.501 153.096 166.197 153.096ZM166.197 152.408C166.517 152.408 166.77 152.312 166.957 152.12C167.149 151.923 167.245 151.632 167.245 151.248V150.624C167.245 150.24 167.149 149.952 166.957 149.76C166.77 149.563 166.517 149.464 166.197 149.464C165.877 149.464 165.621 149.563 165.429 149.76C165.242 149.952 165.149 150.24 165.149 150.624V151.248C165.149 151.632 165.242 151.923 165.429 152.12C165.621 152.312 165.877 152.408 166.197 152.408ZM169.202 152.296H170.298V149.576H169.202V148.872H171.17V149.968H171.218C171.255 149.824 171.308 149.685 171.378 149.552C171.447 149.419 171.535 149.304 171.642 149.208C171.748 149.107 171.879 149.027 172.034 148.968C172.188 148.904 172.37 148.872 172.578 148.872H173.074V149.704H172.258C171.938 149.704 171.676 149.8 171.474 149.992C171.271 150.179 171.17 150.432 171.17 150.752V152.296H172.666V153H169.202V152.296ZM173.743 153V148.872H174.487V149.408H174.527C174.591 149.232 174.681 149.083 174.799 148.96C174.921 148.837 175.095 148.776 175.319 148.776C175.537 148.776 175.705 148.837 175.823 148.96C175.945 149.077 176.023 149.24 176.055 149.448H176.087C176.161 149.261 176.265 149.104 176.399 148.976C176.532 148.843 176.724 148.776 176.975 148.776C177.295 148.776 177.516 148.888 177.639 149.112C177.767 149.336 177.831 149.664 177.831 150.096V153H177.087V150.208C177.087 149.92 177.052 149.723 176.983 149.616C176.913 149.504 176.801 149.448 176.647 149.448C176.508 149.448 176.391 149.496 176.295 149.592C176.204 149.683 176.159 149.821 176.159 150.008V153H175.415V150.208C175.415 149.92 175.38 149.723 175.311 149.616C175.247 149.504 175.137 149.448 174.983 149.448C174.839 149.448 174.719 149.496 174.623 149.592C174.532 149.683 174.487 149.821 174.487 150.008V153H173.743Z" fill="#EFEFEF"/>
<path d="M160.688 72.6158V67.0318H164.28V67.7838H161.584V69.4078H164.032V70.1598H161.584V72.6158H160.688ZM167.197 72.7118C166.893 72.7118 166.618 72.6611 166.373 72.5598C166.133 72.4585 165.928 72.3145 165.757 72.1278C165.592 71.9411 165.464 71.7145 165.373 71.4478C165.282 71.1811 165.237 70.8825 165.237 70.5518C165.237 70.2211 165.282 69.9225 165.373 69.6558C165.464 69.3891 165.592 69.1625 165.757 68.9758C165.928 68.7891 166.133 68.6451 166.373 68.5438C166.618 68.4425 166.893 68.3918 167.197 68.3918C167.501 68.3918 167.773 68.4425 168.013 68.5438C168.258 68.6451 168.464 68.7891 168.629 68.9758C168.8 69.1625 168.93 69.3891 169.021 69.6558C169.112 69.9225 169.157 70.2211 169.157 70.5518C169.157 70.8825 169.112 71.1811 169.021 71.4478C168.93 71.7145 168.8 71.9411 168.629 72.1278C168.464 72.3145 168.258 72.4585 168.013 72.5598C167.773 72.6611 167.501 72.7118 167.197 72.7118ZM167.197 72.0238C167.517 72.0238 167.77 71.9278 167.957 71.7358C168.149 71.5385 168.245 71.2478 168.245 70.8638V70.2398C168.245 69.8558 168.149 69.5678 167.957 69.3758C167.77 69.1785 167.517 69.0798 167.197 69.0798C166.877 69.0798 166.621 69.1785 166.429 69.3758C166.242 69.5678 166.149 69.8558 166.149 70.2398V70.8638C166.149 71.2478 166.242 71.5385 166.429 71.7358C166.621 71.9278 166.877 72.0238 167.197 72.0238ZM170.202 71.9118H171.298V69.1918H170.202V68.4878H172.17V69.5838H172.218C172.255 69.4398 172.308 69.3011 172.378 69.1678C172.447 69.0345 172.535 68.9198 172.642 68.8238C172.748 68.7225 172.879 68.6425 173.034 68.5838C173.188 68.5198 173.37 68.4878 173.578 68.4878H174.074V69.3198H173.258C172.938 69.3198 172.676 69.4158 172.474 69.6078C172.271 69.7945 172.17 70.0478 172.17 70.3678V71.9118H173.666V72.6158H170.202V71.9118ZM174.743 72.6158V68.4878H175.487V69.0238H175.527C175.591 68.8478 175.681 68.6985 175.799 68.5758C175.921 68.4531 176.095 68.3918 176.319 68.3918C176.537 68.3918 176.705 68.4531 176.823 68.5758C176.945 68.6931 177.023 68.8558 177.055 69.0638H177.087C177.161 68.8771 177.265 68.7198 177.399 68.5918C177.532 68.4585 177.724 68.3918 177.975 68.3918C178.295 68.3918 178.516 68.5038 178.639 68.7278C178.767 68.9518 178.831 69.2798 178.831 69.7118V72.6158H178.087V69.8238C178.087 69.5358 178.052 69.3385 177.983 69.2318C177.913 69.1198 177.801 69.0638 177.647 69.0638C177.508 69.0638 177.391 69.1118 177.295 69.2078C177.204 69.2985 177.159 69.4371 177.159 69.6238V72.6158H176.415V69.8238C176.415 69.5358 176.38 69.3385 176.311 69.2318C176.247 69.1198 176.137 69.0638 175.983 69.0638C175.839 69.0638 175.719 69.1118 175.623 69.2078C175.532 69.2985 175.487 69.4371 175.487 69.6238V72.6158H174.743Z" fill="#EFEFEF"/>
<path d="M34.72 119.616V114.032H38.24V114.616H35.392V116.496H38V117.08H35.392V119.616H34.72ZM41.1969 119.712C40.9089 119.712 40.6475 119.661 40.4129 119.56C40.1835 119.458 39.9862 119.314 39.8209 119.128C39.6609 118.936 39.5382 118.709 39.4529 118.448C39.3675 118.181 39.3249 117.882 39.3249 117.552C39.3249 117.226 39.3675 116.93 39.4529 116.664C39.5382 116.397 39.6609 116.17 39.8209 115.984C39.9862 115.792 40.1835 115.645 40.4129 115.544C40.6475 115.442 40.9089 115.392 41.1969 115.392C41.4849 115.392 41.7435 115.442 41.9729 115.544C42.2075 115.645 42.4049 115.792 42.5649 115.984C42.7302 116.17 42.8555 116.397 42.9409 116.664C43.0262 116.93 43.0689 117.226 43.0689 117.552C43.0689 117.882 43.0262 118.181 42.9409 118.448C42.8555 118.709 42.7302 118.936 42.5649 119.128C42.4049 119.314 42.2075 119.458 41.9729 119.56C41.7435 119.661 41.4849 119.712 41.1969 119.712ZM41.1969 119.16C41.5542 119.16 41.8422 119.053 42.0609 118.84C42.2795 118.626 42.3889 118.296 42.3889 117.848V117.256C42.3889 116.808 42.2795 116.477 42.0609 116.264C41.8422 116.05 41.5542 115.944 41.1969 115.944C40.8395 115.944 40.5515 116.05 40.3329 116.264C40.1142 116.477 40.0049 116.808 40.0049 117.256V117.848C40.0049 118.296 40.1142 118.626 40.3329 118.84C40.5515 119.053 40.8395 119.16 41.1969 119.16ZM44.2098 119.072H45.4178V116.032H44.2098V115.488H46.0578V116.528H46.0978C46.1831 116.202 46.3431 115.949 46.5778 115.768C46.8178 115.581 47.1218 115.488 47.4898 115.488H48.0658V116.128H47.2898C46.9218 116.128 46.6231 116.234 46.3938 116.448C46.1698 116.661 46.0578 116.941 46.0578 117.288V119.072H47.6578V119.616H44.2098V119.072ZM48.8226 119.616V115.488H49.4146V115.968H49.4466C49.5106 115.808 49.6013 115.672 49.7186 115.56C49.836 115.448 50.0093 115.392 50.2386 115.392C50.4786 115.392 50.6573 115.453 50.7746 115.576C50.892 115.693 50.964 115.848 50.9906 116.04H51.0146C51.0893 115.853 51.196 115.698 51.3346 115.576C51.4733 115.453 51.6653 115.392 51.9106 115.392C52.2466 115.392 52.4706 115.509 52.5826 115.744C52.7 115.978 52.7586 116.314 52.7586 116.752V119.616H52.1666V116.856C52.1666 116.504 52.1293 116.261 52.0546 116.128C51.9853 115.989 51.8546 115.92 51.6626 115.92C51.492 115.92 51.3533 115.976 51.2466 116.088C51.14 116.194 51.0866 116.36 51.0866 116.584V119.616H50.4946V116.856C50.4946 116.504 50.4573 116.261 50.3826 116.128C50.3133 115.989 50.1853 115.92 49.9986 115.92C49.828 115.92 49.6866 115.976 49.5746 116.088C49.468 116.194 49.4146 116.36 49.4146 116.584V119.616H48.8226Z" fill="#EFEFEF"/>
<path d="M34.72 168.616V163.032H38.24V163.616H35.392V165.496H38V166.08H35.392V168.616H34.72ZM41.1969 168.712C40.9089 168.712 40.6475 168.661 40.4129 168.56C40.1835 168.458 39.9862 168.314 39.8209 168.128C39.6609 167.936 39.5382 167.709 39.4529 167.448C39.3675 167.181 39.3249 166.882 39.3249 166.552C39.3249 166.226 39.3675 165.93 39.4529 165.664C39.5382 165.397 39.6609 165.17 39.8209 164.984C39.9862 164.792 40.1835 164.645 40.4129 164.544C40.6475 164.442 40.9089 164.392 41.1969 164.392C41.4849 164.392 41.7435 164.442 41.9729 164.544C42.2075 164.645 42.4049 164.792 42.5649 164.984C42.7302 165.17 42.8555 165.397 42.9409 165.664C43.0262 165.93 43.0689 166.226 43.0689 166.552C43.0689 166.882 43.0262 167.181 42.9409 167.448C42.8555 167.709 42.7302 167.936 42.5649 168.128C42.4049 168.314 42.2075 168.458 41.9729 168.56C41.7435 168.661 41.4849 168.712 41.1969 168.712ZM41.1969 168.16C41.5542 168.16 41.8422 168.053 42.0609 167.84C42.2795 167.626 42.3889 167.296 42.3889 166.848V166.256C42.3889 165.808 42.2795 165.477 42.0609 165.264C41.8422 165.05 41.5542 164.944 41.1969 164.944C40.8395 164.944 40.5515 165.05 40.3329 165.264C40.1142 165.477 40.0049 165.808 40.0049 166.256V166.848C40.0049 167.296 40.1142 167.626 40.3329 167.84C40.5515 168.053 40.8395 168.16 41.1969 168.16ZM44.2098 168.072H45.4178V165.032H44.2098V164.488H46.0578V165.528H46.0978C46.1831 165.202 46.3431 164.949 46.5778 164.768C46.8178 164.581 47.1218 164.488 47.4898 164.488H48.0658V165.128H47.2898C46.9218 165.128 46.6231 165.234 46.3938 165.448C46.1698 165.661 46.0578 165.941 46.0578 166.288V168.072H47.6578V168.616H44.2098V168.072ZM48.8226 168.616V164.488H49.4146V164.968H49.4466C49.5106 164.808 49.6013 164.672 49.7186 164.56C49.836 164.448 50.0093 164.392 50.2386 164.392C50.4786 164.392 50.6573 164.453 50.7746 164.576C50.892 164.693 50.964 164.848 50.9906 165.04H51.0146C51.0893 164.853 51.196 164.698 51.3346 164.576C51.4733 164.453 51.6653 164.392 51.9106 164.392C52.2466 164.392 52.4706 164.509 52.5826 164.744C52.7 164.978 52.7586 165.314 52.7586 165.752V168.616H52.1666V165.856C52.1666 165.504 52.1293 165.261 52.0546 165.128C51.9853 164.989 51.8546 164.92 51.6626 164.92C51.492 164.92 51.3533 164.976 51.2466 165.088C51.14 165.194 51.0866 165.36 51.0866 165.584V168.616H50.4946V165.856C50.4946 165.504 50.4573 165.261 50.3826 165.128C50.3133 164.989 50.1853 164.92 49.9986 164.92C49.828 164.92 49.6866 164.976 49.5746 165.088C49.468 165.194 49.4146 165.36 49.4146 165.584V168.616H48.8226Z" fill="#EFEFEF"/>
<path d="M86.72 70.6158V65.0318H90.24V65.6158H87.392V67.4958H90V68.0798H87.392V70.6158H86.72ZM93.1969 70.7118C92.9089 70.7118 92.6475 70.6611 92.4129 70.5598C92.1835 70.4585 91.9862 70.3145 91.8209 70.1278C91.6609 69.9358 91.5382 69.7091 91.4529 69.4478C91.3675 69.1811 91.3249 68.8825 91.3249 68.5518C91.3249 68.2265 91.3675 67.9305 91.4529 67.6638C91.5382 67.3971 91.6609 67.1705 91.8209 66.9838C91.9862 66.7918 92.1835 66.6451 92.4129 66.5438C92.6475 66.4425 92.9089 66.3918 93.1969 66.3918C93.4849 66.3918 93.7435 66.4425 93.9729 66.5438C94.2075 66.6451 94.4049 66.7918 94.5649 66.9838C94.7302 67.1705 94.8555 67.3971 94.9409 67.6638C95.0262 67.9305 95.0689 68.2265 95.0689 68.5518C95.0689 68.8825 95.0262 69.1811 94.9409 69.4478C94.8555 69.7091 94.7302 69.9358 94.5649 70.1278C94.4049 70.3145 94.2075 70.4585 93.9729 70.5598C93.7435 70.6611 93.4849 70.7118 93.1969 70.7118ZM93.1969 70.1598C93.5542 70.1598 93.8422 70.0531 94.0609 69.8398C94.2795 69.6265 94.3889 69.2958 94.3889 68.8478V68.2558C94.3889 67.8078 94.2795 67.4771 94.0609 67.2638C93.8422 67.0505 93.5542 66.9438 93.1969 66.9438C92.8395 66.9438 92.5515 67.0505 92.3329 67.2638C92.1142 67.4771 92.0049 67.8078 92.0049 68.2558V68.8478C92.0049 69.2958 92.1142 69.6265 92.3329 69.8398C92.5515 70.0531 92.8395 70.1598 93.1969 70.1598ZM96.2098 70.0718H97.4178V67.0318H96.2098V66.4878H98.0578V67.5278H98.0978C98.1831 67.2025 98.3431 66.9491 98.5778 66.7678C98.8178 66.5811 99.1218 66.4878 99.4898 66.4878H100.066V67.1278H99.2898C98.9218 67.1278 98.6231 67.2345 98.3938 67.4478C98.1698 67.6611 98.0578 67.9411 98.0578 68.2878V70.0718H99.6578V70.6158H96.2098V70.0718ZM100.823 70.6158V66.4878H101.415V66.9678H101.447C101.511 66.8078 101.601 66.6718 101.719 66.5598C101.836 66.4478 102.009 66.3918 102.239 66.3918C102.479 66.3918 102.657 66.4531 102.775 66.5758C102.892 66.6931 102.964 66.8478 102.991 67.0398H103.015C103.089 66.8531 103.196 66.6985 103.335 66.5758C103.473 66.4531 103.665 66.3918 103.911 66.3918C104.247 66.3918 104.471 66.5091 104.583 66.7438C104.7 66.9785 104.759 67.3145 104.759 67.7518V70.6158H104.167V67.8558C104.167 67.5038 104.129 67.2611 104.055 67.1278C103.985 66.9891 103.855 66.9198 103.663 66.9198C103.492 66.9198 103.353 66.9758 103.247 67.0878C103.14 67.1945 103.087 67.3598 103.087 67.5838V70.6158H102.495V67.8558C102.495 67.5038 102.457 67.2611 102.383 67.1278C102.313 66.9891 102.185 66.9198 101.999 66.9198C101.828 66.9198 101.687 66.9758 101.575 67.0878C101.468 67.1945 101.415 67.3598 101.415 67.5838V70.6158H100.823Z" fill="#EFEFEF"/>
<path d="M211.688 153V147.416H215.28V148.168H212.584V149.792H215.032V150.544H212.584V153H211.688ZM218.197 153.096C217.893 153.096 217.618 153.045 217.373 152.944C217.133 152.843 216.928 152.699 216.757 152.512C216.592 152.325 216.464 152.099 216.373 151.832C216.282 151.565 216.237 151.267 216.237 150.936C216.237 150.605 216.282 150.307 216.373 150.04C216.464 149.773 216.592 149.547 216.757 149.36C216.928 149.173 217.133 149.029 217.373 148.928C217.618 148.827 217.893 148.776 218.197 148.776C218.501 148.776 218.773 148.827 219.013 148.928C219.258 149.029 219.464 149.173 219.629 149.36C219.8 149.547 219.93 149.773 220.021 150.04C220.112 150.307 220.157 150.605 220.157 150.936C220.157 151.267 220.112 151.565 220.021 151.832C219.93 152.099 219.8 152.325 219.629 152.512C219.464 152.699 219.258 152.843 219.013 152.944C218.773 153.045 218.501 153.096 218.197 153.096ZM218.197 152.408C218.517 152.408 218.77 152.312 218.957 152.12C219.149 151.923 219.245 151.632 219.245 151.248V150.624C219.245 150.24 219.149 149.952 218.957 149.76C218.77 149.563 218.517 149.464 218.197 149.464C217.877 149.464 217.621 149.563 217.429 149.76C217.242 149.952 217.149 150.24 217.149 150.624V151.248C217.149 151.632 217.242 151.923 217.429 152.12C217.621 152.312 217.877 152.408 218.197 152.408ZM221.202 152.296H222.298V149.576H221.202V148.872H223.17V149.968H223.218C223.255 149.824 223.308 149.685 223.378 149.552C223.447 149.419 223.535 149.304 223.642 149.208C223.748 149.107 223.879 149.027 224.034 148.968C224.188 148.904 224.37 148.872 224.578 148.872H225.074V149.704H224.258C223.938 149.704 223.676 149.8 223.474 149.992C223.271 150.179 223.17 150.432 223.17 150.752V152.296H224.666V153H221.202V152.296ZM225.743 153V148.872H226.487V149.408H226.527C226.591 149.232 226.681 149.083 226.799 148.96C226.921 148.837 227.095 148.776 227.319 148.776C227.537 148.776 227.705 148.837 227.823 148.96C227.945 149.077 228.023 149.24 228.055 149.448H228.087C228.161 149.261 228.265 149.104 228.399 148.976C228.532 148.843 228.724 148.776 228.975 148.776C229.295 148.776 229.516 148.888 229.639 149.112C229.767 149.336 229.831 149.664 229.831 150.096V153H229.087V150.208C229.087 149.92 229.052 149.723 228.983 149.616C228.913 149.504 228.801 149.448 228.647 149.448C228.508 149.448 228.391 149.496 228.295 149.592C228.204 149.683 228.159 149.821 228.159 150.008V153H227.415V150.208C227.415 149.92 227.38 149.723 227.311 149.616C227.247 149.504 227.137 149.448 226.983 149.448C226.839 149.448 226.719 149.496 226.623 149.592C226.532 149.683 226.487 149.821 226.487 150.008V153H225.743Z" fill="#EFEFEF"/>
<path d="M212.688 72.6158V67.0318H216.28V67.7838H213.584V69.4078H216.032V70.1598H213.584V72.6158H212.688ZM219.197 72.7118C218.893 72.7118 218.618 72.6611 218.373 72.5598C218.133 72.4585 217.928 72.3145 217.757 72.1278C217.592 71.9411 217.464 71.7145 217.373 71.4478C217.282 71.1811 217.237 70.8825 217.237 70.5518C217.237 70.2211 217.282 69.9225 217.373 69.6558C217.464 69.3891 217.592 69.1625 217.757 68.9758C217.928 68.7891 218.133 68.6451 218.373 68.5438C218.618 68.4425 218.893 68.3918 219.197 68.3918C219.501 68.3918 219.773 68.4425 220.013 68.5438C220.258 68.6451 220.464 68.7891 220.629 68.9758C220.8 69.1625 220.93 69.3891 221.021 69.6558C221.112 69.9225 221.157 70.2211 221.157 70.5518C221.157 70.8825 221.112 71.1811 221.021 71.4478C220.93 71.7145 220.8 71.9411 220.629 72.1278C220.464 72.3145 220.258 72.4585 220.013 72.5598C219.773 72.6611 219.501 72.7118 219.197 72.7118ZM219.197 72.0238C219.517 72.0238 219.77 71.9278 219.957 71.7358C220.149 71.5385 220.245 71.2478 220.245 70.8638V70.2398C220.245 69.8558 220.149 69.5678 219.957 69.3758C219.77 69.1785 219.517 69.0798 219.197 69.0798C218.877 69.0798 218.621 69.1785 218.429 69.3758C218.242 69.5678 218.149 69.8558 218.149 70.2398V70.8638C218.149 71.2478 218.242 71.5385 218.429 71.7358C218.621 71.9278 218.877 72.0238 219.197 72.0238ZM222.202 71.9118H223.298V69.1918H222.202V68.4878H224.17V69.5838H224.218C224.255 69.4398 224.308 69.3011 224.378 69.1678C224.447 69.0345 224.535 68.9198 224.642 68.8238C224.748 68.7225 224.879 68.6425 225.034 68.5838C225.188 68.5198 225.37 68.4878 225.578 68.4878H226.074V69.3198H225.258C224.938 69.3198 224.676 69.4158 224.474 69.6078C224.271 69.7945 224.17 70.0478 224.17 70.3678V71.9118H225.666V72.6158H222.202V71.9118ZM226.743 72.6158V68.4878H227.487V69.0238H227.527C227.591 68.8478 227.681 68.6985 227.799 68.5758C227.921 68.4531 228.095 68.3918 228.319 68.3918C228.537 68.3918 228.705 68.4531 228.823 68.5758C228.945 68.6931 229.023 68.8558 229.055 69.0638H229.087C229.161 68.8771 229.265 68.7198 229.399 68.5918C229.532 68.4585 229.724 68.3918 229.975 68.3918C230.295 68.3918 230.516 68.5038 230.639 68.7278C230.767 68.9518 230.831 69.2798 230.831 69.7118V72.6158H230.087V69.8238C230.087 69.5358 230.052 69.3385 229.983 69.2318C229.913 69.1198 229.801 69.0638 229.647 69.0638C229.508 69.0638 229.391 69.1118 229.295 69.2078C229.204 69.2985 229.159 69.4371 229.159 69.6238V72.6158H228.415V69.8238C228.415 69.5358 228.38 69.3385 228.311 69.2318C228.247 69.1198 228.137 69.0638 227.983 69.0638C227.839 69.0638 227.719 69.1118 227.623 69.2078C227.532 69.2985 227.487 69.4371 227.487 69.6238V72.6158H226.743Z" fill="#EFEFEF"/>
<path d="M86.72 119.616V114.032H90.24V114.616H87.392V116.496H90V117.08H87.392V119.616H86.72ZM93.1969 119.712C92.9089 119.712 92.6475 119.661 92.4129 119.56C92.1835 119.458 91.9862 119.314 91.8209 119.128C91.6609 118.936 91.5382 118.709 91.4529 118.448C91.3675 118.181 91.3249 117.882 91.3249 117.552C91.3249 117.226 91.3675 116.93 91.4529 116.664C91.5382 116.397 91.6609 116.17 91.8209 115.984C91.9862 115.792 92.1835 115.645 92.4129 115.544C92.6475 115.442 92.9089 115.392 93.1969 115.392C93.4849 115.392 93.7435 115.442 93.9729 115.544C94.2075 115.645 94.4049 115.792 94.5649 115.984C94.7302 116.17 94.8555 116.397 94.9409 116.664C95.0262 116.93 95.0689 117.226 95.0689 117.552C95.0689 117.882 95.0262 118.181 94.9409 118.448C94.8555 118.709 94.7302 118.936 94.5649 119.128C94.4049 119.314 94.2075 119.458 93.9729 119.56C93.7435 119.661 93.4849 119.712 93.1969 119.712ZM93.1969 119.16C93.5542 119.16 93.8422 119.053 94.0609 118.84C94.2795 118.626 94.3889 118.296 94.3889 117.848V117.256C94.3889 116.808 94.2795 116.477 94.0609 116.264C93.8422 116.05 93.5542 115.944 93.1969 115.944C92.8395 115.944 92.5515 116.05 92.3329 116.264C92.1142 116.477 92.0049 116.808 92.0049 117.256V117.848C92.0049 118.296 92.1142 118.626 92.3329 118.84C92.5515 119.053 92.8395 119.16 93.1969 119.16ZM96.2098 119.072H97.4178V116.032H96.2098V115.488H98.0578V116.528H98.0978C98.1831 116.202 98.3431 115.949 98.5778 115.768C98.8178 115.581 99.1218 115.488 99.4898 115.488H100.066V116.128H99.2898C98.9218 116.128 98.6231 116.234 98.3938 116.448C98.1698 116.661 98.0578 116.941 98.0578 117.288V119.072H99.6578V119.616H96.2098V119.072ZM100.823 119.616V115.488H101.415V115.968H101.447C101.511 115.808 101.601 115.672 101.719 115.56C101.836 115.448 102.009 115.392 102.239 115.392C102.479 115.392 102.657 115.453 102.775 115.576C102.892 115.693 102.964 115.848 102.991 116.04H103.015C103.089 115.853 103.196 115.698 103.335 115.576C103.473 115.453 103.665 115.392 103.911 115.392C104.247 115.392 104.471 115.509 104.583 115.744C104.7 115.978 104.759 116.314 104.759 116.752V119.616H104.167V116.856C104.167 116.504 104.129 116.261 104.055 116.128C103.985 115.989 103.855 115.92 103.663 115.92C103.492 115.92 103.353 115.976 103.247 116.088C103.14 116.194 103.087 116.36 103.087 116.584V119.616H102.495V116.856C102.495 116.504 102.457 116.261 102.383 116.128C102.313 115.989 102.185 115.92 101.999 115.92C101.828 115.92 101.687 115.976 101.575 116.088C101.468 116.194 101.415 116.36 101.415 116.584V119.616H100.823Z" fill="#EFEFEF"/>
<path d="M86.72 168.616V163.032H90.24V163.616H87.392V165.496H90V166.08H87.392V168.616H86.72ZM93.1969 168.712C92.9089 168.712 92.6475 168.661 92.4129 168.56C92.1835 168.458 91.9862 168.314 91.8209 168.128C91.6609 167.936 91.5382 167.709 91.4529 167.448C91.3675 167.181 91.3249 166.882 91.3249 166.552C91.3249 166.226 91.3675 165.93 91.4529 165.664C91.5382 165.397 91.6609 165.17 91.8209 164.984C91.9862 164.792 92.1835 164.645 92.4129 164.544C92.6475 164.442 92.9089 164.392 93.1969 164.392C93.4849 164.392 93.7435 164.442 93.9729 164.544C94.2075 164.645 94.4049 164.792 94.5649 164.984C94.7302 165.17 94.8555 165.397 94.9409 165.664C95.0262 165.93 95.0689 166.226 95.0689 166.552C95.0689 166.882 95.0262 167.181 94.9409 167.448C94.8555 167.709 94.7302 167.936 94.5649 168.128C94.4049 168.314 94.2075 168.458 93.9729 168.56C93.7435 168.661 93.4849 168.712 93.1969 168.712ZM93.1969 168.16C93.5542 168.16 93.8422 168.053 94.0609 167.84C94.2795 167.626 94.3889 167.296 94.3889 166.848V166.256C94.3889 165.808 94.2795 165.477 94.0609 165.264C93.8422 165.05 93.5542 164.944 93.1969 164.944C92.8395 164.944 92.5515 165.05 92.3329 165.264C92.1142 165.477 92.0049 165.808 92.0049 166.256V166.848C92.0049 167.296 92.1142 167.626 92.3329 167.84C92.5515 168.053 92.8395 168.16 93.1969 168.16ZM96.2098 168.072H97.4178V165.032H96.2098V164.488H98.0578V165.528H98.0978C98.1831 165.202 98.3431 164.949 98.5778 164.768C98.8178 164.581 99.1218 164.488 99.4898 164.488H100.066V165.128H99.2898C98.9218 165.128 98.6231 165.234 98.3938 165.448C98.1698 165.661 98.0578 165.941 98.0578 166.288V168.072H99.6578V168.616H96.2098V168.072ZM100.823 168.616V164.488H101.415V164.968H101.447C101.511 164.808 101.601 164.672 101.719 164.56C101.836 164.448 102.009 164.392 102.239 164.392C102.479 164.392 102.657 164.453 102.775 164.576C102.892 164.693 102.964 164.848 102.991 165.04H103.015C103.089 164.853 103.196 164.698 103.335 164.576C103.473 164.453 103.665 164.392 103.911 164.392C104.247 164.392 104.471 164.509 104.583 164.744C104.7 164.978 104.759 165.314 104.759 165.752V168.616H104.167V165.856C104.167 165.504 104.129 165.261 104.055 165.128C103.985 164.989 103.855 164.92 103.663 164.92C103.492 164.92 103.353 164.976 103.247 165.088C103.14 165.194 103.087 165.36 103.087 165.584V168.616H102.495V165.856C102.495 165.504 102.457 165.261 102.383 165.128C102.313 164.989 102.185 164.92 101.999 164.92C101.828 164.92 101.687 164.976 101.575 165.088C101.468 165.194 101.415 165.36 101.415 165.584V168.616H100.823Z" fill="#EFEFEF"/>
<path d="M56.87 54.6158C56.5633 54.6158 56.3167 54.5391 56.13 54.3858C55.9433 54.2258 55.8333 53.9991 55.8 53.7058H55.75C55.6567 54.0458 55.47 54.3025 55.19 54.4758C54.9167 54.6491 54.58 54.7358 54.18 54.7358C53.68 54.7358 53.2767 54.6025 52.97 54.3358C52.67 54.0625 52.52 53.6825 52.52 53.1958C52.52 52.6558 52.7167 52.2558 53.11 51.9958C53.5033 51.7358 54.08 51.6058 54.84 51.6058H55.67V51.3458C55.67 51.0391 55.5967 50.8091 55.45 50.6558C55.31 50.4958 55.07 50.4158 54.73 50.4158C54.4167 50.4158 54.1633 50.4758 53.97 50.5958C53.7767 50.7158 53.61 50.8725 53.47 51.0658L52.66 50.3458C52.8333 50.0525 53.1033 49.8125 53.47 49.6258C53.8433 49.4325 54.32 49.3358 54.9 49.3358C55.6067 49.3358 56.1567 49.4991 56.55 49.8258C56.95 50.1458 57.15 50.6325 57.15 51.2858V53.5458H57.72V54.6158H56.87ZM54.74 53.7658C55 53.7658 55.22 53.7025 55.4 53.5758C55.58 53.4491 55.67 53.2658 55.67 53.0258V52.4058H54.88C54.2733 52.4058 53.97 52.6091 53.97 53.0158V53.2158C53.97 53.3958 54.04 53.5325 54.18 53.6258C54.32 53.7191 54.5067 53.7658 54.74 53.7658Z" fill="white"/>
<path d="M52.59 96.2158H54.07V99.3958H54.14C54.2667 99.0891 54.45 98.8358 54.69 98.6358C54.93 98.4358 55.2567 98.3358 55.67 98.3358C55.9567 98.3358 56.2167 98.3891 56.45 98.4958C56.69 98.6025 56.8933 98.7658 57.06 98.9858C57.2333 99.2058 57.3667 99.4858 57.46 99.8258C57.56 100.166 57.61 100.569 57.61 101.036C57.61 101.502 57.56 101.906 57.46 102.246C57.3667 102.586 57.2333 102.866 57.06 103.086C56.8933 103.306 56.69 103.469 56.45 103.576C56.2167 103.682 55.9567 103.736 55.67 103.736C55.2567 103.736 54.93 103.639 54.69 103.446C54.45 103.246 54.2667 102.989 54.14 102.676H54.07V103.616H52.59V96.2158ZM55.03 102.586C55.3633 102.586 55.62 102.486 55.8 102.286C55.98 102.079 56.07 101.796 56.07 101.436V100.636C56.07 100.276 55.98 99.9958 55.8 99.7958C55.62 99.5891 55.3633 99.4858 55.03 99.4858C54.77 99.4858 54.5433 99.5491 54.35 99.6758C54.1633 99.8025 54.07 100.002 54.07 100.276V101.796C54.07 102.069 54.1633 102.269 54.35 102.396C54.5433 102.522 54.77 102.586 55.03 102.586Z" fill="white"/>
<path d="M55.21 152.736C54.8033 152.736 54.4367 152.676 54.11 152.556C53.79 152.429 53.5167 152.249 53.29 152.016C53.07 151.782 52.9 151.499 52.78 151.166C52.66 150.832 52.6 150.456 52.6 150.036C52.6 149.616 52.66 149.239 52.78 148.906C52.9 148.572 53.07 148.289 53.29 148.056C53.5167 147.822 53.79 147.646 54.11 147.526C54.4367 147.399 54.8 147.336 55.2 147.336C55.7667 147.336 56.22 147.452 56.56 147.686C56.9067 147.912 57.17 148.216 57.35 148.596L56.21 149.216C56.1167 149.016 55.9933 148.849 55.84 148.716C55.6933 148.582 55.48 148.516 55.2 148.516C54.86 148.516 54.5967 148.616 54.41 148.816C54.23 149.009 54.14 149.276 54.14 149.616V150.456C54.14 150.796 54.23 151.066 54.41 151.266C54.5967 151.459 54.8667 151.556 55.22 151.556C55.5067 151.556 55.73 151.489 55.89 151.356C56.0567 151.222 56.1967 151.049 56.31 150.836L57.43 151.476C57.2433 151.856 56.97 152.162 56.61 152.396C56.2567 152.622 55.79 152.736 55.21 152.736Z" fill="white"/>
<path d="M104.94 54.6158V53.4058H106.82V48.7258H106.73L105.31 50.5858L104.35 49.8358L106.02 47.6358H108.32V53.4058H109.8V54.6158H104.94Z" fill="white"/>
<path d="M92 96.2158H93.09L92.52 99.4758H90.62L92 96.2158ZM95.6461 96.2158H97.1261V99.3958H97.1861C97.2461 99.2491 97.3194 99.1125 97.4061 98.9858C97.4928 98.8591 97.5961 98.7491 97.7161 98.6558C97.8428 98.5558 97.9861 98.4791 98.1461 98.4258C98.3128 98.3658 98.4994 98.3358 98.7061 98.3358C98.9528 98.3358 99.1794 98.3791 99.3861 98.4658C99.5928 98.5458 99.7694 98.6691 99.9161 98.8358C100.063 99.0025 100.176 99.2058 100.256 99.4458C100.343 99.6858 100.386 99.9625 100.386 100.276V103.616H98.9061V100.476C98.9061 99.8091 98.6161 99.4758 98.0361 99.4758C97.9228 99.4758 97.8094 99.4925 97.6961 99.5258C97.5894 99.5525 97.4928 99.5991 97.4061 99.6658C97.3194 99.7258 97.2494 99.8025 97.1961 99.8958C97.1494 99.9891 97.1261 100.099 97.1261 100.226V103.616H95.6461V96.2158ZM104.312 97.7958C103.979 97.7958 103.746 97.7291 103.612 97.5958C103.486 97.4558 103.422 97.2891 103.422 97.0958V96.8058C103.422 96.6058 103.486 96.4391 103.612 96.3058C103.746 96.1725 103.979 96.1058 104.312 96.1058C104.646 96.1058 104.876 96.1725 105.002 96.3058C105.136 96.4391 105.202 96.6058 105.202 96.8058V97.0958C105.202 97.2891 105.136 97.4558 105.002 97.5958C104.876 97.7291 104.646 97.7958 104.312 97.7958ZM101.932 102.466H103.572V99.6058H101.932V98.4558H105.052V102.466H106.572V103.616H101.932V102.466ZM109.468 96.2158H111.368L109.988 99.4758H108.898L109.468 96.2158Z" fill="white"/>
<path d="M93.83 153.996V145.016H97.07V146.006H95.02V153.006H97.07V153.996H93.83ZM99.0161 152.686C98.7628 152.686 98.5761 152.632 98.4561 152.526C98.3428 152.419 98.2861 152.292 98.2861 152.146V151.686C98.2861 151.539 98.3428 151.412 98.4561 151.306C98.5761 151.199 98.7628 151.146 99.0161 151.146C99.2561 151.146 99.4361 151.199 99.5561 151.306C99.6761 151.412 99.7361 151.539 99.7361 151.686V152.146C99.7361 152.292 99.6761 152.419 99.5561 152.526C99.4361 152.632 99.2561 152.686 99.0161 152.686ZM100.996 152.686C100.749 152.686 100.566 152.632 100.446 152.526C100.326 152.419 100.266 152.292 100.266 152.146V151.686C100.266 151.539 100.326 151.412 100.446 151.306C100.566 151.199 100.749 151.146 100.996 151.146C101.243 151.146 101.426 151.199 101.546 151.306C101.666 151.412 101.726 151.539 101.726 151.686V152.146C101.726 152.292 101.666 152.419 101.546 152.526C101.426 152.632 101.243 152.686 100.996 152.686ZM102.976 152.686C102.736 152.686 102.556 152.632 102.436 152.526C102.316 152.419 102.256 152.292 102.256 152.146V151.686C102.256 151.539 102.316 151.412 102.436 151.306C102.556 151.199 102.736 151.146 102.976 151.146C103.223 151.146 103.406 151.199 103.526 151.306C103.646 151.412 103.706 151.539 103.706 151.686V152.146C103.706 152.292 103.646 152.419 103.526 152.526C103.406 152.632 103.223 152.686 102.976 152.686ZM108.162 145.016V153.996H104.922V153.006H106.972V146.006H104.922V145.016H108.162Z" fill="white"/>
<path d="M71 32.9256L76.6977 31.9934L73.0416 27.5251L71 32.9256ZM129 26.1158L129.374 25.7845L129 26.1158ZM74.792 30.4688C87.346 20.5999 98.1204 16.5667 107.074 16.5008C116.012 16.4351 123.207 20.3217 128.626 26.4471L129.374 25.7845C123.793 19.4754 116.335 15.4327 107.067 15.5008C97.8152 15.5689 86.831 19.7328 74.174 29.6826L74.792 30.4688ZM128.626 26.4471C130.444 28.5026 132.488 29.5299 134.607 29.9008C136.714 30.2693 138.867 29.9851 140.91 29.4697C142.947 28.9558 144.926 28.1971 146.651 27.5994C148.414 26.9889 149.871 26.563 150.976 26.6152L151.024 25.6164C149.693 25.5535 148.054 26.0552 146.324 26.6545C144.557 27.2667 142.647 28.0001 140.665 28.5001C138.689 28.9987 136.691 29.2502 134.78 28.9158C132.882 28.5838 131.042 27.6696 129.374 25.7845L128.626 26.4471Z" fill="#6559F4"/>
<rect x="150.5" y="18.4256" width="48" height="16" fill="#6559F4" stroke="#4A40BF"/>
<path d="M154.93 29.9256V22.9456H159.19V23.6856H155.77V26.0256H158.99V26.7656H155.77V29.1856H159.19V29.9256H154.93ZM160.68 29.9256V24.7656H161.48V25.6056H161.52C161.647 25.3123 161.823 25.079 162.05 24.9056C162.283 24.7323 162.593 24.6456 162.98 24.6456C163.513 24.6456 163.933 24.819 164.24 25.1656C164.553 25.5056 164.71 25.989 164.71 26.6156V29.9256H163.91V26.7556C163.91 25.829 163.52 25.3656 162.74 25.3656C162.58 25.3656 162.423 25.3856 162.27 25.4256C162.123 25.4656 161.99 25.5256 161.87 25.6056C161.75 25.6856 161.653 25.789 161.58 25.9156C161.513 26.0356 161.48 26.179 161.48 26.3456V29.9256H160.68ZM167.504 29.9256C167.224 29.9256 167.01 29.849 166.864 29.6956C166.724 29.5356 166.654 29.329 166.654 29.0756V25.4656H165.804V24.7656H166.284C166.457 24.7656 166.574 24.7323 166.634 24.6656C166.7 24.5923 166.734 24.469 166.734 24.2956V23.3356H167.454V24.7656H168.584V25.4656H167.454V29.2256H168.504V29.9256H167.504ZM169.87 29.9256V24.7656H170.67V25.7156H170.72C170.813 25.469 170.98 25.249 171.22 25.0556C171.46 24.8623 171.79 24.7656 172.21 24.7656H172.52V25.5656H172.05C171.616 25.5656 171.276 25.649 171.03 25.8156C170.79 25.9756 170.67 26.179 170.67 26.4256V29.9256H169.87ZM176.819 24.7656H177.609L175.299 31.1256C175.239 31.279 175.179 31.4056 175.119 31.5056C175.059 31.6123 174.986 31.6956 174.899 31.7556C174.812 31.8156 174.702 31.859 174.569 31.8856C174.442 31.9123 174.286 31.9256 174.099 31.9256H173.689V31.2256H174.499L174.889 30.1256L172.959 24.7656H173.759L174.999 28.2756L175.239 29.1156H175.289L175.569 28.2756L176.819 24.7656Z" fill="white"/>
<path d="M163.813 100.736C163.6 100.736 163.443 100.682 163.343 100.576C163.25 100.469 163.203 100.329 163.203 100.156V100.026C163.203 99.8525 163.25 99.7125 163.343 99.6058C163.443 99.4991 163.6 99.4458 163.813 99.4458C164.026 99.4458 164.18 99.4991 164.273 99.6058C164.373 99.7125 164.423 99.8525 164.423 100.026V100.156C164.423 100.329 164.373 100.469 164.273 100.576C164.18 100.682 164.026 100.736 163.813 100.736ZM166.538 100.736C166.324 100.736 166.168 100.682 166.068 100.576C165.974 100.469 165.928 100.329 165.928 100.156V100.026C165.928 99.8525 165.974 99.7125 166.068 99.6058C166.168 99.4991 166.324 99.4458 166.538 99.4458C166.751 99.4458 166.904 99.4991 166.998 99.6058C167.098 99.7125 167.148 99.8525 167.148 100.026V100.156C167.148 100.329 167.098 100.469 166.998 100.576C166.904 100.682 166.751 100.736 166.538 100.736ZM169.262 100.736C169.049 100.736 168.892 100.682 168.792 100.576C168.699 100.469 168.652 100.329 168.652 100.156V100.026C168.652 99.8525 168.699 99.7125 168.792 99.6058C168.892 99.4991 169.049 99.4458 169.262 99.4458C169.476 99.4458 169.629 99.4991 169.722 99.6058C169.822 99.7125 169.872 99.8525 169.872 100.026V100.156C169.872 100.329 169.822 100.469 169.722 100.576C169.629 100.682 169.476 100.736 169.262 100.736ZM180.93 95.4558H181.73V96.2958H181.77C181.903 95.9691 182.097 95.7291 182.35 95.5758C182.61 95.4158 182.92 95.3358 183.28 95.3358C183.6 95.3358 183.89 95.3991 184.15 95.5258C184.41 95.6525 184.63 95.8325 184.81 96.0658C184.997 96.2991 185.137 96.5825 185.23 96.9158C185.33 97.2491 185.38 97.6225 185.38 98.0358C185.38 98.4491 185.33 98.8225 185.23 99.1558C185.137 99.4891 184.997 99.7725 184.81 100.006C184.63 100.239 184.41 100.419 184.15 100.546C183.89 100.672 183.6 100.736 183.28 100.736C182.58 100.736 182.077 100.416 181.77 99.7758H181.73V102.616H180.93V95.4558ZM183.06 100.016C183.513 100.016 183.87 99.8758 184.13 99.5958C184.39 99.3091 184.52 98.9358 184.52 98.4758V97.5958C184.52 97.1358 184.39 96.7658 184.13 96.4858C183.87 96.1991 183.513 96.0558 183.06 96.0558C182.88 96.0558 182.707 96.0825 182.54 96.1358C182.38 96.1825 182.24 96.2491 182.12 96.3358C182 96.4225 181.903 96.5291 181.83 96.6558C181.763 96.7758 181.73 96.9058 181.73 97.0458V98.9658C181.73 99.1325 181.763 99.2825 181.83 99.4158C181.903 99.5425 182 99.6525 182.12 99.7458C182.24 99.8325 182.38 99.8991 182.54 99.9458C182.707 99.9925 182.88 100.016 183.06 100.016ZM189.911 99.7758H189.871C189.818 99.8958 189.751 100.016 189.671 100.136C189.598 100.249 189.504 100.352 189.391 100.446C189.278 100.532 189.141 100.602 188.981 100.656C188.821 100.709 188.634 100.736 188.421 100.736C187.888 100.736 187.464 100.566 187.151 100.226C186.838 99.8791 186.681 99.3925 186.681 98.7658V95.4558H187.481V98.6258C187.481 99.5525 187.874 100.016 188.661 100.016C188.821 100.016 188.974 99.9958 189.121 99.9558C189.274 99.9158 189.408 99.8558 189.521 99.7758C189.641 99.6958 189.734 99.5958 189.801 99.4758C189.874 99.3491 189.911 99.1991 189.911 99.0258V95.4558H190.711V100.616H189.911V99.7758ZM193.964 100.736C193.484 100.736 193.081 100.646 192.754 100.466C192.434 100.279 192.158 100.032 191.924 99.7258L192.494 99.2658C192.694 99.5191 192.918 99.7158 193.164 99.8558C193.411 99.9891 193.698 100.056 194.024 100.056C194.364 100.056 194.628 99.9825 194.814 99.8358C195.008 99.6891 195.104 99.4825 195.104 99.2158C195.104 99.0158 195.038 98.8458 194.904 98.7058C194.778 98.5591 194.544 98.4591 194.204 98.4058L193.794 98.3458C193.554 98.3125 193.334 98.2625 193.134 98.1958C192.934 98.1225 192.758 98.0291 192.604 97.9158C192.458 97.7958 192.341 97.6491 192.254 97.4758C192.174 97.3025 192.134 97.0958 192.134 96.8558C192.134 96.6025 192.181 96.3825 192.274 96.1958C192.368 96.0025 192.494 95.8425 192.654 95.7158C192.821 95.5891 193.018 95.4958 193.244 95.4358C193.471 95.3691 193.714 95.3358 193.974 95.3358C194.394 95.3358 194.744 95.4091 195.024 95.5558C195.311 95.7025 195.561 95.9058 195.774 96.1658L195.244 96.6458C195.131 96.4858 194.964 96.3425 194.744 96.2158C194.524 96.0825 194.248 96.0158 193.914 96.0158C193.581 96.0158 193.328 96.0891 193.154 96.2358C192.988 96.3758 192.904 96.5691 192.904 96.8158C192.904 97.0691 192.988 97.2525 193.154 97.3658C193.328 97.4791 193.574 97.5625 193.894 97.6158L194.294 97.6758C194.868 97.7625 195.274 97.9291 195.514 98.1758C195.754 98.4158 195.874 98.7325 195.874 99.1258C195.874 99.6258 195.704 100.019 195.364 100.306C195.024 100.592 194.558 100.736 193.964 100.736ZM197.288 93.2158H198.088V96.2958H198.128C198.254 96.0025 198.431 95.7691 198.658 95.5958C198.891 95.4225 199.201 95.3358 199.588 95.3358C200.121 95.3358 200.541 95.5091 200.848 95.8558C201.161 96.1958 201.318 96.6791 201.318 97.3058V100.616H200.518V97.4458C200.518 96.5191 200.128 96.0558 199.348 96.0558C199.188 96.0558 199.031 96.0758 198.878 96.1158C198.731 96.1558 198.598 96.2158 198.478 96.2958C198.358 96.3758 198.261 96.4791 198.188 96.6058C198.121 96.7258 198.088 96.8691 198.088 97.0358V100.616H197.288V93.2158ZM204.911 100.736C204.558 100.736 204.238 100.672 203.951 100.546C203.671 100.419 203.428 100.239 203.221 100.006C203.021 99.7658 202.864 99.4825 202.751 99.1558C202.644 98.8225 202.591 98.4491 202.591 98.0358C202.591 97.6291 202.644 97.2591 202.751 96.9258C202.864 96.5925 203.021 96.3091 203.221 96.0758C203.428 95.8358 203.671 95.6525 203.951 95.5258C204.238 95.3991 204.558 95.3358 204.911 95.3358C205.258 95.3358 205.568 95.3991 205.841 95.5258C206.114 95.6525 206.348 95.8291 206.541 96.0558C206.734 96.2758 206.881 96.5391 206.981 96.8458C207.088 97.1525 207.141 97.4891 207.141 97.8558V98.2358H203.431V98.4758C203.431 98.6958 203.464 98.9025 203.531 99.0958C203.604 99.2825 203.704 99.4458 203.831 99.5858C203.964 99.7258 204.124 99.8358 204.311 99.9158C204.504 99.9958 204.721 100.036 204.961 100.036C205.288 100.036 205.571 99.9591 205.811 99.8058C206.058 99.6525 206.248 99.4325 206.381 99.1458L206.951 99.5558C206.784 99.9091 206.524 100.196 206.171 100.416C205.818 100.629 205.398 100.736 204.911 100.736ZM204.911 96.0058C204.691 96.0058 204.491 96.0458 204.311 96.1258C204.131 96.1991 203.974 96.3058 203.841 96.4458C203.714 96.5858 203.614 96.7525 203.541 96.9458C203.468 97.1325 203.431 97.3391 203.431 97.5658V97.6358H206.281V97.5258C206.281 97.0658 206.154 96.6991 205.901 96.4258C205.654 96.1458 205.324 96.0058 204.911 96.0058ZM210.009 100.736C209.529 100.736 209.126 100.646 208.799 100.466C208.479 100.279 208.203 100.032 207.969 99.7258L208.539 99.2658C208.739 99.5191 208.963 99.7158 209.209 99.8558C209.456 99.9891 209.743 100.056 210.069 100.056C210.409 100.056 210.673 99.9825 210.859 99.8358C211.053 99.6891 211.149 99.4825 211.149 99.2158C211.149 99.0158 211.083 98.8458 210.949 98.7058C210.823 98.5591 210.589 98.4591 210.249 98.4058L209.839 98.3458C209.599 98.3125 209.379 98.2625 209.179 98.1958C208.979 98.1225 208.803 98.0291 208.649 97.9158C208.503 97.7958 208.386 97.6491 208.299 97.4758C208.219 97.3025 208.179 97.0958 208.179 96.8558C208.179 96.6025 208.226 96.3825 208.319 96.1958C208.413 96.0025 208.539 95.8425 208.699 95.7158C208.866 95.5891 209.063 95.4958 209.289 95.4358C209.516 95.3691 209.759 95.3358 210.019 95.3358C210.439 95.3358 210.789 95.4091 211.069 95.5558C211.356 95.7025 211.606 95.9058 211.819 96.1658L211.289 96.6458C211.176 96.4858 211.009 96.3425 210.789 96.2158C210.569 96.0825 210.293 96.0158 209.959 96.0158C209.626 96.0158 209.373 96.0891 209.199 96.2358C209.033 96.3758 208.949 96.5691 208.949 96.8158C208.949 97.0691 209.033 97.2525 209.199 97.3658C209.373 97.4791 209.619 97.5625 209.939 97.6158L210.339 97.6758C210.913 97.7625 211.319 97.9291 211.559 98.1758C211.799 98.4158 211.919 98.7325 211.919 99.1258C211.919 99.6258 211.749 100.019 211.409 100.306C211.069 100.592 210.603 100.736 210.009 100.736ZM220.932 100.736C220.719 100.736 220.562 100.682 220.462 100.576C220.369 100.469 220.322 100.329 220.322 100.156V100.026C220.322 99.8525 220.369 99.7125 220.462 99.6058C220.562 99.4991 220.719 99.4458 220.932 99.4458C221.146 99.4458 221.299 99.4991 221.392 99.6058C221.492 99.7125 221.542 99.8525 221.542 100.026V100.156C221.542 100.329 221.492 100.469 221.392 100.576C221.299 100.682 221.146 100.736 220.932 100.736ZM223.657 100.736C223.444 100.736 223.287 100.682 223.187 100.576C223.094 100.469 223.047 100.329 223.047 100.156V100.026C223.047 99.8525 223.094 99.7125 223.187 99.6058C223.287 99.4991 223.444 99.4458 223.657 99.4458C223.87 99.4458 224.024 99.4991 224.117 99.6058C224.217 99.7125 224.267 99.8525 224.267 100.026V100.156C224.267 100.329 224.217 100.469 224.117 100.576C224.024 100.682 223.87 100.736 223.657 100.736ZM226.381 100.736C226.168 100.736 226.011 100.682 225.911 100.576C225.818 100.469 225.771 100.329 225.771 100.156V100.026C225.771 99.8525 225.818 99.7125 225.911 99.6058C226.011 99.4991 226.168 99.4458 226.381 99.4458C226.595 99.4458 226.748 99.4991 226.841 99.6058C226.941 99.7125 226.991 99.8525 226.991 100.026V100.156C226.991 100.329 226.941 100.469 226.841 100.576C226.748 100.682 226.595 100.736 226.381 100.736Z" fill="#B4B4B4"/>
<path d="M163.813 181.12C163.6 181.12 163.443 181.067 163.343 180.96C163.25 180.853 163.203 180.713 163.203 180.54V180.41C163.203 180.237 163.25 180.097 163.343 179.99C163.443 179.883 163.6 179.83 163.813 179.83C164.026 179.83 164.18 179.883 164.273 179.99C164.373 180.097 164.423 180.237 164.423 180.41V180.54C164.423 180.713 164.373 180.853 164.273 180.96C164.18 181.067 164.026 181.12 163.813 181.12ZM166.538 181.12C166.324 181.12 166.168 181.067 166.068 180.96C165.974 180.853 165.928 180.713 165.928 180.54V180.41C165.928 180.237 165.974 180.097 166.068 179.99C166.168 179.883 166.324 179.83 166.538 179.83C166.751 179.83 166.904 179.883 166.998 179.99C167.098 180.097 167.148 180.237 167.148 180.41V180.54C167.148 180.713 167.098 180.853 166.998 180.96C166.904 181.067 166.751 181.12 166.538 181.12ZM169.262 181.12C169.049 181.12 168.892 181.067 168.792 180.96C168.699 180.853 168.652 180.713 168.652 180.54V180.41C168.652 180.237 168.699 180.097 168.792 179.99C168.892 179.883 169.049 179.83 169.262 179.83C169.476 179.83 169.629 179.883 169.722 179.99C169.822 180.097 169.872 180.237 169.872 180.41V180.54C169.872 180.713 169.822 180.853 169.722 180.96C169.629 181.067 169.476 181.12 169.262 181.12ZM185.243 181.12C184.897 181.12 184.58 181.057 184.293 180.93C184.007 180.803 183.76 180.623 183.553 180.39C183.353 180.15 183.197 179.867 183.083 179.54C182.97 179.207 182.913 178.833 182.913 178.42C182.913 178.013 182.97 177.643 183.083 177.31C183.197 176.977 183.353 176.693 183.553 176.46C183.76 176.22 184.007 176.037 184.293 175.91C184.58 175.783 184.897 175.72 185.243 175.72C185.59 175.72 185.903 175.783 186.183 175.91C186.47 176.037 186.717 176.22 186.923 176.46C187.13 176.693 187.29 176.977 187.403 177.31C187.517 177.643 187.573 178.013 187.573 178.42C187.573 178.833 187.517 179.207 187.403 179.54C187.29 179.867 187.13 180.15 186.923 180.39C186.717 180.623 186.47 180.803 186.183 180.93C185.903 181.057 185.59 181.12 185.243 181.12ZM185.243 180.41C185.677 180.41 186.03 180.277 186.303 180.01C186.577 179.743 186.713 179.337 186.713 178.79V178.05C186.713 177.503 186.577 177.097 186.303 176.83C186.03 176.563 185.677 176.43 185.243 176.43C184.81 176.43 184.457 176.563 184.183 176.83C183.91 177.097 183.773 177.503 183.773 178.05V178.79C183.773 179.337 183.91 179.743 184.183 180.01C184.457 180.277 184.81 180.41 185.243 180.41ZM188.889 175.84H189.689V176.68H189.729C189.862 176.353 190.056 176.113 190.309 175.96C190.569 175.8 190.879 175.72 191.239 175.72C191.559 175.72 191.849 175.783 192.109 175.91C192.369 176.037 192.589 176.217 192.769 176.45C192.956 176.683 193.096 176.967 193.189 177.3C193.289 177.633 193.339 178.007 193.339 178.42C193.339 178.833 193.289 179.207 193.189 179.54C193.096 179.873 192.956 180.157 192.769 180.39C192.589 180.623 192.369 180.803 192.109 180.93C191.849 181.057 191.559 181.12 191.239 181.12C190.539 181.12 190.036 180.8 189.729 180.16H189.689V183H188.889V175.84ZM191.019 180.4C191.472 180.4 191.829 180.26 192.089 179.98C192.349 179.693 192.479 179.32 192.479 178.86V177.98C192.479 177.52 192.349 177.15 192.089 176.87C191.829 176.583 191.472 176.44 191.019 176.44C190.839 176.44 190.666 176.467 190.499 176.52C190.339 176.567 190.199 176.633 190.079 176.72C189.959 176.807 189.862 176.913 189.789 177.04C189.722 177.16 189.689 177.29 189.689 177.43V179.35C189.689 179.517 189.722 179.667 189.789 179.8C189.862 179.927 189.959 180.037 190.079 180.13C190.199 180.217 190.339 180.283 190.499 180.33C190.666 180.377 190.839 180.4 191.019 180.4ZM196.63 181.12C196.277 181.12 195.957 181.057 195.67 180.93C195.39 180.803 195.147 180.623 194.94 180.39C194.74 180.15 194.583 179.867 194.47 179.54C194.363 179.207 194.31 178.833 194.31 178.42C194.31 178.013 194.363 177.643 194.47 177.31C194.583 176.977 194.74 176.693 194.94 176.46C195.147 176.22 195.39 176.037 195.67 175.91C195.957 175.783 196.277 175.72 196.63 175.72C196.977 175.72 197.287 175.783 197.56 175.91C197.833 176.037 198.067 176.213 198.26 176.44C198.453 176.66 198.6 176.923 198.7 177.23C198.807 177.537 198.86 177.873 198.86 178.24V178.62H195.15V178.86C195.15 179.08 195.183 179.287 195.25 179.48C195.323 179.667 195.423 179.83 195.55 179.97C195.683 180.11 195.843 180.22 196.03 180.3C196.223 180.38 196.44 180.42 196.68 180.42C197.007 180.42 197.29 180.343 197.53 180.19C197.777 180.037 197.967 179.817 198.1 179.53L198.67 179.94C198.503 180.293 198.243 180.58 197.89 180.8C197.537 181.013 197.117 181.12 196.63 181.12ZM196.63 176.39C196.41 176.39 196.21 176.43 196.03 176.51C195.85 176.583 195.693 176.69 195.56 176.83C195.433 176.97 195.333 177.137 195.26 177.33C195.187 177.517 195.15 177.723 195.15 177.95V178.02H198V177.91C198 177.45 197.873 177.083 197.62 176.81C197.373 176.53 197.043 176.39 196.63 176.39ZM200.178 181V175.84H200.978V176.68H201.018C201.145 176.387 201.321 176.153 201.548 175.98C201.781 175.807 202.091 175.72 202.478 175.72C203.011 175.72 203.431 175.893 203.738 176.24C204.051 176.58 204.208 177.063 204.208 177.69V181H203.408V177.83C203.408 176.903 203.018 176.44 202.238 176.44C202.078 176.44 201.921 176.46 201.768 176.5C201.621 176.54 201.488 176.6 201.368 176.68C201.248 176.76 201.151 176.863 201.078 176.99C201.011 177.11 200.978 177.253 200.978 177.42V181H200.178ZM207.412 181.12C206.932 181.12 206.528 181.03 206.202 180.85C205.882 180.663 205.605 180.417 205.372 180.11L205.942 179.65C206.142 179.903 206.365 180.1 206.612 180.24C206.858 180.373 207.145 180.44 207.472 180.44C207.812 180.44 208.075 180.367 208.262 180.22C208.455 180.073 208.552 179.867 208.552 179.6C208.552 179.4 208.485 179.23 208.352 179.09C208.225 178.943 207.992 178.843 207.652 178.79L207.242 178.73C207.002 178.697 206.782 178.647 206.582 178.58C206.382 178.507 206.205 178.413 206.052 178.3C205.905 178.18 205.788 178.033 205.702 177.86C205.622 177.687 205.582 177.48 205.582 177.24C205.582 176.987 205.628 176.767 205.722 176.58C205.815 176.387 205.942 176.227 206.102 176.1C206.268 175.973 206.465 175.88 206.692 175.82C206.918 175.753 207.162 175.72 207.422 175.72C207.842 175.72 208.192 175.793 208.472 175.94C208.758 176.087 209.008 176.29 209.222 176.55L208.692 177.03C208.578 176.87 208.412 176.727 208.192 176.6C207.972 176.467 207.695 176.4 207.362 176.4C207.028 176.4 206.775 176.473 206.602 176.62C206.435 176.76 206.352 176.953 206.352 177.2C206.352 177.453 206.435 177.637 206.602 177.75C206.775 177.863 207.022 177.947 207.342 178L207.742 178.06C208.315 178.147 208.722 178.313 208.962 178.56C209.202 178.8 209.322 179.117 209.322 179.51C209.322 180.01 209.152 180.403 208.812 180.69C208.472 180.977 208.005 181.12 207.412 181.12ZM220.698 181.12C220.485 181.12 220.328 181.067 220.228 180.96C220.135 180.853 220.088 180.713 220.088 180.54V180.41C220.088 180.237 220.135 180.097 220.228 179.99C220.328 179.883 220.485 179.83 220.698 179.83C220.911 179.83 221.065 179.883 221.158 179.99C221.258 180.097 221.308 180.237 221.308 180.41V180.54C221.308 180.713 221.258 180.853 221.158 180.96C221.065 181.067 220.911 181.12 220.698 181.12ZM223.423 181.12C223.209 181.12 223.053 181.067 222.953 180.96C222.859 180.853 222.813 180.713 222.813 180.54V180.41C222.813 180.237 222.859 180.097 222.953 179.99C223.053 179.883 223.209 179.83 223.423 179.83C223.636 179.83 223.789 179.883 223.883 179.99C223.983 180.097 224.033 180.237 224.033 180.41V180.54C224.033 180.713 223.983 180.853 223.883 180.96C223.789 181.067 223.636 181.12 223.423 181.12ZM226.147 181.12C225.934 181.12 225.777 181.067 225.677 180.96C225.584 180.853 225.537 180.713 225.537 180.54V180.41C225.537 180.237 225.584 180.097 225.677 179.99C225.777 179.883 225.934 179.83 226.147 179.83C226.36 179.83 226.514 179.883 226.607 179.99C226.707 180.097 226.757 180.237 226.757 180.41V180.54C226.757 180.713 226.707 180.853 226.607 180.96C226.514 181.067 226.36 181.12 226.147 181.12Z" fill="#B4B4B4"/>
<rect x="26.5" y="38.1158" width="92" height="42" rx="1.5" stroke="#4472B0" stroke-dasharray="2 2"/>
<circle cx="73" cy="59.6158" r="6" fill="#23A787"/>
<path d="M74.46 64.13H73.41C72.8567 64.13 72.3867 64.0433 72 63.87C71.6133 63.6967 71.3 63.4367 71.06 63.09C70.82 62.7433 70.6467 62.31 70.54 61.79C70.4333 61.2633 70.38 60.65 70.38 59.95C70.38 59.19 70.4367 58.5533 70.55 58.04C70.67 57.52 70.84 57.1033 71.06 56.79C71.2867 56.47 71.5633 56.2433 71.89 56.11C72.2167 55.97 72.59 55.9 73.01 55.9C73.4433 55.9 73.8167 55.9633 74.13 56.09C74.45 56.2167 74.7133 56.3933 74.92 56.62C75.1267 56.84 75.28 57.1 75.38 57.4C75.48 57.7 75.53 58.0233 75.53 58.37V62.09H74.46V61.48H74.39C74.3167 61.7267 74.2 61.91 74.04 62.03C73.88 62.15 73.6833 62.21 73.45 62.21C73.0567 62.21 72.75 62.04 72.53 61.7C72.3167 61.3533 72.21 60.8067 72.21 60.06C72.21 59.3133 72.3167 58.77 72.53 58.43C72.75 58.0833 73.0567 57.91 73.45 57.91C73.6833 57.91 73.88 57.97 74.04 58.09C74.2 58.21 74.3167 58.3933 74.39 58.64H74.46V58.37C74.46 58.09 74.4267 57.8533 74.36 57.66C74.2933 57.4667 74.1967 57.31 74.07 57.19C73.95 57.07 73.8033 56.9833 73.63 56.93C73.4633 56.8767 73.2767 56.85 73.07 56.85C72.8233 56.85 72.6033 56.89 72.41 56.97C72.2167 57.05 72.05 57.1867 71.91 57.38C71.7767 57.5733 71.6733 57.8367 71.6 58.17C71.5333 58.5033 71.5 58.92 71.5 59.42V60.71C71.5 61.0967 71.5333 61.4433 71.6 61.75C71.6733 62.0567 71.7867 62.3167 71.94 62.53C72.0933 62.7367 72.29 62.8933 72.53 63C72.77 63.1133 73.0633 63.17 73.41 63.17H74.46V64.13ZM73.89 61.35C74.0767 61.35 74.2167 61.2967 74.31 61.19C74.41 61.0833 74.46 60.94 74.46 60.76V59.36C74.46 59.18 74.41 59.0367 74.31 58.93C74.2167 58.8233 74.0767 58.77 73.89 58.77C73.71 58.77 73.57 58.8367 73.47 58.97C73.3767 59.1033 73.33 59.3567 73.33 59.73V60.39C73.33 60.7633 73.3767 61.0167 73.47 61.15C73.57 61.2833 73.71 61.35 73.89 61.35Z" fill="#155E4C"/>
<circle cx="73.5" cy="158" r="6" fill="#23A787"/>
<circle cx="195" cy="150" r="6" fill="#23A787"/>
<circle cx="196" cy="69.6158" r="6" fill="#FCEB4F"/>
<circle cx="73" cy="108.616" r="6" fill="#FCEB4F"/>
<path d="M74.46 162.13H73.41C72.8567 162.13 72.3867 162.043 72 161.87C71.6133 161.697 71.3 161.437 71.06 161.09C70.82 160.743 70.6467 160.31 70.54 159.79C70.4333 159.263 70.38 158.65 70.38 157.95C70.38 157.19 70.4367 156.553 70.55 156.04C70.67 155.52 70.84 155.103 71.06 154.79C71.2867 154.47 71.5633 154.243 71.89 154.11C72.2167 153.97 72.59 153.9 73.01 153.9C73.4433 153.9 73.8167 153.963 74.13 154.09C74.45 154.217 74.7133 154.393 74.92 154.62C75.1267 154.84 75.28 155.1 75.38 155.4C75.48 155.7 75.53 156.023 75.53 156.37V160.09H74.46V159.48H74.39C74.3167 159.727 74.2 159.91 74.04 160.03C73.88 160.15 73.6833 160.21 73.45 160.21C73.0567 160.21 72.75 160.04 72.53 159.7C72.3167 159.353 72.21 158.807 72.21 158.06C72.21 157.313 72.3167 156.77 72.53 156.43C72.75 156.083 73.0567 155.91 73.45 155.91C73.6833 155.91 73.88 155.97 74.04 156.09C74.2 156.21 74.3167 156.393 74.39 156.64H74.46V156.37C74.46 156.09 74.4267 155.853 74.36 155.66C74.2933 155.467 74.1967 155.31 74.07 155.19C73.95 155.07 73.8033 154.983 73.63 154.93C73.4633 154.877 73.2767 154.85 73.07 154.85C72.8233 154.85 72.6033 154.89 72.41 154.97C72.2167 155.05 72.05 155.187 71.91 155.38C71.7767 155.573 71.6733 155.837 71.6 156.17C71.5333 156.503 71.5 156.92 71.5 157.42V158.71C71.5 159.097 71.5333 159.443 71.6 159.75C71.6733 160.057 71.7867 160.317 71.94 160.53C72.0933 160.737 72.29 160.893 72.53 161C72.77 161.113 73.0633 161.17 73.41 161.17H74.46V162.13ZM73.89 159.35C74.0767 159.35 74.2167 159.297 74.31 159.19C74.41 159.083 74.46 158.94 74.46 158.76V157.36C74.46 157.18 74.41 157.037 74.31 156.93C74.2167 156.823 74.0767 156.77 73.89 156.77C73.71 156.77 73.57 156.837 73.47 156.97C73.3767 157.103 73.33 157.357 73.33 157.73V158.39C73.33 158.763 73.3767 159.017 73.47 159.15C73.57 159.283 73.71 159.35 73.89 159.35Z" fill="#155E4C"/>
<path d="M72.53 112.1C72.03 112.06 71.59 111.95 71.21 111.77C70.8367 111.583 70.5333 111.34 70.3 111.04L71.17 110.09C71.3833 110.317 71.61 110.493 71.85 110.62C72.0967 110.747 72.3567 110.83 72.63 110.87V109.03L72.4 108.99C71.76 108.877 71.2867 108.643 70.98 108.29C70.6733 107.93 70.52 107.493 70.52 106.98C70.52 106.413 70.6933 105.953 71.04 105.6C71.3867 105.247 71.8833 105.027 72.53 104.94V103.89H73.67V104.93C74.09 104.983 74.4467 105.09 74.74 105.25C75.04 105.41 75.29 105.607 75.49 105.84L74.63 106.8C74.35 106.493 73.9967 106.293 73.57 106.2V107.87L73.8 107.91C74.44 108.03 74.9133 108.263 75.22 108.61C75.5267 108.95 75.68 109.373 75.68 109.88C75.68 110.153 75.6333 110.41 75.54 110.65C75.4533 110.89 75.3233 111.103 75.15 111.29C74.9833 111.477 74.7733 111.637 74.52 111.77C74.2733 111.897 73.99 111.99 73.67 112.05V113.13H72.53V112.1ZM71.93 106.93C71.93 107.143 71.9833 107.307 72.09 107.42C72.2033 107.527 72.3833 107.613 72.63 107.68V106.17C72.3833 106.21 72.2033 106.293 72.09 106.42C71.9833 106.547 71.93 106.717 71.93 106.93ZM74.28 109.98C74.28 109.753 74.2233 109.583 74.11 109.47C73.9967 109.357 73.8167 109.27 73.57 109.21V110.86C73.81 110.807 73.9867 110.707 74.1 110.56C74.22 110.407 74.28 110.213 74.28 109.98Z" fill="#8A8134"/>
<path d="M195.53 73.1C195.03 73.06 194.59 72.95 194.21 72.77C193.837 72.5833 193.533 72.34 193.3 72.04L194.17 71.09C194.383 71.3167 194.61 71.4933 194.85 71.62C195.097 71.7467 195.357 71.83 195.63 71.87V70.03L195.4 69.99C194.76 69.8767 194.287 69.6433 193.98 69.29C193.673 68.93 193.52 68.4933 193.52 67.98C193.52 67.4133 193.693 66.9533 194.04 66.6C194.387 66.2467 194.883 66.0267 195.53 65.94V64.89H196.67V65.93C197.09 65.9833 197.447 66.09 197.74 66.25C198.04 66.41 198.29 66.6067 198.49 66.84L197.63 67.8C197.35 67.4933 196.997 67.2933 196.57 67.2V68.87L196.8 68.91C197.44 69.03 197.913 69.2633 198.22 69.61C198.527 69.95 198.68 70.3733 198.68 70.88C198.68 71.1533 198.633 71.41 198.54 71.65C198.453 71.89 198.323 72.1033 198.15 72.29C197.983 72.4767 197.773 72.6367 197.52 72.77C197.273 72.8967 196.99 72.99 196.67 73.05V74.13H195.53V73.1ZM194.93 67.93C194.93 68.1433 194.983 68.3067 195.09 68.42C195.203 68.5267 195.383 68.6133 195.63 68.68V67.17C195.383 67.21 195.203 67.2933 195.09 67.42C194.983 67.5467 194.93 67.7167 194.93 67.93ZM197.28 70.98C197.28 70.7533 197.223 70.5833 197.11 70.47C196.997 70.3567 196.817 70.27 196.57 70.21V71.86C196.81 71.8067 196.987 71.7067 197.1 71.56C197.22 71.4067 197.28 71.2133 197.28 70.98Z" fill="#8A8134"/>
<path d="M196.46 154.13H195.41C194.857 154.13 194.387 154.043 194 153.87C193.613 153.697 193.3 153.437 193.06 153.09C192.82 152.743 192.647 152.31 192.54 151.79C192.433 151.263 192.38 150.65 192.38 149.95C192.38 149.19 192.437 148.553 192.55 148.04C192.67 147.52 192.84 147.103 193.06 146.79C193.287 146.47 193.563 146.243 193.89 146.11C194.217 145.97 194.59 145.9 195.01 145.9C195.443 145.9 195.817 145.963 196.13 146.09C196.45 146.217 196.713 146.393 196.92 146.62C197.127 146.84 197.28 147.1 197.38 147.4C197.48 147.7 197.53 148.023 197.53 148.37V152.09H196.46V151.48H196.39C196.317 151.727 196.2 151.91 196.04 152.03C195.88 152.15 195.683 152.21 195.45 152.21C195.057 152.21 194.75 152.04 194.53 151.7C194.317 151.353 194.21 150.807 194.21 150.06C194.21 149.313 194.317 148.77 194.53 148.43C194.75 148.083 195.057 147.91 195.45 147.91C195.683 147.91 195.88 147.97 196.04 148.09C196.2 148.21 196.317 148.393 196.39 148.64H196.46V148.37C196.46 148.09 196.427 147.853 196.36 147.66C196.293 147.467 196.197 147.31 196.07 147.19C195.95 147.07 195.803 146.983 195.63 146.93C195.463 146.877 195.277 146.85 195.07 146.85C194.823 146.85 194.603 146.89 194.41 146.97C194.217 147.05 194.05 147.187 193.91 147.38C193.777 147.573 193.673 147.837 193.6 148.17C193.533 148.503 193.5 148.92 193.5 149.42V150.71C193.5 151.097 193.533 151.443 193.6 151.75C193.673 152.057 193.787 152.317 193.94 152.53C194.093 152.737 194.29 152.893 194.53 153C194.77 153.113 195.063 153.17 195.41 153.17H196.46V154.13ZM195.89 151.35C196.077 151.35 196.217 151.297 196.31 151.19C196.41 151.083 196.46 150.94 196.46 150.76V149.36C196.46 149.18 196.41 149.037 196.31 148.93C196.217 148.823 196.077 148.77 195.89 148.77C195.71 148.77 195.57 148.837 195.47 148.97C195.377 149.103 195.33 149.357 195.33 149.73V150.39C195.33 150.763 195.377 151.017 195.47 151.15C195.57 151.283 195.71 151.35 195.89 151.35Z" fill="#155E4C"/>
<defs>
<linearGradient id="paint0_linear_2_48" x1="40.4292" y1="43.6158" x2="40.4292" y2="75.6158" gradientUnits="userSpaceOnUse">
<stop stop-color="#4472B0"/>
<stop offset="1" stop-color="#6559F4"/>
</linearGradient>
<linearGradient id="paint1_linear_2_48" x1="162.429" y1="134" x2="162.429" y2="166" gradientUnits="userSpaceOnUse">
<stop stop-color="#4472B0"/>
<stop offset="1" stop-color="#6559F4"/>
</linearGradient>
<linearGradient id="paint2_linear_2_48" x1="163.429" y1="53.6158" x2="163.429" y2="85.6158" gradientUnits="userSpaceOnUse">
<stop stop-color="#4472B0"/>
<stop offset="1" stop-color="#6559F4"/>
</linearGradient>
<linearGradient id="paint3_linear_2_48" x1="40.4292" y1="92.6158" x2="40.4292" y2="124.616" gradientUnits="userSpaceOnUse">
<stop stop-color="#4472B0"/>
<stop offset="1" stop-color="#6559F4"/>
</linearGradient>
<linearGradient id="paint4_linear_2_48" x1="40.4292" y1="141.616" x2="40.4292" y2="173.616" gradientUnits="userSpaceOnUse">
<stop stop-color="#4472B0"/>
<stop offset="1" stop-color="#6559F4"/>
</linearGradient>
<linearGradient id="paint5_linear_2_48" x1="92.4292" y1="43.6158" x2="92.4292" y2="75.6158" gradientUnits="userSpaceOnUse">
<stop stop-color="#4472B0"/>
<stop offset="1" stop-color="#6559F4"/>
</linearGradient>
<linearGradient id="paint6_linear_2_48" x1="214.429" y1="134" x2="214.429" y2="166" gradientUnits="userSpaceOnUse">
<stop stop-color="#4472B0"/>
<stop offset="1" stop-color="#6559F4"/>
</linearGradient>
<linearGradient id="paint7_linear_2_48" x1="215.429" y1="53.6158" x2="215.429" y2="85.6158" gradientUnits="userSpaceOnUse">
<stop stop-color="#4472B0"/>
<stop offset="1" stop-color="#6559F4"/>
</linearGradient>
<linearGradient id="paint8_linear_2_48" x1="92.4292" y1="92.6158" x2="92.4292" y2="124.616" gradientUnits="userSpaceOnUse">
<stop stop-color="#4472B0"/>
<stop offset="1" stop-color="#6559F4"/>
</linearGradient>
<linearGradient id="paint9_linear_2_48" x1="92.4292" y1="141.616" x2="92.4292" y2="173.616" gradientUnits="userSpaceOnUse">
<stop stop-color="#4472B0"/>
<stop offset="1" stop-color="#6559F4"/>
</linearGradient>
</defs>
</svg>
