<svg width="524" height="278" viewBox="0 0 524 278" fill="none" xmlns="http://www.w3.org/2000/svg">
<rect width="524" height="278" fill="#0D1117"/>
<rect x="24" y="40.4608" width="32" height="32" rx="4" fill="url(#paint0_linear_3_122)"/>
<rect x="311" y="40.4608" width="32" height="32" rx="4" fill="url(#paint1_linear_3_122)"/>
<rect x="455.777" y="40.4608" width="32" height="32" rx="4" fill="url(#paint2_linear_3_122)"/>
<rect x="68" y="40.4608" width="32" height="32" rx="4" fill="url(#paint3_linear_3_122)"/>
<rect x="311" y="85.4608" width="32" height="32" rx="4" fill="url(#paint4_linear_3_122)"/>
<rect x="112" y="40.4608" width="32" height="32" rx="4" fill="url(#paint5_linear_3_122)"/>
<rect x="311" y="139.461" width="32" height="32" rx="4" fill="url(#paint6_linear_3_122)"/>
<rect x="455.777" y="98.4608" width="32" height="32" rx="4" fill="url(#paint7_linear_3_122)"/>
<rect x="156" y="40.4608" width="32" height="32" rx="4" fill="url(#paint8_linear_3_122)"/>
<rect x="311" y="185.461" width="32" height="32" rx="4" fill="url(#paint9_linear_3_122)"/>
<rect x="455.777" y="144.461" width="32" height="32" rx="4" fill="url(#paint10_linear_3_122)"/>
<rect x="200" y="40.4608" width="32" height="32" rx="4" fill="url(#paint11_linear_3_122)"/>
<rect x="311" y="230.461" width="32" height="32" rx="4" fill="url(#paint12_linear_3_122)"/>
<rect x="455.777" y="189.461" width="32" height="32" rx="4" fill="url(#paint13_linear_3_122)"/>
<rect x="105.5" y="25.9608" width="1" height="61" rx="0.5" stroke="white" stroke-dasharray="1 1"/>
<rect x="359.5" y="127.961" width="1" height="61" rx="0.5" transform="rotate(90 359.5 127.961)" stroke="white" stroke-dasharray="1 1"/>
<rect x="504.277" y="84.9608" width="1" height="61" rx="0.5" transform="rotate(90 504.277 84.9608)" stroke="white" stroke-dasharray="1 1"/>
<rect x="10" y="25.4608" width="2" height="62" fill="#405472"/>
<rect x="290" y="25.4608" width="2" height="243" fill="#405472"/>
<rect x="435" y="25.4608" width="2" height="205" fill="#405472"/>
<rect width="2" height="243" transform="matrix(-1 0 0 1 368 25.4608)" fill="#405472"/>
<rect width="2" height="205" transform="matrix(-1 0 0 1 513 25.4608)" fill="#405472"/>
<rect width="2" height="62" transform="matrix(-1 0 0 1 251 25.4608)" fill="#405472"/>
<rect x="10" y="25.4608" width="7" height="2" fill="#405472"/>
<rect x="290" y="25.4608" width="7" height="2" fill="#405472"/>
<rect x="434.777" y="25.4608" width="7" height="2" fill="#405472"/>
<rect width="7" height="2" transform="matrix(-1 0 0 1 368 25.4608)" fill="#405472"/>
<rect width="7" height="2" transform="matrix(-1 0 0 1 512.777 25.4608)" fill="#405472"/>
<rect width="7" height="2" transform="matrix(-1 0 0 1 251 25.4608)" fill="#405472"/>
<rect x="10" y="85.4608" width="7" height="2" fill="#4A6082"/>
<rect x="290" y="266.461" width="7" height="2" fill="#4A6082"/>
<rect x="435" y="230.461" width="7" height="2" fill="#4A6082"/>
<rect width="7" height="2" transform="matrix(-1 0 0 1 368 266.461)" fill="#4A6082"/>
<rect width="7" height="2" transform="matrix(-1 0 0 1 513 230.461)" fill="#4A6082"/>
<rect width="7" height="2" transform="matrix(-1 0 0 1 251 85.4608)" fill="#4A6082"/>
<path d="M27.72 67.4608V61.8768H31.24V62.4608H28.392V64.3408H31V64.9248H28.392V67.4608H27.72ZM34.1969 67.5568C33.9089 67.5568 33.6475 67.5061 33.4129 67.4048C33.1835 67.3035 32.9862 67.1595 32.8209 66.9728C32.6609 66.7808 32.5382 66.5541 32.4529 66.2928C32.3675 66.0261 32.3249 65.7275 32.3249 65.3968C32.3249 65.0715 32.3675 64.7755 32.4529 64.5088C32.5382 64.2421 32.6609 64.0155 32.8209 63.8288C32.9862 63.6368 33.1835 63.4901 33.4129 63.3888C33.6475 63.2875 33.9089 63.2368 34.1969 63.2368C34.4849 63.2368 34.7435 63.2875 34.9729 63.3888C35.2075 63.4901 35.4049 63.6368 35.5649 63.8288C35.7302 64.0155 35.8555 64.2421 35.9409 64.5088C36.0262 64.7755 36.0689 65.0715 36.0689 65.3968C36.0689 65.7275 36.0262 66.0261 35.9409 66.2928C35.8555 66.5541 35.7302 66.7808 35.5649 66.9728C35.4049 67.1595 35.2075 67.3035 34.9729 67.4048C34.7435 67.5061 34.4849 67.5568 34.1969 67.5568ZM34.1969 67.0048C34.5542 67.0048 34.8422 66.8981 35.0609 66.6848C35.2795 66.4715 35.3889 66.1408 35.3889 65.6928V65.1008C35.3889 64.6528 35.2795 64.3221 35.0609 64.1088C34.8422 63.8955 34.5542 63.7888 34.1969 63.7888C33.8395 63.7888 33.5515 63.8955 33.3329 64.1088C33.1142 64.3221 33.0049 64.6528 33.0049 65.1008V65.6928C33.0049 66.1408 33.1142 66.4715 33.3329 66.6848C33.5515 66.8981 33.8395 67.0048 34.1969 67.0048ZM37.2098 66.9168H38.4178V63.8768H37.2098V63.3328H39.0578V64.3728H39.0978C39.1831 64.0475 39.3431 63.7941 39.5778 63.6128C39.8178 63.4261 40.1218 63.3328 40.4898 63.3328H41.0658V63.9728H40.2898C39.9218 63.9728 39.6231 64.0795 39.3938 64.2928C39.1698 64.5061 39.0578 64.7861 39.0578 65.1328V66.9168H40.6578V67.4608H37.2098V66.9168ZM41.8226 67.4608V63.3328H42.4146V63.8128H42.4466C42.5106 63.6528 42.6013 63.5168 42.7186 63.4048C42.836 63.2928 43.0093 63.2368 43.2386 63.2368C43.4786 63.2368 43.6573 63.2981 43.7746 63.4208C43.892 63.5381 43.964 63.6928 43.9906 63.8848H44.0146C44.0893 63.6981 44.196 63.5435 44.3346 63.4208C44.4733 63.2981 44.6653 63.2368 44.9106 63.2368C45.2466 63.2368 45.4706 63.3541 45.5826 63.5888C45.7 63.8235 45.7586 64.1595 45.7586 64.5968V67.4608H45.1666V64.7008C45.1666 64.3488 45.1293 64.1061 45.0546 63.9728C44.9853 63.8341 44.8546 63.7648 44.6626 63.7648C44.492 63.7648 44.3533 63.8208 44.2466 63.9328C44.14 64.0395 44.0866 64.2048 44.0866 64.4288V67.4608H43.4946V64.7008C43.4946 64.3488 43.4573 64.1061 43.3826 63.9728C43.3133 63.8341 43.1853 63.7648 42.9986 63.7648C42.828 63.7648 42.6866 63.8208 42.5746 63.9328C42.468 64.0395 42.4146 64.2048 42.4146 64.4288V67.4608H41.8226Z" fill="#EFEFEF"/>
<path d="M314.72 67.4608V61.8768H318.24V62.4608H315.392V64.3408H318V64.9248H315.392V67.4608H314.72ZM321.197 67.5568C320.909 67.5568 320.648 67.5061 320.413 67.4048C320.184 67.3035 319.986 67.1595 319.821 66.9728C319.661 66.7808 319.538 66.5541 319.453 66.2928C319.368 66.0261 319.325 65.7275 319.325 65.3968C319.325 65.0715 319.368 64.7755 319.453 64.5088C319.538 64.2421 319.661 64.0155 319.821 63.8288C319.986 63.6368 320.184 63.4901 320.413 63.3888C320.648 63.2875 320.909 63.2368 321.197 63.2368C321.485 63.2368 321.744 63.2875 321.973 63.3888C322.208 63.4901 322.405 63.6368 322.565 63.8288C322.73 64.0155 322.856 64.2421 322.941 64.5088C323.026 64.7755 323.069 65.0715 323.069 65.3968C323.069 65.7275 323.026 66.0261 322.941 66.2928C322.856 66.5541 322.73 66.7808 322.565 66.9728C322.405 67.1595 322.208 67.3035 321.973 67.4048C321.744 67.5061 321.485 67.5568 321.197 67.5568ZM321.197 67.0048C321.554 67.0048 321.842 66.8981 322.061 66.6848C322.28 66.4715 322.389 66.1408 322.389 65.6928V65.1008C322.389 64.6528 322.28 64.3221 322.061 64.1088C321.842 63.8955 321.554 63.7888 321.197 63.7888C320.84 63.7888 320.552 63.8955 320.333 64.1088C320.114 64.3221 320.005 64.6528 320.005 65.1008V65.6928C320.005 66.1408 320.114 66.4715 320.333 66.6848C320.552 66.8981 320.84 67.0048 321.197 67.0048ZM324.21 66.9168H325.418V63.8768H324.21V63.3328H326.058V64.3728H326.098C326.183 64.0475 326.343 63.7941 326.578 63.6128C326.818 63.4261 327.122 63.3328 327.49 63.3328H328.066V63.9728H327.29C326.922 63.9728 326.623 64.0795 326.394 64.2928C326.17 64.5061 326.058 64.7861 326.058 65.1328V66.9168H327.658V67.4608H324.21V66.9168ZM328.823 67.4608V63.3328H329.415V63.8128H329.447C329.511 63.6528 329.601 63.5168 329.719 63.4048C329.836 63.2928 330.009 63.2368 330.239 63.2368C330.479 63.2368 330.657 63.2981 330.775 63.4208C330.892 63.5381 330.964 63.6928 330.991 63.8848H331.015C331.089 63.6981 331.196 63.5435 331.335 63.4208C331.473 63.2981 331.665 63.2368 331.911 63.2368C332.247 63.2368 332.471 63.3541 332.583 63.5888C332.7 63.8235 332.759 64.1595 332.759 64.5968V67.4608H332.167V64.7008C332.167 64.3488 332.129 64.1061 332.055 63.9728C331.985 63.8341 331.855 63.7648 331.663 63.7648C331.492 63.7648 331.353 63.8208 331.247 63.9328C331.14 64.0395 331.087 64.2048 331.087 64.4288V67.4608H330.495V64.7008C330.495 64.3488 330.457 64.1061 330.383 63.9728C330.313 63.8341 330.185 63.7648 329.999 63.7648C329.828 63.7648 329.687 63.8208 329.575 63.9328C329.468 64.0395 329.415 64.2048 329.415 64.4288V67.4608H328.823Z" fill="#EFEFEF"/>
<path d="M459.497 67.4608V61.8768H463.017V62.4608H460.169V64.3408H462.777V64.9248H460.169V67.4608H459.497ZM465.974 67.5568C465.686 67.5568 465.425 67.5061 465.19 67.4048C464.961 67.3035 464.763 67.1595 464.598 66.9728C464.438 66.7808 464.315 66.5541 464.23 66.2928C464.145 66.0261 464.102 65.7275 464.102 65.3968C464.102 65.0715 464.145 64.7755 464.23 64.5088C464.315 64.2421 464.438 64.0155 464.598 63.8288C464.763 63.6368 464.961 63.4901 465.19 63.3888C465.425 63.2875 465.686 63.2368 465.974 63.2368C466.262 63.2368 466.521 63.2875 466.75 63.3888C466.985 63.4901 467.182 63.6368 467.342 63.8288C467.507 64.0155 467.633 64.2421 467.718 64.5088C467.803 64.7755 467.846 65.0715 467.846 65.3968C467.846 65.7275 467.803 66.0261 467.718 66.2928C467.633 66.5541 467.507 66.7808 467.342 66.9728C467.182 67.1595 466.985 67.3035 466.75 67.4048C466.521 67.5061 466.262 67.5568 465.974 67.5568ZM465.974 67.0048C466.331 67.0048 466.619 66.8981 466.838 66.6848C467.057 66.4715 467.166 66.1408 467.166 65.6928V65.1008C467.166 64.6528 467.057 64.3221 466.838 64.1088C466.619 63.8955 466.331 63.7888 465.974 63.7888C465.617 63.7888 465.329 63.8955 465.11 64.1088C464.891 64.3221 464.782 64.6528 464.782 65.1008V65.6928C464.782 66.1408 464.891 66.4715 465.11 66.6848C465.329 66.8981 465.617 67.0048 465.974 67.0048ZM468.987 66.9168H470.195V63.8768H468.987V63.3328H470.835V64.3728H470.875C470.96 64.0475 471.12 63.7941 471.355 63.6128C471.595 63.4261 471.899 63.3328 472.267 63.3328H472.843V63.9728H472.067C471.699 63.9728 471.4 64.0795 471.171 64.2928C470.947 64.5061 470.835 64.7861 470.835 65.1328V66.9168H472.435V67.4608H468.987V66.9168ZM473.6 67.4608V63.3328H474.192V63.8128H474.224C474.288 63.6528 474.378 63.5168 474.496 63.4048C474.613 63.2928 474.786 63.2368 475.016 63.2368C475.256 63.2368 475.434 63.2981 475.552 63.4208C475.669 63.5381 475.741 63.6928 475.768 63.8848H475.792C475.866 63.6981 475.973 63.5435 476.112 63.4208C476.25 63.2981 476.442 63.2368 476.688 63.2368C477.024 63.2368 477.248 63.3541 477.36 63.5888C477.477 63.8235 477.536 64.1595 477.536 64.5968V67.4608H476.944V64.7008C476.944 64.3488 476.906 64.1061 476.832 63.9728C476.762 63.8341 476.632 63.7648 476.44 63.7648C476.269 63.7648 476.13 63.8208 476.024 63.9328C475.917 64.0395 475.864 64.2048 475.864 64.4288V67.4608H475.272V64.7008C475.272 64.3488 475.234 64.1061 475.16 63.9728C475.09 63.8341 474.962 63.7648 474.776 63.7648C474.605 63.7648 474.464 63.8208 474.352 63.9328C474.245 64.0395 474.192 64.2048 474.192 64.4288V67.4608H473.6Z" fill="#EFEFEF"/>
<path d="M71.72 67.4608V61.8768H75.24V62.4608H72.392V64.3408H75V64.9248H72.392V67.4608H71.72ZM78.1969 67.5568C77.9089 67.5568 77.6475 67.5061 77.4129 67.4048C77.1835 67.3035 76.9862 67.1595 76.8209 66.9728C76.6609 66.7808 76.5382 66.5541 76.4529 66.2928C76.3675 66.0261 76.3249 65.7275 76.3249 65.3968C76.3249 65.0715 76.3675 64.7755 76.4529 64.5088C76.5382 64.2421 76.6609 64.0155 76.8209 63.8288C76.9862 63.6368 77.1835 63.4901 77.4129 63.3888C77.6475 63.2875 77.9089 63.2368 78.1969 63.2368C78.4849 63.2368 78.7435 63.2875 78.9729 63.3888C79.2075 63.4901 79.4049 63.6368 79.5649 63.8288C79.7302 64.0155 79.8555 64.2421 79.9409 64.5088C80.0262 64.7755 80.0689 65.0715 80.0689 65.3968C80.0689 65.7275 80.0262 66.0261 79.9409 66.2928C79.8555 66.5541 79.7302 66.7808 79.5649 66.9728C79.4049 67.1595 79.2075 67.3035 78.9729 67.4048C78.7435 67.5061 78.4849 67.5568 78.1969 67.5568ZM78.1969 67.0048C78.5542 67.0048 78.8422 66.8981 79.0609 66.6848C79.2795 66.4715 79.3889 66.1408 79.3889 65.6928V65.1008C79.3889 64.6528 79.2795 64.3221 79.0609 64.1088C78.8422 63.8955 78.5542 63.7888 78.1969 63.7888C77.8395 63.7888 77.5515 63.8955 77.3329 64.1088C77.1142 64.3221 77.0049 64.6528 77.0049 65.1008V65.6928C77.0049 66.1408 77.1142 66.4715 77.3329 66.6848C77.5515 66.8981 77.8395 67.0048 78.1969 67.0048ZM81.2098 66.9168H82.4178V63.8768H81.2098V63.3328H83.0578V64.3728H83.0978C83.1831 64.0475 83.3431 63.7941 83.5778 63.6128C83.8178 63.4261 84.1218 63.3328 84.4898 63.3328H85.0658V63.9728H84.2898C83.9218 63.9728 83.6231 64.0795 83.3938 64.2928C83.1698 64.5061 83.0578 64.7861 83.0578 65.1328V66.9168H84.6578V67.4608H81.2098V66.9168ZM85.8226 67.4608V63.3328H86.4146V63.8128H86.4466C86.5106 63.6528 86.6013 63.5168 86.7186 63.4048C86.836 63.2928 87.0093 63.2368 87.2386 63.2368C87.4786 63.2368 87.6573 63.2981 87.7746 63.4208C87.892 63.5381 87.964 63.6928 87.9906 63.8848H88.0146C88.0893 63.6981 88.196 63.5435 88.3346 63.4208C88.4733 63.2981 88.6653 63.2368 88.9106 63.2368C89.2466 63.2368 89.4706 63.3541 89.5826 63.5888C89.7 63.8235 89.7586 64.1595 89.7586 64.5968V67.4608H89.1666V64.7008C89.1666 64.3488 89.1293 64.1061 89.0546 63.9728C88.9853 63.8341 88.8546 63.7648 88.6626 63.7648C88.492 63.7648 88.3533 63.8208 88.2466 63.9328C88.14 64.0395 88.0866 64.2048 88.0866 64.4288V67.4608H87.4946V64.7008C87.4946 64.3488 87.4573 64.1061 87.3826 63.9728C87.3133 63.8341 87.1853 63.7648 86.9986 63.7648C86.828 63.7648 86.6866 63.8208 86.5746 63.9328C86.468 64.0395 86.4146 64.2048 86.4146 64.4288V67.4608H85.8226Z" fill="#EFEFEF"/>
<path d="M314.72 112.461V106.877H318.24V107.461H315.392V109.341H318V109.925H315.392V112.461H314.72ZM321.197 112.557C320.909 112.557 320.648 112.506 320.413 112.405C320.184 112.303 319.986 112.159 319.821 111.973C319.661 111.781 319.538 111.554 319.453 111.293C319.368 111.026 319.325 110.727 319.325 110.397C319.325 110.071 319.368 109.775 319.453 109.509C319.538 109.242 319.661 109.015 319.821 108.829C319.986 108.637 320.184 108.49 320.413 108.389C320.648 108.287 320.909 108.237 321.197 108.237C321.485 108.237 321.744 108.287 321.973 108.389C322.208 108.49 322.405 108.637 322.565 108.829C322.73 109.015 322.856 109.242 322.941 109.509C323.026 109.775 323.069 110.071 323.069 110.397C323.069 110.727 323.026 111.026 322.941 111.293C322.856 111.554 322.73 111.781 322.565 111.973C322.405 112.159 322.208 112.303 321.973 112.405C321.744 112.506 321.485 112.557 321.197 112.557ZM321.197 112.005C321.554 112.005 321.842 111.898 322.061 111.685C322.28 111.471 322.389 111.141 322.389 110.693V110.101C322.389 109.653 322.28 109.322 322.061 109.109C321.842 108.895 321.554 108.789 321.197 108.789C320.84 108.789 320.552 108.895 320.333 109.109C320.114 109.322 320.005 109.653 320.005 110.101V110.693C320.005 111.141 320.114 111.471 320.333 111.685C320.552 111.898 320.84 112.005 321.197 112.005ZM324.21 111.917H325.418V108.877H324.21V108.333H326.058V109.373H326.098C326.183 109.047 326.343 108.794 326.578 108.613C326.818 108.426 327.122 108.333 327.49 108.333H328.066V108.973H327.29C326.922 108.973 326.623 109.079 326.394 109.293C326.17 109.506 326.058 109.786 326.058 110.133V111.917H327.658V112.461H324.21V111.917ZM328.823 112.461V108.333H329.415V108.813H329.447C329.511 108.653 329.601 108.517 329.719 108.405C329.836 108.293 330.009 108.237 330.239 108.237C330.479 108.237 330.657 108.298 330.775 108.421C330.892 108.538 330.964 108.693 330.991 108.885H331.015C331.089 108.698 331.196 108.543 331.335 108.421C331.473 108.298 331.665 108.237 331.911 108.237C332.247 108.237 332.471 108.354 332.583 108.589C332.7 108.823 332.759 109.159 332.759 109.597V112.461H332.167V109.701C332.167 109.349 332.129 109.106 332.055 108.973C331.985 108.834 331.855 108.765 331.663 108.765C331.492 108.765 331.353 108.821 331.247 108.933C331.14 109.039 331.087 109.205 331.087 109.429V112.461H330.495V109.701C330.495 109.349 330.457 109.106 330.383 108.973C330.313 108.834 330.185 108.765 329.999 108.765C329.828 108.765 329.687 108.821 329.575 108.933C329.468 109.039 329.415 109.205 329.415 109.429V112.461H328.823Z" fill="#EFEFEF"/>
<path d="M115.72 67.4608V61.8768H119.24V62.4608H116.392V64.3408H119V64.9248H116.392V67.4608H115.72ZM122.197 67.5568C121.909 67.5568 121.648 67.5061 121.413 67.4048C121.184 67.3035 120.986 67.1595 120.821 66.9728C120.661 66.7808 120.538 66.5541 120.453 66.2928C120.368 66.0261 120.325 65.7275 120.325 65.3968C120.325 65.0715 120.368 64.7755 120.453 64.5088C120.538 64.2421 120.661 64.0155 120.821 63.8288C120.986 63.6368 121.184 63.4901 121.413 63.3888C121.648 63.2875 121.909 63.2368 122.197 63.2368C122.485 63.2368 122.744 63.2875 122.973 63.3888C123.208 63.4901 123.405 63.6368 123.565 63.8288C123.73 64.0155 123.856 64.2421 123.941 64.5088C124.026 64.7755 124.069 65.0715 124.069 65.3968C124.069 65.7275 124.026 66.0261 123.941 66.2928C123.856 66.5541 123.73 66.7808 123.565 66.9728C123.405 67.1595 123.208 67.3035 122.973 67.4048C122.744 67.5061 122.485 67.5568 122.197 67.5568ZM122.197 67.0048C122.554 67.0048 122.842 66.8981 123.061 66.6848C123.28 66.4715 123.389 66.1408 123.389 65.6928V65.1008C123.389 64.6528 123.28 64.3221 123.061 64.1088C122.842 63.8955 122.554 63.7888 122.197 63.7888C121.84 63.7888 121.552 63.8955 121.333 64.1088C121.114 64.3221 121.005 64.6528 121.005 65.1008V65.6928C121.005 66.1408 121.114 66.4715 121.333 66.6848C121.552 66.8981 121.84 67.0048 122.197 67.0048ZM125.21 66.9168H126.418V63.8768H125.21V63.3328H127.058V64.3728H127.098C127.183 64.0475 127.343 63.7941 127.578 63.6128C127.818 63.4261 128.122 63.3328 128.49 63.3328H129.066V63.9728H128.29C127.922 63.9728 127.623 64.0795 127.394 64.2928C127.17 64.5061 127.058 64.7861 127.058 65.1328V66.9168H128.658V67.4608H125.21V66.9168ZM129.823 67.4608V63.3328H130.415V63.8128H130.447C130.511 63.6528 130.601 63.5168 130.719 63.4048C130.836 63.2928 131.009 63.2368 131.239 63.2368C131.479 63.2368 131.657 63.2981 131.775 63.4208C131.892 63.5381 131.964 63.6928 131.991 63.8848H132.015C132.089 63.6981 132.196 63.5435 132.335 63.4208C132.473 63.2981 132.665 63.2368 132.911 63.2368C133.247 63.2368 133.471 63.3541 133.583 63.5888C133.7 63.8235 133.759 64.1595 133.759 64.5968V67.4608H133.167V64.7008C133.167 64.3488 133.129 64.1061 133.055 63.9728C132.985 63.8341 132.855 63.7648 132.663 63.7648C132.492 63.7648 132.353 63.8208 132.247 63.9328C132.14 64.0395 132.087 64.2048 132.087 64.4288V67.4608H131.495V64.7008C131.495 64.3488 131.457 64.1061 131.383 63.9728C131.313 63.8341 131.185 63.7648 130.999 63.7648C130.828 63.7648 130.687 63.8208 130.575 63.9328C130.468 64.0395 130.415 64.2048 130.415 64.4288V67.4608H129.823Z" fill="#EFEFEF"/>
<path d="M314.72 166.461V160.877H318.24V161.461H315.392V163.341H318V163.925H315.392V166.461H314.72ZM321.197 166.557C320.909 166.557 320.648 166.506 320.413 166.405C320.184 166.303 319.986 166.159 319.821 165.973C319.661 165.781 319.538 165.554 319.453 165.293C319.368 165.026 319.325 164.727 319.325 164.397C319.325 164.071 319.368 163.775 319.453 163.509C319.538 163.242 319.661 163.015 319.821 162.829C319.986 162.637 320.184 162.49 320.413 162.389C320.648 162.287 320.909 162.237 321.197 162.237C321.485 162.237 321.744 162.287 321.973 162.389C322.208 162.49 322.405 162.637 322.565 162.829C322.73 163.015 322.856 163.242 322.941 163.509C323.026 163.775 323.069 164.071 323.069 164.397C323.069 164.727 323.026 165.026 322.941 165.293C322.856 165.554 322.73 165.781 322.565 165.973C322.405 166.159 322.208 166.303 321.973 166.405C321.744 166.506 321.485 166.557 321.197 166.557ZM321.197 166.005C321.554 166.005 321.842 165.898 322.061 165.685C322.28 165.471 322.389 165.141 322.389 164.693V164.101C322.389 163.653 322.28 163.322 322.061 163.109C321.842 162.895 321.554 162.789 321.197 162.789C320.84 162.789 320.552 162.895 320.333 163.109C320.114 163.322 320.005 163.653 320.005 164.101V164.693C320.005 165.141 320.114 165.471 320.333 165.685C320.552 165.898 320.84 166.005 321.197 166.005ZM324.21 165.917H325.418V162.877H324.21V162.333H326.058V163.373H326.098C326.183 163.047 326.343 162.794 326.578 162.613C326.818 162.426 327.122 162.333 327.49 162.333H328.066V162.973H327.29C326.922 162.973 326.623 163.079 326.394 163.293C326.17 163.506 326.058 163.786 326.058 164.133V165.917H327.658V166.461H324.21V165.917ZM328.823 166.461V162.333H329.415V162.813H329.447C329.511 162.653 329.601 162.517 329.719 162.405C329.836 162.293 330.009 162.237 330.239 162.237C330.479 162.237 330.657 162.298 330.775 162.421C330.892 162.538 330.964 162.693 330.991 162.885H331.015C331.089 162.698 331.196 162.543 331.335 162.421C331.473 162.298 331.665 162.237 331.911 162.237C332.247 162.237 332.471 162.354 332.583 162.589C332.7 162.823 332.759 163.159 332.759 163.597V166.461H332.167V163.701C332.167 163.349 332.129 163.106 332.055 162.973C331.985 162.834 331.855 162.765 331.663 162.765C331.492 162.765 331.353 162.821 331.247 162.933C331.14 163.039 331.087 163.205 331.087 163.429V166.461H330.495V163.701C330.495 163.349 330.457 163.106 330.383 162.973C330.313 162.834 330.185 162.765 329.999 162.765C329.828 162.765 329.687 162.821 329.575 162.933C329.468 163.039 329.415 163.205 329.415 163.429V166.461H328.823Z" fill="#EFEFEF"/>
<path d="M459.497 125.461V119.877H463.017V120.461H460.169V122.341H462.777V122.925H460.169V125.461H459.497ZM465.974 125.557C465.686 125.557 465.425 125.506 465.19 125.405C464.961 125.303 464.763 125.159 464.598 124.973C464.438 124.781 464.315 124.554 464.23 124.293C464.145 124.026 464.102 123.727 464.102 123.397C464.102 123.071 464.145 122.775 464.23 122.509C464.315 122.242 464.438 122.015 464.598 121.829C464.763 121.637 464.961 121.49 465.19 121.389C465.425 121.287 465.686 121.237 465.974 121.237C466.262 121.237 466.521 121.287 466.75 121.389C466.985 121.49 467.182 121.637 467.342 121.829C467.507 122.015 467.633 122.242 467.718 122.509C467.803 122.775 467.846 123.071 467.846 123.397C467.846 123.727 467.803 124.026 467.718 124.293C467.633 124.554 467.507 124.781 467.342 124.973C467.182 125.159 466.985 125.303 466.75 125.405C466.521 125.506 466.262 125.557 465.974 125.557ZM465.974 125.005C466.331 125.005 466.619 124.898 466.838 124.685C467.057 124.471 467.166 124.141 467.166 123.693V123.101C467.166 122.653 467.057 122.322 466.838 122.109C466.619 121.895 466.331 121.789 465.974 121.789C465.617 121.789 465.329 121.895 465.11 122.109C464.891 122.322 464.782 122.653 464.782 123.101V123.693C464.782 124.141 464.891 124.471 465.11 124.685C465.329 124.898 465.617 125.005 465.974 125.005ZM468.987 124.917H470.195V121.877H468.987V121.333H470.835V122.373H470.875C470.96 122.047 471.12 121.794 471.355 121.613C471.595 121.426 471.899 121.333 472.267 121.333H472.843V121.973H472.067C471.699 121.973 471.4 122.079 471.171 122.293C470.947 122.506 470.835 122.786 470.835 123.133V124.917H472.435V125.461H468.987V124.917ZM473.6 125.461V121.333H474.192V121.813H474.224C474.288 121.653 474.378 121.517 474.496 121.405C474.613 121.293 474.786 121.237 475.016 121.237C475.256 121.237 475.434 121.298 475.552 121.421C475.669 121.538 475.741 121.693 475.768 121.885H475.792C475.866 121.698 475.973 121.543 476.112 121.421C476.25 121.298 476.442 121.237 476.688 121.237C477.024 121.237 477.248 121.354 477.36 121.589C477.477 121.823 477.536 122.159 477.536 122.597V125.461H476.944V122.701C476.944 122.349 476.906 122.106 476.832 121.973C476.762 121.834 476.632 121.765 476.44 121.765C476.269 121.765 476.13 121.821 476.024 121.933C475.917 122.039 475.864 122.205 475.864 122.429V125.461H475.272V122.701C475.272 122.349 475.234 122.106 475.16 121.973C475.09 121.834 474.962 121.765 474.776 121.765C474.605 121.765 474.464 121.821 474.352 121.933C474.245 122.039 474.192 122.205 474.192 122.429V125.461H473.6Z" fill="#EFEFEF"/>
<path d="M159.72 67.4608V61.8768H163.24V62.4608H160.392V64.3408H163V64.9248H160.392V67.4608H159.72ZM166.197 67.5568C165.909 67.5568 165.648 67.5061 165.413 67.4048C165.184 67.3035 164.986 67.1595 164.821 66.9728C164.661 66.7808 164.538 66.5541 164.453 66.2928C164.368 66.0261 164.325 65.7275 164.325 65.3968C164.325 65.0715 164.368 64.7755 164.453 64.5088C164.538 64.2421 164.661 64.0155 164.821 63.8288C164.986 63.6368 165.184 63.4901 165.413 63.3888C165.648 63.2875 165.909 63.2368 166.197 63.2368C166.485 63.2368 166.744 63.2875 166.973 63.3888C167.208 63.4901 167.405 63.6368 167.565 63.8288C167.73 64.0155 167.856 64.2421 167.941 64.5088C168.026 64.7755 168.069 65.0715 168.069 65.3968C168.069 65.7275 168.026 66.0261 167.941 66.2928C167.856 66.5541 167.73 66.7808 167.565 66.9728C167.405 67.1595 167.208 67.3035 166.973 67.4048C166.744 67.5061 166.485 67.5568 166.197 67.5568ZM166.197 67.0048C166.554 67.0048 166.842 66.8981 167.061 66.6848C167.28 66.4715 167.389 66.1408 167.389 65.6928V65.1008C167.389 64.6528 167.28 64.3221 167.061 64.1088C166.842 63.8955 166.554 63.7888 166.197 63.7888C165.84 63.7888 165.552 63.8955 165.333 64.1088C165.114 64.3221 165.005 64.6528 165.005 65.1008V65.6928C165.005 66.1408 165.114 66.4715 165.333 66.6848C165.552 66.8981 165.84 67.0048 166.197 67.0048ZM169.21 66.9168H170.418V63.8768H169.21V63.3328H171.058V64.3728H171.098C171.183 64.0475 171.343 63.7941 171.578 63.6128C171.818 63.4261 172.122 63.3328 172.49 63.3328H173.066V63.9728H172.29C171.922 63.9728 171.623 64.0795 171.394 64.2928C171.17 64.5061 171.058 64.7861 171.058 65.1328V66.9168H172.658V67.4608H169.21V66.9168ZM173.823 67.4608V63.3328H174.415V63.8128H174.447C174.511 63.6528 174.601 63.5168 174.719 63.4048C174.836 63.2928 175.009 63.2368 175.239 63.2368C175.479 63.2368 175.657 63.2981 175.775 63.4208C175.892 63.5381 175.964 63.6928 175.991 63.8848H176.015C176.089 63.6981 176.196 63.5435 176.335 63.4208C176.473 63.2981 176.665 63.2368 176.911 63.2368C177.247 63.2368 177.471 63.3541 177.583 63.5888C177.7 63.8235 177.759 64.1595 177.759 64.5968V67.4608H177.167V64.7008C177.167 64.3488 177.129 64.1061 177.055 63.9728C176.985 63.8341 176.855 63.7648 176.663 63.7648C176.492 63.7648 176.353 63.8208 176.247 63.9328C176.14 64.0395 176.087 64.2048 176.087 64.4288V67.4608H175.495V64.7008C175.495 64.3488 175.457 64.1061 175.383 63.9728C175.313 63.8341 175.185 63.7648 174.999 63.7648C174.828 63.7648 174.687 63.8208 174.575 63.9328C174.468 64.0395 174.415 64.2048 174.415 64.4288V67.4608H173.823Z" fill="#EFEFEF"/>
<path d="M314.72 212.461V206.877H318.24V207.461H315.392V209.341H318V209.925H315.392V212.461H314.72ZM321.197 212.557C320.909 212.557 320.648 212.506 320.413 212.405C320.184 212.303 319.986 212.159 319.821 211.973C319.661 211.781 319.538 211.554 319.453 211.293C319.368 211.026 319.325 210.727 319.325 210.397C319.325 210.071 319.368 209.775 319.453 209.509C319.538 209.242 319.661 209.015 319.821 208.829C319.986 208.637 320.184 208.49 320.413 208.389C320.648 208.287 320.909 208.237 321.197 208.237C321.485 208.237 321.744 208.287 321.973 208.389C322.208 208.49 322.405 208.637 322.565 208.829C322.73 209.015 322.856 209.242 322.941 209.509C323.026 209.775 323.069 210.071 323.069 210.397C323.069 210.727 323.026 211.026 322.941 211.293C322.856 211.554 322.73 211.781 322.565 211.973C322.405 212.159 322.208 212.303 321.973 212.405C321.744 212.506 321.485 212.557 321.197 212.557ZM321.197 212.005C321.554 212.005 321.842 211.898 322.061 211.685C322.28 211.471 322.389 211.141 322.389 210.693V210.101C322.389 209.653 322.28 209.322 322.061 209.109C321.842 208.895 321.554 208.789 321.197 208.789C320.84 208.789 320.552 208.895 320.333 209.109C320.114 209.322 320.005 209.653 320.005 210.101V210.693C320.005 211.141 320.114 211.471 320.333 211.685C320.552 211.898 320.84 212.005 321.197 212.005ZM324.21 211.917H325.418V208.877H324.21V208.333H326.058V209.373H326.098C326.183 209.047 326.343 208.794 326.578 208.613C326.818 208.426 327.122 208.333 327.49 208.333H328.066V208.973H327.29C326.922 208.973 326.623 209.079 326.394 209.293C326.17 209.506 326.058 209.786 326.058 210.133V211.917H327.658V212.461H324.21V211.917ZM328.823 212.461V208.333H329.415V208.813H329.447C329.511 208.653 329.601 208.517 329.719 208.405C329.836 208.293 330.009 208.237 330.239 208.237C330.479 208.237 330.657 208.298 330.775 208.421C330.892 208.538 330.964 208.693 330.991 208.885H331.015C331.089 208.698 331.196 208.543 331.335 208.421C331.473 208.298 331.665 208.237 331.911 208.237C332.247 208.237 332.471 208.354 332.583 208.589C332.7 208.823 332.759 209.159 332.759 209.597V212.461H332.167V209.701C332.167 209.349 332.129 209.106 332.055 208.973C331.985 208.834 331.855 208.765 331.663 208.765C331.492 208.765 331.353 208.821 331.247 208.933C331.14 209.039 331.087 209.205 331.087 209.429V212.461H330.495V209.701C330.495 209.349 330.457 209.106 330.383 208.973C330.313 208.834 330.185 208.765 329.999 208.765C329.828 208.765 329.687 208.821 329.575 208.933C329.468 209.039 329.415 209.205 329.415 209.429V212.461H328.823Z" fill="#EFEFEF"/>
<path d="M459.497 171.461V165.877H463.017V166.461H460.169V168.341H462.777V168.925H460.169V171.461H459.497ZM465.974 171.557C465.686 171.557 465.425 171.506 465.19 171.405C464.961 171.303 464.763 171.159 464.598 170.973C464.438 170.781 464.315 170.554 464.23 170.293C464.145 170.026 464.102 169.727 464.102 169.397C464.102 169.071 464.145 168.775 464.23 168.509C464.315 168.242 464.438 168.015 464.598 167.829C464.763 167.637 464.961 167.49 465.19 167.389C465.425 167.287 465.686 167.237 465.974 167.237C466.262 167.237 466.521 167.287 466.75 167.389C466.985 167.49 467.182 167.637 467.342 167.829C467.507 168.015 467.633 168.242 467.718 168.509C467.803 168.775 467.846 169.071 467.846 169.397C467.846 169.727 467.803 170.026 467.718 170.293C467.633 170.554 467.507 170.781 467.342 170.973C467.182 171.159 466.985 171.303 466.75 171.405C466.521 171.506 466.262 171.557 465.974 171.557ZM465.974 171.005C466.331 171.005 466.619 170.898 466.838 170.685C467.057 170.471 467.166 170.141 467.166 169.693V169.101C467.166 168.653 467.057 168.322 466.838 168.109C466.619 167.895 466.331 167.789 465.974 167.789C465.617 167.789 465.329 167.895 465.11 168.109C464.891 168.322 464.782 168.653 464.782 169.101V169.693C464.782 170.141 464.891 170.471 465.11 170.685C465.329 170.898 465.617 171.005 465.974 171.005ZM468.987 170.917H470.195V167.877H468.987V167.333H470.835V168.373H470.875C470.96 168.047 471.12 167.794 471.355 167.613C471.595 167.426 471.899 167.333 472.267 167.333H472.843V167.973H472.067C471.699 167.973 471.4 168.079 471.171 168.293C470.947 168.506 470.835 168.786 470.835 169.133V170.917H472.435V171.461H468.987V170.917ZM473.6 171.461V167.333H474.192V167.813H474.224C474.288 167.653 474.378 167.517 474.496 167.405C474.613 167.293 474.786 167.237 475.016 167.237C475.256 167.237 475.434 167.298 475.552 167.421C475.669 167.538 475.741 167.693 475.768 167.885H475.792C475.866 167.698 475.973 167.543 476.112 167.421C476.25 167.298 476.442 167.237 476.688 167.237C477.024 167.237 477.248 167.354 477.36 167.589C477.477 167.823 477.536 168.159 477.536 168.597V171.461H476.944V168.701C476.944 168.349 476.906 168.106 476.832 167.973C476.762 167.834 476.632 167.765 476.44 167.765C476.269 167.765 476.13 167.821 476.024 167.933C475.917 168.039 475.864 168.205 475.864 168.429V171.461H475.272V168.701C475.272 168.349 475.234 168.106 475.16 167.973C475.09 167.834 474.962 167.765 474.776 167.765C474.605 167.765 474.464 167.821 474.352 167.933C474.245 168.039 474.192 168.205 474.192 168.429V171.461H473.6Z" fill="#EFEFEF"/>
<path d="M203.72 67.4608V61.8768H207.24V62.4608H204.392V64.3408H207V64.9248H204.392V67.4608H203.72ZM210.197 67.5568C209.909 67.5568 209.648 67.5061 209.413 67.4048C209.184 67.3035 208.986 67.1595 208.821 66.9728C208.661 66.7808 208.538 66.5541 208.453 66.2928C208.368 66.0261 208.325 65.7275 208.325 65.3968C208.325 65.0715 208.368 64.7755 208.453 64.5088C208.538 64.2421 208.661 64.0155 208.821 63.8288C208.986 63.6368 209.184 63.4901 209.413 63.3888C209.648 63.2875 209.909 63.2368 210.197 63.2368C210.485 63.2368 210.744 63.2875 210.973 63.3888C211.208 63.4901 211.405 63.6368 211.565 63.8288C211.73 64.0155 211.856 64.2421 211.941 64.5088C212.026 64.7755 212.069 65.0715 212.069 65.3968C212.069 65.7275 212.026 66.0261 211.941 66.2928C211.856 66.5541 211.73 66.7808 211.565 66.9728C211.405 67.1595 211.208 67.3035 210.973 67.4048C210.744 67.5061 210.485 67.5568 210.197 67.5568ZM210.197 67.0048C210.554 67.0048 210.842 66.8981 211.061 66.6848C211.28 66.4715 211.389 66.1408 211.389 65.6928V65.1008C211.389 64.6528 211.28 64.3221 211.061 64.1088C210.842 63.8955 210.554 63.7888 210.197 63.7888C209.84 63.7888 209.552 63.8955 209.333 64.1088C209.114 64.3221 209.005 64.6528 209.005 65.1008V65.6928C209.005 66.1408 209.114 66.4715 209.333 66.6848C209.552 66.8981 209.84 67.0048 210.197 67.0048ZM213.21 66.9168H214.418V63.8768H213.21V63.3328H215.058V64.3728H215.098C215.183 64.0475 215.343 63.7941 215.578 63.6128C215.818 63.4261 216.122 63.3328 216.49 63.3328H217.066V63.9728H216.29C215.922 63.9728 215.623 64.0795 215.394 64.2928C215.17 64.5061 215.058 64.7861 215.058 65.1328V66.9168H216.658V67.4608H213.21V66.9168ZM217.823 67.4608V63.3328H218.415V63.8128H218.447C218.511 63.6528 218.601 63.5168 218.719 63.4048C218.836 63.2928 219.009 63.2368 219.239 63.2368C219.479 63.2368 219.657 63.2981 219.775 63.4208C219.892 63.5381 219.964 63.6928 219.991 63.8848H220.015C220.089 63.6981 220.196 63.5435 220.335 63.4208C220.473 63.2981 220.665 63.2368 220.911 63.2368C221.247 63.2368 221.471 63.3541 221.583 63.5888C221.7 63.8235 221.759 64.1595 221.759 64.5968V67.4608H221.167V64.7008C221.167 64.3488 221.129 64.1061 221.055 63.9728C220.985 63.8341 220.855 63.7648 220.663 63.7648C220.492 63.7648 220.353 63.8208 220.247 63.9328C220.14 64.0395 220.087 64.2048 220.087 64.4288V67.4608H219.495V64.7008C219.495 64.3488 219.457 64.1061 219.383 63.9728C219.313 63.8341 219.185 63.7648 218.999 63.7648C218.828 63.7648 218.687 63.8208 218.575 63.9328C218.468 64.0395 218.415 64.2048 218.415 64.4288V67.4608H217.823Z" fill="#EFEFEF"/>
<path d="M314.72 257.461V251.877H318.24V252.461H315.392V254.341H318V254.925H315.392V257.461H314.72ZM321.197 257.557C320.909 257.557 320.648 257.506 320.413 257.405C320.184 257.303 319.986 257.159 319.821 256.973C319.661 256.781 319.538 256.554 319.453 256.293C319.368 256.026 319.325 255.727 319.325 255.397C319.325 255.071 319.368 254.775 319.453 254.509C319.538 254.242 319.661 254.015 319.821 253.829C319.986 253.637 320.184 253.49 320.413 253.389C320.648 253.287 320.909 253.237 321.197 253.237C321.485 253.237 321.744 253.287 321.973 253.389C322.208 253.49 322.405 253.637 322.565 253.829C322.73 254.015 322.856 254.242 322.941 254.509C323.026 254.775 323.069 255.071 323.069 255.397C323.069 255.727 323.026 256.026 322.941 256.293C322.856 256.554 322.73 256.781 322.565 256.973C322.405 257.159 322.208 257.303 321.973 257.405C321.744 257.506 321.485 257.557 321.197 257.557ZM321.197 257.005C321.554 257.005 321.842 256.898 322.061 256.685C322.28 256.471 322.389 256.141 322.389 255.693V255.101C322.389 254.653 322.28 254.322 322.061 254.109C321.842 253.895 321.554 253.789 321.197 253.789C320.84 253.789 320.552 253.895 320.333 254.109C320.114 254.322 320.005 254.653 320.005 255.101V255.693C320.005 256.141 320.114 256.471 320.333 256.685C320.552 256.898 320.84 257.005 321.197 257.005ZM324.21 256.917H325.418V253.877H324.21V253.333H326.058V254.373H326.098C326.183 254.047 326.343 253.794 326.578 253.613C326.818 253.426 327.122 253.333 327.49 253.333H328.066V253.973H327.29C326.922 253.973 326.623 254.079 326.394 254.293C326.17 254.506 326.058 254.786 326.058 255.133V256.917H327.658V257.461H324.21V256.917ZM328.823 257.461V253.333H329.415V253.813H329.447C329.511 253.653 329.601 253.517 329.719 253.405C329.836 253.293 330.009 253.237 330.239 253.237C330.479 253.237 330.657 253.298 330.775 253.421C330.892 253.538 330.964 253.693 330.991 253.885H331.015C331.089 253.698 331.196 253.543 331.335 253.421C331.473 253.298 331.665 253.237 331.911 253.237C332.247 253.237 332.471 253.354 332.583 253.589C332.7 253.823 332.759 254.159 332.759 254.597V257.461H332.167V254.701C332.167 254.349 332.129 254.106 332.055 253.973C331.985 253.834 331.855 253.765 331.663 253.765C331.492 253.765 331.353 253.821 331.247 253.933C331.14 254.039 331.087 254.205 331.087 254.429V257.461H330.495V254.701C330.495 254.349 330.457 254.106 330.383 253.973C330.313 253.834 330.185 253.765 329.999 253.765C329.828 253.765 329.687 253.821 329.575 253.933C329.468 254.039 329.415 254.205 329.415 254.429V257.461H328.823Z" fill="#EFEFEF"/>
<path d="M459.497 216.461V210.877H463.017V211.461H460.169V213.341H462.777V213.925H460.169V216.461H459.497ZM465.974 216.557C465.686 216.557 465.425 216.506 465.19 216.405C464.961 216.303 464.763 216.159 464.598 215.973C464.438 215.781 464.315 215.554 464.23 215.293C464.145 215.026 464.102 214.727 464.102 214.397C464.102 214.071 464.145 213.775 464.23 213.509C464.315 213.242 464.438 213.015 464.598 212.829C464.763 212.637 464.961 212.49 465.19 212.389C465.425 212.287 465.686 212.237 465.974 212.237C466.262 212.237 466.521 212.287 466.75 212.389C466.985 212.49 467.182 212.637 467.342 212.829C467.507 213.015 467.633 213.242 467.718 213.509C467.803 213.775 467.846 214.071 467.846 214.397C467.846 214.727 467.803 215.026 467.718 215.293C467.633 215.554 467.507 215.781 467.342 215.973C467.182 216.159 466.985 216.303 466.75 216.405C466.521 216.506 466.262 216.557 465.974 216.557ZM465.974 216.005C466.331 216.005 466.619 215.898 466.838 215.685C467.057 215.471 467.166 215.141 467.166 214.693V214.101C467.166 213.653 467.057 213.322 466.838 213.109C466.619 212.895 466.331 212.789 465.974 212.789C465.617 212.789 465.329 212.895 465.11 213.109C464.891 213.322 464.782 213.653 464.782 214.101V214.693C464.782 215.141 464.891 215.471 465.11 215.685C465.329 215.898 465.617 216.005 465.974 216.005ZM468.987 215.917H470.195V212.877H468.987V212.333H470.835V213.373H470.875C470.96 213.047 471.12 212.794 471.355 212.613C471.595 212.426 471.899 212.333 472.267 212.333H472.843V212.973H472.067C471.699 212.973 471.4 213.079 471.171 213.293C470.947 213.506 470.835 213.786 470.835 214.133V215.917H472.435V216.461H468.987V215.917ZM473.6 216.461V212.333H474.192V212.813H474.224C474.288 212.653 474.378 212.517 474.496 212.405C474.613 212.293 474.786 212.237 475.016 212.237C475.256 212.237 475.434 212.298 475.552 212.421C475.669 212.538 475.741 212.693 475.768 212.885H475.792C475.866 212.698 475.973 212.543 476.112 212.421C476.25 212.298 476.442 212.237 476.688 212.237C477.024 212.237 477.248 212.354 477.36 212.589C477.477 212.823 477.536 213.159 477.536 213.597V216.461H476.944V213.701C476.944 213.349 476.906 213.106 476.832 212.973C476.762 212.834 476.632 212.765 476.44 212.765C476.269 212.765 476.13 212.821 476.024 212.933C475.917 213.039 475.864 213.205 475.864 213.429V216.461H475.272V213.701C475.272 213.349 475.234 213.106 475.16 212.973C475.09 212.834 474.962 212.765 474.776 212.765C474.605 212.765 474.464 212.821 474.352 212.933C474.245 213.039 474.192 213.205 474.192 213.429V216.461H473.6Z" fill="#EFEFEF"/>
<path d="M48 51.5808C47.0667 51.5808 46.3767 51.2641 45.93 50.6308C45.49 49.9975 45.27 49.1108 45.27 47.9708C45.27 46.8308 45.49 45.9441 45.93 45.3108C46.3767 44.6775 47.0667 44.3608 48 44.3608C48.9333 44.3608 49.62 44.6775 50.06 45.3108C50.5067 45.9441 50.73 46.8308 50.73 47.9708C50.73 49.1108 50.5067 49.9975 50.06 50.6308C49.62 51.2641 48.9333 51.5808 48 51.5808ZM48 50.4008C48.4467 50.4008 48.7567 50.2441 48.93 49.9308C49.11 49.6175 49.2 49.1808 49.2 48.6208V47.3208C49.2 46.7608 49.11 46.3241 48.93 46.0108C48.7567 45.6975 48.4467 45.5408 48 45.5408C47.5533 45.5408 47.24 45.6975 47.06 46.0108C46.8867 46.3241 46.8 46.7608 46.8 47.3208V48.6208C46.8 49.1808 46.8867 49.6175 47.06 49.9308C47.24 50.2441 47.5533 50.4008 48 50.4008ZM48 48.5608C47.7667 48.5608 47.6033 48.5141 47.51 48.4208C47.4233 48.3275 47.38 48.2141 47.38 48.0808V47.8608C47.38 47.7275 47.4233 47.6141 47.51 47.5208C47.6033 47.4275 47.7667 47.3808 48 47.3808C48.2333 47.3808 48.3933 47.4275 48.48 47.5208C48.5733 47.6141 48.62 47.7275 48.62 47.8608V48.0808C48.62 48.2141 48.5733 48.3275 48.48 48.4208C48.3933 48.5141 48.2333 48.5608 48 48.5608Z" fill="white"/>
<path d="M335 51.5808C334.067 51.5808 333.377 51.2641 332.93 50.6308C332.49 49.9975 332.27 49.1108 332.27 47.9708C332.27 46.8308 332.49 45.9441 332.93 45.3108C333.377 44.6775 334.067 44.3608 335 44.3608C335.933 44.3608 336.62 44.6775 337.06 45.3108C337.507 45.9441 337.73 46.8308 337.73 47.9708C337.73 49.1108 337.507 49.9975 337.06 50.6308C336.62 51.2641 335.933 51.5808 335 51.5808ZM335 50.4008C335.447 50.4008 335.757 50.2441 335.93 49.9308C336.11 49.6175 336.2 49.1808 336.2 48.6208V47.3208C336.2 46.7608 336.11 46.3241 335.93 46.0108C335.757 45.6975 335.447 45.5408 335 45.5408C334.553 45.5408 334.24 45.6975 334.06 46.0108C333.887 46.3241 333.8 46.7608 333.8 47.3208V48.6208C333.8 49.1808 333.887 49.6175 334.06 49.9308C334.24 50.2441 334.553 50.4008 335 50.4008ZM335 48.5608C334.767 48.5608 334.603 48.5141 334.51 48.4208C334.423 48.3275 334.38 48.2141 334.38 48.0808V47.8608C334.38 47.7275 334.423 47.6141 334.51 47.5208C334.603 47.4275 334.767 47.3808 335 47.3808C335.233 47.3808 335.393 47.4275 335.48 47.5208C335.573 47.6141 335.62 47.7275 335.62 47.8608V48.0808C335.62 48.2141 335.573 48.3275 335.48 48.4208C335.393 48.5141 335.233 48.5608 335 48.5608Z" fill="white"/>
<path d="M471 51.5808C470.067 51.5808 469.377 51.2641 468.93 50.6308C468.49 49.9975 468.27 49.1108 468.27 47.9708C468.27 46.8308 468.49 45.9441 468.93 45.3108C469.377 44.6775 470.067 44.3608 471 44.3608C471.933 44.3608 472.62 44.6775 473.06 45.3108C473.507 45.9441 473.73 46.8308 473.73 47.9708C473.73 49.1108 473.507 49.9975 473.06 50.6308C472.62 51.2641 471.933 51.5808 471 51.5808ZM471 50.4008C471.447 50.4008 471.757 50.2441 471.93 49.9308C472.11 49.6175 472.2 49.1808 472.2 48.6208V47.3208C472.2 46.7608 472.11 46.3241 471.93 46.0108C471.757 45.6975 471.447 45.5408 471 45.5408C470.553 45.5408 470.24 45.6975 470.06 46.0108C469.887 46.3241 469.8 46.7608 469.8 47.3208V48.6208C469.8 49.1808 469.887 49.6175 470.06 49.9308C470.24 50.2441 470.553 50.4008 471 50.4008ZM471 48.5608C470.767 48.5608 470.603 48.5141 470.51 48.4208C470.423 48.3275 470.38 48.2141 470.38 48.0808V47.8608C470.38 47.7275 470.423 47.6141 470.51 47.5208C470.603 47.4275 470.767 47.3808 471 47.3808C471.233 47.3808 471.393 47.4275 471.48 47.5208C471.573 47.6141 471.62 47.7275 471.62 47.8608V48.0808C471.62 48.2141 471.573 48.3275 471.48 48.4208C471.393 48.5141 471.233 48.5608 471 48.5608ZM476.356 50.8408V49.0008H474.616V47.8208H476.356V45.9808H477.636V47.8208H479.376V49.0008H477.636V50.8408H476.356ZM480.932 51.4608V50.2508H482.812V45.5708H482.722L481.302 47.4308L480.342 46.6808L482.012 44.4808H484.312V50.2508H485.792V51.4608H480.932Z" fill="white"/>
<path d="M89.94 51.4608V50.2508H91.82V45.5708H91.73L90.31 47.4308L89.35 46.6808L91.02 44.4808H93.32V50.2508H94.8V51.4608H89.94Z" fill="white"/>
<path d="M332.94 96.4608V95.2508H334.82V90.5708H334.73L333.31 92.4308L332.35 91.6808L334.02 89.4808H336.32V95.2508H337.8V96.4608H332.94Z" fill="white"/>
<path d="M138.55 51.4608H133.53V50.0908L135.73 48.2608C136.11 47.9341 136.383 47.6508 136.55 47.4108C136.717 47.1708 136.8 46.9175 136.8 46.6508V46.5508C136.8 46.2575 136.713 46.0375 136.54 45.8908C136.367 45.7375 136.133 45.6608 135.84 45.6608C135.507 45.6608 135.25 45.7575 135.07 45.9508C134.89 46.1441 134.763 46.3741 134.69 46.6408L133.38 46.1408C133.46 45.9008 133.57 45.6741 133.71 45.4608C133.85 45.2408 134.027 45.0508 134.24 44.8908C134.46 44.7308 134.713 44.6041 135 44.5108C135.287 44.4108 135.617 44.3608 135.99 44.3608C136.37 44.3608 136.71 44.4141 137.01 44.5208C137.31 44.6275 137.563 44.7741 137.77 44.9608C137.977 45.1475 138.133 45.3708 138.24 45.6308C138.347 45.8841 138.4 46.1608 138.4 46.4608C138.4 46.7541 138.35 47.0241 138.25 47.2708C138.157 47.5108 138.023 47.7375 137.85 47.9508C137.683 48.1641 137.483 48.3708 137.25 48.5708C137.023 48.7708 136.78 48.9708 136.52 49.1708L135.19 50.2008H138.55V51.4608Z" fill="white"/>
<path d="M337.55 150.461H332.53V149.091L334.73 147.261C335.11 146.934 335.383 146.651 335.55 146.411C335.717 146.171 335.8 145.917 335.8 145.651V145.551C335.8 145.257 335.713 145.037 335.54 144.891C335.367 144.737 335.133 144.661 334.84 144.661C334.507 144.661 334.25 144.757 334.07 144.951C333.89 145.144 333.763 145.374 333.69 145.641L332.38 145.141C332.46 144.901 332.57 144.674 332.71 144.461C332.85 144.241 333.027 144.051 333.24 143.891C333.46 143.731 333.713 143.604 334 143.511C334.287 143.411 334.617 143.361 334.99 143.361C335.37 143.361 335.71 143.414 336.01 143.521C336.31 143.627 336.563 143.774 336.77 143.961C336.977 144.147 337.133 144.371 337.24 144.631C337.347 144.884 337.4 145.161 337.4 145.461C337.4 145.754 337.35 146.024 337.25 146.271C337.157 146.511 337.023 146.737 336.85 146.951C336.683 147.164 336.483 147.371 336.25 147.571C336.023 147.771 335.78 147.971 335.52 148.171L334.19 149.201H337.55V150.461Z" fill="white"/>
<path d="M482.327 109.461H477.307V108.091L479.507 106.261C479.887 105.934 480.16 105.651 480.327 105.411C480.494 105.171 480.577 104.917 480.577 104.651V104.551C480.577 104.257 480.49 104.037 480.317 103.891C480.144 103.737 479.91 103.661 479.617 103.661C479.284 103.661 479.027 103.757 478.847 103.951C478.667 104.144 478.54 104.374 478.467 104.641L477.157 104.141C477.237 103.901 477.347 103.674 477.487 103.461C477.627 103.241 477.804 103.051 478.017 102.891C478.237 102.731 478.49 102.604 478.777 102.511C479.064 102.411 479.394 102.361 479.767 102.361C480.147 102.361 480.487 102.414 480.787 102.521C481.087 102.627 481.34 102.774 481.547 102.961C481.754 103.147 481.91 103.371 482.017 103.631C482.124 103.884 482.177 104.161 482.177 104.461C482.177 104.754 482.127 105.024 482.027 105.271C481.934 105.511 481.8 105.737 481.627 105.951C481.46 106.164 481.26 106.371 481.027 106.571C480.8 106.771 480.557 106.971 480.297 107.171L478.967 108.201H482.327V109.461Z" fill="white"/>
<path d="M179.73 47.2408C180.117 47.2408 180.397 47.1675 180.57 47.0208C180.75 46.8741 180.84 46.6941 180.84 46.4808V46.4108C180.84 46.1575 180.753 45.9575 180.58 45.8108C180.413 45.6575 180.173 45.5808 179.86 45.5808C179.573 45.5808 179.303 45.6541 179.05 45.8008C178.803 45.9408 178.593 46.1441 178.42 46.4108L177.47 45.5308C177.603 45.3575 177.75 45.2008 177.91 45.0608C178.07 44.9141 178.247 44.7908 178.44 44.6908C178.633 44.5841 178.85 44.5041 179.09 44.4508C179.337 44.3908 179.613 44.3608 179.92 44.3608C180.3 44.3608 180.643 44.4041 180.95 44.4908C181.257 44.5775 181.517 44.7041 181.73 44.8708C181.95 45.0308 182.12 45.2241 182.24 45.4508C182.36 45.6775 182.42 45.9308 182.42 46.2108C182.42 46.4308 182.383 46.6308 182.31 46.8108C182.237 46.9908 182.137 47.1475 182.01 47.2808C181.89 47.4141 181.747 47.5241 181.58 47.6108C181.42 47.6908 181.247 47.7475 181.06 47.7808V47.8408C181.487 47.9141 181.84 48.0941 182.12 48.3808C182.407 48.6608 182.55 49.0408 182.55 49.5208C182.55 49.8341 182.483 50.1175 182.35 50.3708C182.223 50.6241 182.04 50.8408 181.8 51.0208C181.567 51.2008 181.28 51.3408 180.94 51.4408C180.607 51.5341 180.233 51.5808 179.82 51.5808C179.467 51.5808 179.153 51.5441 178.88 51.4708C178.613 51.3975 178.377 51.3008 178.17 51.1808C177.963 51.0541 177.783 50.9108 177.63 50.7508C177.483 50.5841 177.353 50.4141 177.24 50.2408L178.35 49.3808C178.503 49.6675 178.693 49.9041 178.92 50.0908C179.153 50.2708 179.463 50.3608 179.85 50.3608C180.21 50.3608 180.487 50.2775 180.68 50.1108C180.873 49.9441 180.97 49.7141 180.97 49.4208V49.3508C180.97 49.0641 180.86 48.8508 180.64 48.7108C180.42 48.5641 180.113 48.4908 179.72 48.4908H179.07V47.2408H179.73Z" fill="white"/>
<path d="M334.73 192.241C335.117 192.241 335.397 192.167 335.57 192.021C335.75 191.874 335.84 191.694 335.84 191.481V191.411C335.84 191.157 335.753 190.957 335.58 190.811C335.413 190.657 335.173 190.581 334.86 190.581C334.573 190.581 334.303 190.654 334.05 190.801C333.803 190.941 333.593 191.144 333.42 191.411L332.47 190.531C332.603 190.357 332.75 190.201 332.91 190.061C333.07 189.914 333.247 189.791 333.44 189.691C333.633 189.584 333.85 189.504 334.09 189.451C334.337 189.391 334.613 189.361 334.92 189.361C335.3 189.361 335.643 189.404 335.95 189.491C336.257 189.577 336.517 189.704 336.73 189.871C336.95 190.031 337.12 190.224 337.24 190.451C337.36 190.677 337.42 190.931 337.42 191.211C337.42 191.431 337.383 191.631 337.31 191.811C337.237 191.991 337.137 192.147 337.01 192.281C336.89 192.414 336.747 192.524 336.58 192.611C336.42 192.691 336.247 192.747 336.06 192.781V192.841C336.487 192.914 336.84 193.094 337.12 193.381C337.407 193.661 337.55 194.041 337.55 194.521C337.55 194.834 337.483 195.117 337.35 195.371C337.223 195.624 337.04 195.841 336.8 196.021C336.567 196.201 336.28 196.341 335.94 196.441C335.607 196.534 335.233 196.581 334.82 196.581C334.467 196.581 334.153 196.544 333.88 196.471C333.613 196.397 333.377 196.301 333.17 196.181C332.963 196.054 332.783 195.911 332.63 195.751C332.483 195.584 332.353 195.414 332.24 195.241L333.35 194.381C333.503 194.667 333.693 194.904 333.92 195.091C334.153 195.271 334.463 195.361 334.85 195.361C335.21 195.361 335.487 195.277 335.68 195.111C335.873 194.944 335.97 194.714 335.97 194.421V194.351C335.97 194.064 335.86 193.851 335.64 193.711C335.42 193.564 335.113 193.491 334.72 193.491H334.07V192.241H334.73Z" fill="white"/>
<path d="M479.507 151.241C479.894 151.241 480.174 151.167 480.347 151.021C480.527 150.874 480.617 150.694 480.617 150.481V150.411C480.617 150.157 480.53 149.957 480.357 149.811C480.19 149.657 479.95 149.581 479.637 149.581C479.35 149.581 479.08 149.654 478.827 149.801C478.58 149.941 478.37 150.144 478.197 150.411L477.247 149.531C477.38 149.357 477.527 149.201 477.687 149.061C477.847 148.914 478.024 148.791 478.217 148.691C478.41 148.584 478.627 148.504 478.867 148.451C479.114 148.391 479.39 148.361 479.697 148.361C480.077 148.361 480.42 148.404 480.727 148.491C481.034 148.577 481.294 148.704 481.507 148.871C481.727 149.031 481.897 149.224 482.017 149.451C482.137 149.677 482.197 149.931 482.197 150.211C482.197 150.431 482.16 150.631 482.087 150.811C482.014 150.991 481.914 151.147 481.787 151.281C481.667 151.414 481.524 151.524 481.357 151.611C481.197 151.691 481.024 151.747 480.837 151.781V151.841C481.264 151.914 481.617 152.094 481.897 152.381C482.184 152.661 482.327 153.041 482.327 153.521C482.327 153.834 482.26 154.117 482.127 154.371C482 154.624 481.817 154.841 481.577 155.021C481.344 155.201 481.057 155.341 480.717 155.441C480.384 155.534 480.01 155.581 479.597 155.581C479.244 155.581 478.93 155.544 478.657 155.471C478.39 155.397 478.154 155.301 477.947 155.181C477.74 155.054 477.56 154.911 477.407 154.751C477.26 154.584 477.13 154.414 477.017 154.241L478.127 153.381C478.28 153.667 478.47 153.904 478.697 154.091C478.93 154.271 479.24 154.361 479.627 154.361C479.987 154.361 480.264 154.277 480.457 154.111C480.65 153.944 480.747 153.714 480.747 153.421V153.351C480.747 153.064 480.637 152.851 480.417 152.711C480.197 152.564 479.89 152.491 479.497 152.491H478.847V151.241H479.507Z" fill="white"/>
<path d="M224.39 51.4608V50.1208H221.25V48.8408L224.03 44.4808H225.83V48.9608H226.73V50.1208H225.83V51.4608H224.39ZM222.46 48.9608H224.39V46.0308H224.3L222.46 48.9608Z" fill="white"/>
<path d="M335.39 241.461V240.121H332.25V238.841L335.03 234.481H336.83V238.961H337.73V240.121H336.83V241.461H335.39ZM333.46 238.961H335.39V236.031H335.3L333.46 238.961Z" fill="white"/>
<path d="M480.167 200.461V199.121H477.027V197.841L479.807 193.481H481.607V197.961H482.507V199.121H481.607V200.461H480.167ZM478.237 197.961H480.167V195.031H480.077L478.237 197.961Z" fill="white"/>
<path d="M79.983 80.4608L75.677 84.3069L81.1608 86.1129L79.983 80.4608ZM78.0891 84.6188C76.8902 89.6635 77.5898 93.8886 79.5672 97.3849C81.5376 100.869 84.7532 103.588 88.5221 105.683C96.0519 109.867 105.915 111.627 112.976 111.96L113.024 110.961C106.045 110.632 96.3523 108.89 89.0079 104.809C85.3397 102.77 82.2886 100.165 80.4376 96.8926C78.5936 93.6321 77.917 89.668 79.062 84.85L78.0891 84.6188Z" fill="#6559F4"/>
<path d="M303 104.961L299.155 100.654L297.348 106.137L303 104.961ZM298.865 103.072C288.693 100.223 274.042 99.1358 258.05 99.1058C242.047 99.0757 224.659 100.105 208.993 101.509C193.327 102.913 179.373 104.692 170.235 106.164C165.674 106.899 162.291 107.561 160.495 108.065C160.047 108.191 159.679 108.312 159.412 108.428C159.281 108.485 159.154 108.549 159.05 108.622C158.97 108.678 158.795 108.811 158.74 109.039C158.706 109.176 158.723 109.319 158.789 109.445C158.848 109.559 158.933 109.632 158.998 109.677C159.122 109.762 159.269 109.808 159.392 109.838C159.651 109.9 160.018 109.939 160.476 109.96L160.524 108.961C160.078 108.94 159.789 108.905 159.627 108.866C159.539 108.844 159.535 108.832 159.565 108.853C159.583 108.865 159.635 108.904 159.676 108.982C159.722 109.072 159.735 109.178 159.711 109.276C159.675 109.426 159.575 109.475 159.624 109.441C159.649 109.423 159.706 109.39 159.81 109.345C160.015 109.256 160.332 109.15 160.766 109.028C162.5 108.541 165.832 107.887 170.395 107.152C179.505 105.684 193.435 103.907 209.082 102.505C224.73 101.103 242.085 100.076 258.048 100.106C274.023 100.136 288.561 101.225 298.595 104.035L298.865 103.072Z" fill="#6559F4"/>
<path d="M363 122.461L368.677 121.409L364.927 117.019L363 122.461ZM399 25.9608L398.619 26.285L399 25.9608ZM366.744 119.921C394.776 95.6006 406.263 75.921 409.062 60.3407C411.866 44.732 405.935 33.3331 399.381 25.6366L398.619 26.285C405.043 33.8286 410.813 44.9346 408.078 60.1639C405.337 75.4215 394.043 94.9131 366.089 119.165L366.744 119.921ZM399.381 25.6366C391.577 16.4727 376.682 11.9834 358.597 10.3067C340.478 8.62692 319.014 9.75884 297.914 11.9708C276.809 14.1831 256.044 17.4786 239.32 20.1341C230.955 21.4622 223.607 22.6295 217.727 23.4224C211.83 24.2176 207.463 24.6282 205.034 24.462L204.966 25.4597C207.514 25.634 211.983 25.206 217.861 24.4135C223.755 23.6187 231.117 22.4492 239.477 21.1217C256.203 18.4658 276.944 15.1745 298.018 12.9653C319.096 10.7558 340.483 9.63168 358.504 11.3024C376.558 12.9763 391.091 17.4441 398.619 26.285L399.381 25.6366Z" fill="#6559F4"/>
<path d="M110.5 23.4608L116.272 23.6086L113.514 18.5364L110.5 23.4608ZM114.677 21.7584C128.338 14.8801 139.142 15.2488 148.323 17.4141C152.931 18.5011 157.122 20.0383 161.101 21.3619C165.061 22.6795 168.817 23.7873 172.476 23.9602L172.524 22.9614C169.015 22.7956 165.376 21.7304 161.416 20.413C157.474 19.1014 153.218 17.5413 148.552 16.4408C139.184 14.231 128.132 13.8639 114.228 20.8652L114.677 21.7584Z" fill="#6559F4"/>
<rect x="172.5" y="14.9608" width="37" height="16" fill="#6559F4" stroke="#4A40BF"/>
<rect x="113.5" y="102.961" width="48" height="16" fill="#6559F4" stroke="#4A40BF"/>
<path d="M120.28 108.221V114.461H119.44V108.221H117.22V107.481H122.5V108.221H120.28ZM124.868 114.581C124.522 114.581 124.205 114.517 123.918 114.391C123.632 114.264 123.385 114.084 123.178 113.851C122.978 113.611 122.822 113.327 122.708 113.001C122.595 112.667 122.538 112.294 122.538 111.881C122.538 111.474 122.595 111.104 122.708 110.771C122.822 110.437 122.978 110.154 123.178 109.921C123.385 109.681 123.632 109.497 123.918 109.371C124.205 109.244 124.522 109.181 124.868 109.181C125.215 109.181 125.528 109.244 125.808 109.371C126.095 109.497 126.342 109.681 126.548 109.921C126.755 110.154 126.915 110.437 127.028 110.771C127.142 111.104 127.198 111.474 127.198 111.881C127.198 112.294 127.142 112.667 127.028 113.001C126.915 113.327 126.755 113.611 126.548 113.851C126.342 114.084 126.095 114.264 125.808 114.391C125.528 114.517 125.215 114.581 124.868 114.581ZM124.868 113.871C125.302 113.871 125.655 113.737 125.928 113.471C126.202 113.204 126.338 112.797 126.338 112.251V111.511C126.338 110.964 126.202 110.557 125.928 110.291C125.655 110.024 125.302 109.891 124.868 109.891C124.435 109.891 124.082 110.024 123.808 110.291C123.535 110.557 123.398 110.964 123.398 111.511V112.251C123.398 112.797 123.535 113.204 123.808 113.471C124.082 113.737 124.435 113.871 124.868 113.871ZM128.514 109.301H129.314V110.141H129.354C129.487 109.814 129.681 109.574 129.934 109.421C130.194 109.261 130.504 109.181 130.864 109.181C131.184 109.181 131.474 109.244 131.734 109.371C131.994 109.497 132.214 109.677 132.394 109.911C132.581 110.144 132.721 110.427 132.814 110.761C132.914 111.094 132.964 111.467 132.964 111.881C132.964 112.294 132.914 112.667 132.814 113.001C132.721 113.334 132.581 113.617 132.394 113.851C132.214 114.084 131.994 114.264 131.734 114.391C131.474 114.517 131.184 114.581 130.864 114.581C130.164 114.581 129.661 114.261 129.354 113.621H129.314V116.461H128.514V109.301ZM130.644 113.861C131.097 113.861 131.454 113.721 131.714 113.441C131.974 113.154 132.104 112.781 132.104 112.321V111.441C132.104 110.981 131.974 110.611 131.714 110.331C131.454 110.044 131.097 109.901 130.644 109.901C130.464 109.901 130.291 109.927 130.124 109.981C129.964 110.027 129.824 110.094 129.704 110.181C129.584 110.267 129.487 110.374 129.414 110.501C129.347 110.621 129.314 110.751 129.314 110.891V112.811C129.314 112.977 129.347 113.127 129.414 113.261C129.487 113.387 129.584 113.497 129.704 113.591C129.824 113.677 129.964 113.744 130.124 113.791C130.291 113.837 130.464 113.861 130.644 113.861ZM136.958 110.001H136.118V109.301H136.958V108.261C136.958 107.901 137.051 107.611 137.238 107.391C137.425 107.171 137.708 107.061 138.088 107.061H138.868V107.761H137.758V109.301H138.868V110.001H137.758V114.461H136.958V110.001ZM141.831 114.581C141.485 114.581 141.168 114.517 140.881 114.391C140.595 114.264 140.348 114.084 140.141 113.851C139.941 113.611 139.785 113.327 139.671 113.001C139.558 112.667 139.501 112.294 139.501 111.881C139.501 111.474 139.558 111.104 139.671 110.771C139.785 110.437 139.941 110.154 140.141 109.921C140.348 109.681 140.595 109.497 140.881 109.371C141.168 109.244 141.485 109.181 141.831 109.181C142.178 109.181 142.491 109.244 142.771 109.371C143.058 109.497 143.305 109.681 143.511 109.921C143.718 110.154 143.878 110.437 143.991 110.771C144.105 111.104 144.161 111.474 144.161 111.881C144.161 112.294 144.105 112.667 143.991 113.001C143.878 113.327 143.718 113.611 143.511 113.851C143.305 114.084 143.058 114.264 142.771 114.391C142.491 114.517 142.178 114.581 141.831 114.581ZM141.831 113.871C142.265 113.871 142.618 113.737 142.891 113.471C143.165 113.204 143.301 112.797 143.301 112.251V111.511C143.301 110.964 143.165 110.557 142.891 110.291C142.618 110.024 142.265 109.891 141.831 109.891C141.398 109.891 141.045 110.024 140.771 110.291C140.498 110.557 140.361 110.964 140.361 111.511V112.251C140.361 112.797 140.498 113.204 140.771 113.471C141.045 113.737 141.398 113.871 141.831 113.871ZM145.477 114.461V109.301H146.277V110.251H146.327C146.42 110.004 146.587 109.784 146.827 109.591C147.067 109.397 147.397 109.301 147.817 109.301H148.127V110.101H147.657C147.224 110.101 146.884 110.184 146.637 110.351C146.397 110.511 146.277 110.714 146.277 110.961V114.461H145.477ZM149.149 114.461V109.301H149.949V110.141H149.989C150.049 110.007 150.115 109.884 150.189 109.771C150.269 109.651 150.362 109.547 150.469 109.461C150.582 109.374 150.712 109.307 150.859 109.261C151.005 109.207 151.179 109.181 151.379 109.181C151.719 109.181 152.032 109.264 152.319 109.431C152.605 109.591 152.819 109.857 152.959 110.231H152.979C153.072 109.951 153.245 109.707 153.499 109.501C153.759 109.287 154.109 109.181 154.549 109.181C155.075 109.181 155.485 109.354 155.779 109.701C156.079 110.041 156.229 110.524 156.229 111.151V114.461H155.429V111.291C155.429 110.831 155.339 110.484 155.159 110.251C154.979 110.017 154.692 109.901 154.299 109.901C154.139 109.901 153.985 109.921 153.839 109.961C153.699 110.001 153.572 110.061 153.459 110.141C153.345 110.221 153.255 110.324 153.189 110.451C153.122 110.571 153.089 110.714 153.089 110.881V114.461H152.289V111.291C152.289 110.831 152.199 110.484 152.019 110.251C151.839 110.017 151.559 109.901 151.179 109.901C151.019 109.901 150.865 109.921 150.719 109.961C150.572 110.001 150.442 110.061 150.329 110.141C150.215 110.221 150.122 110.324 150.049 110.451C149.982 110.571 149.949 110.714 149.949 110.881V114.461H149.149Z" fill="white"/>
<path d="M179.39 26.5808C178.503 26.5808 177.813 26.2808 177.32 25.6808C176.827 25.0741 176.58 24.1841 176.58 23.0108C176.58 21.8375 176.827 20.9375 177.32 20.3108C177.813 19.6775 178.503 19.3608 179.39 19.3608C179.977 19.3608 180.467 19.4941 180.86 19.7608C181.26 20.0275 181.57 20.4041 181.79 20.8908L181.11 21.3008C180.97 20.9408 180.757 20.6541 180.47 20.4408C180.183 20.2208 179.823 20.1108 179.39 20.1108C179.09 20.1108 178.82 20.1675 178.58 20.2808C178.347 20.3941 178.147 20.5575 177.98 20.7708C177.82 20.9775 177.697 21.2275 177.61 21.5208C177.523 21.8075 177.48 22.1308 177.48 22.4908V23.5308C177.48 24.2508 177.647 24.8141 177.98 25.2208C178.313 25.6275 178.783 25.8308 179.39 25.8308C179.837 25.8308 180.21 25.7175 180.51 25.4908C180.81 25.2575 181.03 24.9508 181.17 24.5708L181.84 24.9908C181.62 25.4841 181.303 25.8741 180.89 26.1608C180.477 26.4408 179.977 26.5808 179.39 26.5808ZM186.241 25.6208H186.201C186.148 25.7408 186.081 25.8608 186.001 25.9808C185.928 26.0941 185.834 26.1975 185.721 26.2908C185.608 26.3775 185.471 26.4475 185.311 26.5008C185.151 26.5541 184.964 26.5808 184.751 26.5808C184.218 26.5808 183.794 26.4108 183.481 26.0708C183.168 25.7241 183.011 25.2375 183.011 24.6108V21.3008H183.811V24.4708C183.811 25.3975 184.204 25.8608 184.991 25.8608C185.151 25.8608 185.304 25.8408 185.451 25.8008C185.604 25.7608 185.738 25.7008 185.851 25.6208C185.971 25.5408 186.064 25.4408 186.131 25.3208C186.204 25.1941 186.241 25.0441 186.241 24.8708V21.3008H187.041V26.4608H186.241V25.6208ZM188.745 26.4608V21.3008H189.545V22.2508H189.595C189.688 22.0041 189.855 21.7841 190.095 21.5908C190.335 21.3975 190.665 21.3008 191.085 21.3008H191.395V22.1008H190.925C190.491 22.1008 190.151 22.1841 189.905 22.3508C189.665 22.5108 189.545 22.7141 189.545 22.9608V26.4608H188.745ZM193.966 26.5808C193.486 26.5808 193.083 26.4908 192.756 26.3108C192.436 26.1241 192.16 25.8775 191.926 25.5708L192.496 25.1108C192.696 25.3641 192.92 25.5608 193.166 25.7008C193.413 25.8341 193.7 25.9008 194.026 25.9008C194.366 25.9008 194.63 25.8275 194.816 25.6808C195.01 25.5341 195.106 25.3275 195.106 25.0608C195.106 24.8608 195.04 24.6908 194.906 24.5508C194.78 24.4041 194.546 24.3041 194.206 24.2508L193.796 24.1908C193.556 24.1575 193.336 24.1075 193.136 24.0408C192.936 23.9675 192.76 23.8741 192.606 23.7608C192.46 23.6408 192.343 23.4941 192.256 23.3208C192.176 23.1475 192.136 22.9408 192.136 22.7008C192.136 22.4475 192.183 22.2275 192.276 22.0408C192.37 21.8475 192.496 21.6875 192.656 21.5608C192.823 21.4341 193.02 21.3408 193.246 21.2808C193.473 21.2141 193.716 21.1808 193.976 21.1808C194.396 21.1808 194.746 21.2541 195.026 21.4008C195.313 21.5475 195.563 21.7508 195.776 22.0108L195.246 22.4908C195.133 22.3308 194.966 22.1875 194.746 22.0608C194.526 21.9275 194.25 21.8608 193.916 21.8608C193.583 21.8608 193.33 21.9341 193.156 22.0808C192.99 22.2208 192.906 22.4141 192.906 22.6608C192.906 22.9141 192.99 23.0975 193.156 23.2108C193.33 23.3241 193.576 23.4075 193.896 23.4608L194.296 23.5208C194.87 23.6075 195.276 23.7741 195.516 24.0208C195.756 24.2608 195.876 24.5775 195.876 24.9708C195.876 25.4708 195.706 25.8641 195.366 26.1508C195.026 26.4375 194.56 26.5808 193.966 26.5808ZM199.239 26.5808C198.893 26.5808 198.576 26.5175 198.289 26.3908C198.003 26.2641 197.756 26.0841 197.549 25.8508C197.349 25.6108 197.193 25.3275 197.079 25.0008C196.966 24.6675 196.909 24.2941 196.909 23.8808C196.909 23.4741 196.966 23.1041 197.079 22.7708C197.193 22.4375 197.349 22.1541 197.549 21.9208C197.756 21.6808 198.003 21.4975 198.289 21.3708C198.576 21.2441 198.893 21.1808 199.239 21.1808C199.586 21.1808 199.899 21.2441 200.179 21.3708C200.466 21.4975 200.713 21.6808 200.919 21.9208C201.126 22.1541 201.286 22.4375 201.399 22.7708C201.513 23.1041 201.569 23.4741 201.569 23.8808C201.569 24.2941 201.513 24.6675 201.399 25.0008C201.286 25.3275 201.126 25.6108 200.919 25.8508C200.713 26.0841 200.466 26.2641 200.179 26.3908C199.899 26.5175 199.586 26.5808 199.239 26.5808ZM199.239 25.8708C199.673 25.8708 200.026 25.7375 200.299 25.4708C200.573 25.2041 200.709 24.7975 200.709 24.2508V23.5108C200.709 22.9641 200.573 22.5575 200.299 22.2908C200.026 22.0241 199.673 21.8908 199.239 21.8908C198.806 21.8908 198.453 22.0241 198.179 22.2908C197.906 22.5575 197.769 22.9641 197.769 23.5108V24.2508C197.769 24.7975 197.906 25.2041 198.179 25.4708C198.453 25.7375 198.806 25.8708 199.239 25.8708ZM202.885 26.4608V21.3008H203.685V22.2508H203.735C203.828 22.0041 203.995 21.7841 204.235 21.5908C204.475 21.3975 204.805 21.3008 205.225 21.3008H205.535V22.1008H205.065C204.632 22.1008 204.292 22.1841 204.045 22.3508C203.805 22.5108 203.685 22.7141 203.685 22.9608V26.4608H202.885Z" fill="white"/>
<path d="M421.061 154.521C421.646 153.936 421.646 152.986 421.061 152.4L411.515 142.854C410.929 142.268 409.979 142.268 409.393 142.854C408.808 143.44 408.808 144.39 409.393 144.976L417.879 153.461L409.393 161.946C408.808 162.532 408.808 163.482 409.393 164.067C409.979 164.653 410.929 164.653 411.515 164.067L421.061 154.521ZM381 154.961H420V151.961H381V154.961Z" fill="#405472"/>
<path d="M390.758 176.101H391.696L390.954 179.979H389.148L390.758 176.101ZM394.104 176.101H395.042L394.3 179.979H392.494L394.104 176.101ZM400.063 185.593V182.667H397.263V181.715H400.063V178.789H401.127V181.715H403.927V182.667H401.127V185.593H400.063ZM407.071 176.101H408.877L407.267 179.979H406.329L407.071 176.101ZM410.417 176.101H412.223L410.613 179.979H409.675L410.417 176.101Z" fill="#6C86AC"/>
<defs>
<linearGradient id="paint0_linear_3_122" x1="33.4292" y1="40.4608" x2="33.4292" y2="72.4608" gradientUnits="userSpaceOnUse">
<stop stop-color="#4472B0"/>
<stop offset="1" stop-color="#6559F4"/>
</linearGradient>
<linearGradient id="paint1_linear_3_122" x1="320.429" y1="40.4608" x2="320.429" y2="72.4608" gradientUnits="userSpaceOnUse">
<stop stop-color="#4472B0"/>
<stop offset="1" stop-color="#6559F4"/>
</linearGradient>
<linearGradient id="paint2_linear_3_122" x1="465.206" y1="40.4608" x2="465.206" y2="72.4608" gradientUnits="userSpaceOnUse">
<stop stop-color="#4472B0"/>
<stop offset="1" stop-color="#6559F4"/>
</linearGradient>
<linearGradient id="paint3_linear_3_122" x1="77.4292" y1="40.4608" x2="77.4292" y2="72.4608" gradientUnits="userSpaceOnUse">
<stop stop-color="#4472B0"/>
<stop offset="1" stop-color="#6559F4"/>
</linearGradient>
<linearGradient id="paint4_linear_3_122" x1="320.429" y1="85.4608" x2="320.429" y2="117.461" gradientUnits="userSpaceOnUse">
<stop stop-color="#4472B0"/>
<stop offset="1" stop-color="#6559F4"/>
</linearGradient>
<linearGradient id="paint5_linear_3_122" x1="121.429" y1="40.4608" x2="121.429" y2="72.4608" gradientUnits="userSpaceOnUse">
<stop stop-color="#4472B0"/>
<stop offset="1" stop-color="#6559F4"/>
</linearGradient>
<linearGradient id="paint6_linear_3_122" x1="320.429" y1="139.461" x2="320.429" y2="171.461" gradientUnits="userSpaceOnUse">
<stop stop-color="#4472B0"/>
<stop offset="1" stop-color="#6559F4"/>
</linearGradient>
<linearGradient id="paint7_linear_3_122" x1="465.206" y1="98.4608" x2="465.206" y2="130.461" gradientUnits="userSpaceOnUse">
<stop stop-color="#4472B0"/>
<stop offset="1" stop-color="#6559F4"/>
</linearGradient>
<linearGradient id="paint8_linear_3_122" x1="165.429" y1="40.4608" x2="165.429" y2="72.4608" gradientUnits="userSpaceOnUse">
<stop stop-color="#4472B0"/>
<stop offset="1" stop-color="#6559F4"/>
</linearGradient>
<linearGradient id="paint9_linear_3_122" x1="320.429" y1="185.461" x2="320.429" y2="217.461" gradientUnits="userSpaceOnUse">
<stop stop-color="#4472B0"/>
<stop offset="1" stop-color="#6559F4"/>
</linearGradient>
<linearGradient id="paint10_linear_3_122" x1="465.206" y1="144.461" x2="465.206" y2="176.461" gradientUnits="userSpaceOnUse">
<stop stop-color="#4472B0"/>
<stop offset="1" stop-color="#6559F4"/>
</linearGradient>
<linearGradient id="paint11_linear_3_122" x1="209.429" y1="40.4608" x2="209.429" y2="72.4608" gradientUnits="userSpaceOnUse">
<stop stop-color="#4472B0"/>
<stop offset="1" stop-color="#6559F4"/>
</linearGradient>
<linearGradient id="paint12_linear_3_122" x1="320.429" y1="230.461" x2="320.429" y2="262.461" gradientUnits="userSpaceOnUse">
<stop stop-color="#4472B0"/>
<stop offset="1" stop-color="#6559F4"/>
</linearGradient>
<linearGradient id="paint13_linear_3_122" x1="465.206" y1="189.461" x2="465.206" y2="221.461" gradientUnits="userSpaceOnUse">
<stop stop-color="#4472B0"/>
<stop offset="1" stop-color="#6559F4"/>
</linearGradient>
</defs>
</svg>
