<svg width="378" height="177" viewBox="0 0 378 177" fill="none" xmlns="http://www.w3.org/2000/svg">
<rect width="378" height="177" fill="#0D1117"/>
<path d="M42.7336 70.4231C42.9673 70.5702 43.276 70.5001 43.4231 70.2664L45.8208 66.4584C45.9679 66.2247 45.8977 65.916 45.6641 65.7688C45.4304 65.6217 45.1217 65.6919 44.9745 65.9255L42.8433 69.3105L39.4584 67.1792C39.2247 67.0321 38.916 67.1023 38.7688 67.3359C38.6217 67.5696 38.6919 67.8783 38.9255 68.0255L42.7336 70.4231ZM37.5124 48.1108L42.5124 70.1108L43.4876 69.8892L38.4876 47.8892L37.5124 48.1108Z" fill="#C7B82F"/>
<path d="M62.5136 79.8842C62.4496 80.1528 62.6156 80.4224 62.8842 80.4864L67.2618 81.5287C67.5305 81.5927 67.8001 81.4267 67.864 81.1581C67.928 80.8895 67.7621 80.6198 67.4934 80.5559L63.6022 79.6294L64.5287 75.7382C64.5927 75.4695 64.4267 75.1999 64.1581 75.136C63.8895 75.072 63.6198 75.2379 63.5559 75.5066L62.5136 79.8842ZM101.738 55.5742L62.738 79.5742L63.262 80.4258L102.262 56.4258L101.738 55.5742Z" fill="#23A787"/>
<path d="M80.1182 111.486C80.3865 111.421 80.5511 111.15 80.4858 110.882L79.4223 106.509C79.357 106.241 79.0866 106.076 78.8182 106.142C78.5499 106.207 78.3853 106.477 78.4506 106.746L79.396 110.632L75.5093 111.578C75.241 111.643 75.0764 111.913 75.1417 112.182C75.2069 112.45 75.4774 112.615 75.7457 112.549L80.1182 111.486ZM56.74 97.4271L79.74 111.427L80.26 110.573L57.26 96.5729L56.74 97.4271Z" fill="#23A787"/>
<path d="M140.488 92.1095C140.548 91.8401 140.379 91.5726 140.11 91.5121L135.719 90.5265C135.449 90.466 135.182 90.6354 135.121 90.9048C135.061 91.1742 135.23 91.4417 135.5 91.5022L139.403 92.3783L138.526 96.2812C138.466 96.5506 138.635 96.8181 138.905 96.8786C139.174 96.9391 139.442 96.7697 139.502 96.5002L140.488 92.1095ZM110.268 111.422L140.268 92.4224L139.732 91.5776L109.732 110.578L110.268 111.422Z" fill="#23A787"/>
<path d="M109.511 101.894C109.453 102.164 109.624 102.43 109.894 102.489L114.291 103.445C114.561 103.503 114.827 103.332 114.886 103.062C114.945 102.792 114.773 102.526 114.504 102.467L110.595 101.618L111.445 97.7089C111.503 97.4391 111.332 97.1728 111.062 97.1141C110.792 97.0555 110.526 97.2267 110.467 97.4965L109.511 101.894ZM137.73 83.5794L109.73 101.579L110.27 102.421L138.27 84.4206L137.73 83.5794Z" fill="#23A787"/>
<path d="M166.507 68.086C166.555 68.358 166.814 68.54 167.086 68.4925L171.519 67.7185C171.791 67.671 171.973 67.412 171.925 67.14C171.878 66.868 171.619 66.686 171.347 66.7334L167.407 67.4215L166.719 63.4811C166.671 63.209 166.412 63.027 166.14 63.0745C165.868 63.122 165.686 63.381 165.733 63.6531L166.507 68.086ZM192.591 30.7125L166.591 67.7125L167.409 68.2875L193.409 31.2875L192.591 30.7125Z" fill="#C7B82F"/>
<path d="M161.33 96.6244C161.123 96.4421 160.807 96.4625 160.624 96.6699L157.654 100.05C157.472 100.258 157.492 100.574 157.699 100.756C157.907 100.938 158.223 100.918 158.405 100.71L161.046 97.7056L164.05 100.346C164.258 100.528 164.574 100.508 164.756 100.301C164.938 100.093 164.918 99.7772 164.71 99.5949L161.33 96.6244ZM163.499 127.968L161.499 96.9678L160.501 97.0322L162.501 128.032L163.499 127.968Z" fill="#C7B82F"/>
<path d="M113.881 122.514C113.613 122.58 113.449 122.851 113.514 123.119L114.586 127.49C114.652 127.758 114.923 127.922 115.191 127.856C115.459 127.79 115.623 127.52 115.558 127.251L114.605 123.366L118.49 122.414C118.758 122.348 118.922 122.077 118.856 121.809C118.79 121.541 118.52 121.377 118.251 121.442L113.881 122.514ZM147.259 142.572L114.259 122.572L113.741 123.428L146.741 143.428L147.259 142.572Z" fill="#C7B82F"/>
<path d="M147.162 152.473C147.424 152.383 147.563 152.099 147.473 151.838L146.012 147.581C145.922 147.32 145.638 147.181 145.377 147.271C145.115 147.361 144.976 147.645 145.066 147.906L146.365 151.689L142.581 152.988C142.32 153.078 142.181 153.362 142.271 153.623C142.361 153.885 142.645 154.024 142.906 153.934L147.162 152.473ZM101.78 130.449L146.78 152.449L147.22 151.551L102.22 129.551L101.78 130.449Z" fill="#C7B82F"/>
<path d="M113.789 61.5465C113.539 61.6628 113.43 61.9601 113.546 62.2106L115.441 66.2921C115.558 66.5426 115.855 66.6513 116.106 66.535C116.356 66.4188 116.465 66.1214 116.349 65.871L114.664 62.2429L118.292 60.5585C118.543 60.4422 118.651 60.1449 118.535 59.8944C118.419 59.644 118.121 59.5352 117.871 59.6515L113.789 61.5465ZM155.172 76.5304L114.172 61.5304L113.828 62.4696L154.828 77.4696L155.172 76.5304Z" fill="#23A787"/>
<path d="M319.354 41.3536C319.549 41.1583 319.549 40.8417 319.354 40.6464L316.172 37.4645C315.976 37.2692 315.66 37.2692 315.464 37.4645C315.269 37.6597 315.269 37.9763 315.464 38.1716L318.293 41L315.464 43.8284C315.269 44.0237 315.269 44.3403 315.464 44.5355C315.66 44.7308 315.976 44.7308 316.172 44.5355L319.354 41.3536ZM280 41.5H319V40.5H280V41.5Z" fill="#23A787"/>
<path d="M319.354 114.354C319.549 114.158 319.549 113.842 319.354 113.646L316.172 110.464C315.976 110.269 315.66 110.269 315.464 110.464C315.269 110.66 315.269 110.976 315.464 111.172L318.293 114L315.464 116.828C315.269 117.024 315.269 117.34 315.464 117.536C315.66 117.731 315.976 117.731 316.172 117.536L319.354 114.354ZM280 114.5H319V113.5H280V114.5Z" fill="#C7B82F"/>
<path d="M50.6417 28.6813C50.4493 28.8795 50.454 29.196 50.6522 29.3884L53.8809 32.5229C54.0791 32.7152 54.3956 32.7105 54.588 32.5124C54.7803 32.3143 54.7756 31.9977 54.5775 31.8054L51.7075 29.0191L54.4937 26.1491C54.686 25.951 54.6813 25.6345 54.4832 25.4421C54.2851 25.2498 53.9685 25.2544 53.7762 25.4526L50.6417 28.6813ZM187.993 26.5001L50.993 28.5297L51.0078 29.5296L188.007 27.4999L187.993 26.5001Z" fill="#23A787"/>
<path d="M176.431 38.2542C176.571 38.0164 176.492 37.7098 176.254 37.5694L172.379 35.2817C172.141 35.1413 171.835 35.2203 171.694 35.4581C171.554 35.6959 171.633 36.0025 171.871 36.1429L175.315 38.1764L173.282 41.6209C173.141 41.8587 173.22 42.1653 173.458 42.3057C173.696 42.446 174.002 42.3671 174.143 42.1293L176.431 38.2542ZM110.125 55.4842L176.125 38.4842L175.875 37.5158L109.875 54.5158L110.125 55.4842Z" fill="#23A787"/>
<ellipse cx="46.5" cy="87" rx="16.5" ry="16" fill="#4472B0"/>
<path d="M39.77 91.38V82.4H41.84V83.44H41.14V90.34H41.84V91.38H39.77ZM43.8898 90.11C43.5898 90.11 43.3665 90.0367 43.2198 89.89C43.0798 89.7367 43.0098 89.5433 43.0098 89.31V89.11C43.0098 88.8767 43.0798 88.6867 43.2198 88.54C43.3665 88.3867 43.5898 88.31 43.8898 88.31C44.1898 88.31 44.4098 88.3867 44.5498 88.54C44.6965 88.6867 44.7698 88.8767 44.7698 89.11V89.31C44.7698 89.5433 44.6965 89.7367 44.5498 89.89C44.4098 90.0367 44.1898 90.11 43.8898 90.11ZM46.8198 90.11C46.5198 90.11 46.2965 90.0367 46.1498 89.89C46.0098 89.7367 45.9398 89.5433 45.9398 89.31V89.11C45.9398 88.8767 46.0098 88.6867 46.1498 88.54C46.2965 88.3867 46.5198 88.31 46.8198 88.31C47.1198 88.31 47.3398 88.3867 47.4798 88.54C47.6265 88.6867 47.6998 88.8767 47.6998 89.11V89.31C47.6998 89.5433 47.6265 89.7367 47.4798 89.89C47.3398 90.0367 47.1198 90.11 46.8198 90.11ZM49.7598 90.11C49.4598 90.11 49.2365 90.0367 49.0898 89.89C48.9498 89.7367 48.8798 89.5433 48.8798 89.31V89.11C48.8798 88.8767 48.9498 88.6867 49.0898 88.54C49.2365 88.3867 49.4598 88.31 49.7598 88.31C50.0598 88.31 50.2798 88.3867 50.4198 88.54C50.5665 88.6867 50.6398 88.8767 50.6398 89.11V89.31C50.6398 89.5433 50.5665 89.7367 50.4198 89.89C50.2798 90.0367 50.0598 90.11 49.7598 90.11ZM53.8845 82.4V91.38H51.8145V90.34H52.5145V83.44H51.8145V82.4H53.8845Z" fill="white"/>
<ellipse cx="190.5" cy="29" rx="16.5" ry="16" fill="#4472B0"/>
<ellipse cx="257.5" cy="40" rx="11.5" ry="11" fill="#4472B0"/>
<ellipse cx="257.5" cy="113" rx="11.5" ry="11" fill="#4472B0"/>
<ellipse cx="341.5" cy="40" rx="11.5" ry="11" fill="#4472B0"/>
<ellipse cx="341.5" cy="113" rx="11.5" ry="11" fill="#4472B0"/>
<ellipse cx="34.5" cy="32" rx="16.5" ry="16" fill="#4472B0"/>
<path d="M183.77 33.38V24.4H185.84V25.44H185.14V32.34H185.84V33.38H183.77ZM187.89 32.11C187.59 32.11 187.367 32.0367 187.22 31.89C187.08 31.7367 187.01 31.5433 187.01 31.31V31.11C187.01 30.8767 187.08 30.6867 187.22 30.54C187.367 30.3867 187.59 30.31 187.89 30.31C188.19 30.31 188.41 30.3867 188.55 30.54C188.697 30.6867 188.77 30.8767 188.77 31.11V31.31C188.77 31.5433 188.697 31.7367 188.55 31.89C188.41 32.0367 188.19 32.11 187.89 32.11ZM190.82 32.11C190.52 32.11 190.297 32.0367 190.15 31.89C190.01 31.7367 189.94 31.5433 189.94 31.31V31.11C189.94 30.8767 190.01 30.6867 190.15 30.54C190.297 30.3867 190.52 30.31 190.82 30.31C191.12 30.31 191.34 30.3867 191.48 30.54C191.627 30.6867 191.7 30.8767 191.7 31.11V31.31C191.7 31.5433 191.627 31.7367 191.48 31.89C191.34 32.0367 191.12 32.11 190.82 32.11ZM193.76 32.11C193.46 32.11 193.237 32.0367 193.09 31.89C192.95 31.7367 192.88 31.5433 192.88 31.31V31.11C192.88 30.8767 192.95 30.6867 193.09 30.54C193.237 30.3867 193.46 30.31 193.76 30.31C194.06 30.31 194.28 30.3867 194.42 30.54C194.567 30.6867 194.64 30.8767 194.64 31.11V31.31C194.64 31.5433 194.567 31.7367 194.42 31.89C194.28 32.0367 194.06 32.11 193.76 32.11ZM197.884 24.4V33.38H195.814V32.34H196.514V25.44H195.814V24.4H197.884Z" fill="white"/>
<path d="M259.59 43C259.303 43 259.083 42.92 258.93 42.76C258.777 42.5933 258.683 42.3833 258.65 42.13H258.6C258.5 42.4567 258.317 42.7033 258.05 42.87C257.783 43.0367 257.46 43.12 257.08 43.12C256.54 43.12 256.123 42.98 255.83 42.7C255.543 42.42 255.4 42.0433 255.4 41.57C255.4 41.05 255.587 40.66 255.96 40.4C256.34 40.14 256.893 40.01 257.62 40.01H258.56V39.57C258.56 39.25 258.473 39.0033 258.3 38.83C258.127 38.6567 257.857 38.57 257.49 38.57C257.183 38.57 256.933 38.6367 256.74 38.77C256.547 38.9033 256.383 39.0733 256.25 39.28L255.6 38.69C255.773 38.3967 256.017 38.1567 256.33 37.97C256.643 37.7767 257.053 37.68 257.56 37.68C258.233 37.68 258.75 37.8367 259.11 38.15C259.47 38.4633 259.65 38.9133 259.65 39.5V42.11H260.2V43H259.59ZM257.39 42.29C257.73 42.29 258.01 42.2167 258.23 42.07C258.45 41.9167 258.56 41.7133 258.56 41.46V40.71H257.64C256.887 40.71 256.51 40.9433 256.51 41.41V41.59C256.51 41.8233 256.587 42 256.74 42.12C256.9 42.2333 257.117 42.29 257.39 42.29Z" fill="white"/>
<path d="M255.2 116L257.03 113.37L255.25 110.8H256.51L257.68 112.61H257.71L258.91 110.8H260.07L258.29 113.36L260.1 116H258.84L257.64 114.11H257.61L256.36 116H255.2Z" fill="white"/>
<path d="M339.78 35.6H340.87V38.66H340.92C341.033 38.3467 341.217 38.1067 341.47 37.94C341.73 37.7667 342.033 37.68 342.38 37.68C343.04 37.68 343.55 37.92 343.91 38.4C344.27 38.8733 344.45 39.54 344.45 40.4C344.45 41.26 344.27 41.93 343.91 42.41C343.55 42.8833 343.04 43.12 342.38 43.12C342.033 43.12 341.73 43.0333 341.47 42.86C341.217 42.6867 341.033 42.4467 340.92 42.14H340.87V43H339.78V35.6ZM342.05 42.18C342.43 42.18 342.733 42.06 342.96 41.82C343.187 41.5733 343.3 41.25 343.3 40.85V39.95C343.3 39.55 343.187 39.23 342.96 38.99C342.733 38.7433 342.43 38.62 342.05 38.62C341.717 38.62 341.437 38.7033 341.21 38.87C340.983 39.03 340.87 39.2433 340.87 39.51V41.29C340.87 41.5567 340.983 41.7733 341.21 41.94C341.437 42.1 341.717 42.18 342.05 42.18Z" fill="white"/>
<path d="M342.97 110.8H344.02L341.83 117.03C341.77 117.203 341.7 117.35 341.62 117.47C341.547 117.597 341.457 117.697 341.35 117.77C341.25 117.85 341.127 117.907 340.98 117.94C340.833 117.98 340.66 118 340.46 118H339.83V117.11H340.71L341.01 116.23L339.12 110.8H340.21L341.25 113.86L341.55 114.99H341.6L341.93 113.86L342.97 110.8Z" fill="white"/>
<path d="M27.77 36.38V27.4H29.84V28.44H29.14V35.34H29.84V36.38H27.77ZM31.8898 35.11C31.5898 35.11 31.3665 35.0367 31.2198 34.89C31.0798 34.7367 31.0098 34.5433 31.0098 34.31V34.11C31.0098 33.8767 31.0798 33.6867 31.2198 33.54C31.3665 33.3867 31.5898 33.31 31.8898 33.31C32.1898 33.31 32.4098 33.3867 32.5498 33.54C32.6965 33.6867 32.7698 33.8767 32.7698 34.11V34.31C32.7698 34.5433 32.6965 34.7367 32.5498 34.89C32.4098 35.0367 32.1898 35.11 31.8898 35.11ZM34.8198 35.11C34.5198 35.11 34.2965 35.0367 34.1498 34.89C34.0098 34.7367 33.9398 34.5433 33.9398 34.31V34.11C33.9398 33.8767 34.0098 33.6867 34.1498 33.54C34.2965 33.3867 34.5198 33.31 34.8198 33.31C35.1198 33.31 35.3398 33.3867 35.4798 33.54C35.6265 33.6867 35.6998 33.8767 35.6998 34.11V34.31C35.6998 34.5433 35.6265 34.7367 35.4798 34.89C35.3398 35.0367 35.1198 35.11 34.8198 35.11ZM37.7598 35.11C37.4598 35.11 37.2365 35.0367 37.0898 34.89C36.9498 34.7367 36.8798 34.5433 36.8798 34.31V34.11C36.8798 33.8767 36.9498 33.6867 37.0898 33.54C37.2365 33.3867 37.4598 33.31 37.7598 33.31C38.0598 33.31 38.2798 33.3867 38.4198 33.54C38.5665 33.6867 38.6398 33.8767 38.6398 34.11V34.31C38.6398 34.5433 38.5665 34.7367 38.4198 34.89C38.2798 35.0367 38.0598 35.11 37.7598 35.11ZM41.8845 27.4V36.38H39.8145V35.34H40.5145V28.44H39.8145V27.4H41.8845Z" fill="white"/>
<ellipse cx="97.5" cy="56" rx="16.5" ry="16" fill="#4472B0"/>
<path d="M90.77 60.38V51.4H92.84V52.44H92.14V59.34H92.84V60.38H90.77ZM94.8898 59.11C94.5898 59.11 94.3665 59.0367 94.2198 58.89C94.0798 58.7367 94.0098 58.5433 94.0098 58.31V58.11C94.0098 57.8767 94.0798 57.6867 94.2198 57.54C94.3665 57.3867 94.5898 57.31 94.8898 57.31C95.1898 57.31 95.4098 57.3867 95.5498 57.54C95.6965 57.6867 95.7698 57.8767 95.7698 58.11V58.31C95.7698 58.5433 95.6965 58.7367 95.5498 58.89C95.4098 59.0367 95.1898 59.11 94.8898 59.11ZM97.8198 59.11C97.5198 59.11 97.2965 59.0367 97.1498 58.89C97.0098 58.7367 96.9398 58.5433 96.9398 58.31V58.11C96.9398 57.8767 97.0098 57.6867 97.1498 57.54C97.2965 57.3867 97.5198 57.31 97.8198 57.31C98.1198 57.31 98.3398 57.3867 98.4798 57.54C98.6265 57.6867 98.6998 57.8767 98.6998 58.11V58.31C98.6998 58.5433 98.6265 58.7367 98.4798 58.89C98.3398 59.0367 98.1198 59.11 97.8198 59.11ZM100.76 59.11C100.46 59.11 100.237 59.0367 100.09 58.89C99.9498 58.7367 99.8798 58.5433 99.8798 58.31V58.11C99.8798 57.8767 99.9498 57.6867 100.09 57.54C100.237 57.3867 100.46 57.31 100.76 57.31C101.06 57.31 101.28 57.3867 101.42 57.54C101.567 57.6867 101.64 57.8767 101.64 58.11V58.31C101.64 58.5433 101.567 58.7367 101.42 58.89C101.28 59.0367 101.06 59.11 100.76 59.11ZM104.884 51.4V60.38H102.814V59.34H103.514V52.44H102.814V51.4H104.884Z" fill="white"/>
<ellipse cx="163.5" cy="143" rx="16.5" ry="16" fill="#4472B0"/>
<path d="M156.77 147.38V138.4H158.84V139.44H158.14V146.34H158.84V147.38H156.77ZM160.89 146.11C160.59 146.11 160.367 146.037 160.22 145.89C160.08 145.737 160.01 145.543 160.01 145.31V145.11C160.01 144.877 160.08 144.687 160.22 144.54C160.367 144.387 160.59 144.31 160.89 144.31C161.19 144.31 161.41 144.387 161.55 144.54C161.697 144.687 161.77 144.877 161.77 145.11V145.31C161.77 145.543 161.697 145.737 161.55 145.89C161.41 146.037 161.19 146.11 160.89 146.11ZM163.82 146.11C163.52 146.11 163.297 146.037 163.15 145.89C163.01 145.737 162.94 145.543 162.94 145.31V145.11C162.94 144.877 163.01 144.687 163.15 144.54C163.297 144.387 163.52 144.31 163.82 144.31C164.12 144.31 164.34 144.387 164.48 144.54C164.627 144.687 164.7 144.877 164.7 145.11V145.31C164.7 145.543 164.627 145.737 164.48 145.89C164.34 146.037 164.12 146.11 163.82 146.11ZM166.76 146.11C166.46 146.11 166.237 146.037 166.09 145.89C165.95 145.737 165.88 145.543 165.88 145.31V145.11C165.88 144.877 165.95 144.687 166.09 144.54C166.237 144.387 166.46 144.31 166.76 144.31C167.06 144.31 167.28 144.387 167.42 144.54C167.567 144.687 167.64 144.877 167.64 145.11V145.31C167.64 145.543 167.567 145.737 167.42 145.89C167.28 146.037 167.06 146.11 166.76 146.11ZM170.884 138.4V147.38H168.814V146.34H169.514V139.44H168.814V138.4H170.884Z" fill="white"/>
<ellipse cx="97.5" cy="115" rx="16.5" ry="16" fill="#4472B0"/>
<path d="M90.77 119.38V110.4H92.84V111.44H92.14V118.34H92.84V119.38H90.77ZM94.8898 118.11C94.5898 118.11 94.3665 118.037 94.2198 117.89C94.0798 117.737 94.0098 117.543 94.0098 117.31V117.11C94.0098 116.877 94.0798 116.687 94.2198 116.54C94.3665 116.387 94.5898 116.31 94.8898 116.31C95.1898 116.31 95.4098 116.387 95.5498 116.54C95.6965 116.687 95.7698 116.877 95.7698 117.11V117.31C95.7698 117.543 95.6965 117.737 95.5498 117.89C95.4098 118.037 95.1898 118.11 94.8898 118.11ZM97.8198 118.11C97.5198 118.11 97.2965 118.037 97.1498 117.89C97.0098 117.737 96.9398 117.543 96.9398 117.31V117.11C96.9398 116.877 97.0098 116.687 97.1498 116.54C97.2965 116.387 97.5198 116.31 97.8198 116.31C98.1198 116.31 98.3398 116.387 98.4798 116.54C98.6265 116.687 98.6998 116.877 98.6998 117.11V117.31C98.6998 117.543 98.6265 117.737 98.4798 117.89C98.3398 118.037 98.1198 118.11 97.8198 118.11ZM100.76 118.11C100.46 118.11 100.237 118.037 100.09 117.89C99.9498 117.737 99.8798 117.543 99.8798 117.31V117.11C99.8798 116.877 99.9498 116.687 100.09 116.54C100.237 116.387 100.46 116.31 100.76 116.31C101.06 116.31 101.28 116.387 101.42 116.54C101.567 116.687 101.64 116.877 101.64 117.11V117.31C101.64 117.543 101.567 117.737 101.42 117.89C101.28 118.037 101.06 118.11 100.76 118.11ZM104.884 110.4V119.38H102.814V118.34H103.514V111.44H102.814V110.4H104.884Z" fill="white"/>
<ellipse cx="154.5" cy="81" rx="16.5" ry="16" fill="#4472B0"/>
<path d="M147.77 85.38V76.4H149.84V77.44H149.14V84.34H149.84V85.38H147.77ZM151.89 84.11C151.59 84.11 151.367 84.0367 151.22 83.89C151.08 83.7367 151.01 83.5433 151.01 83.31V83.11C151.01 82.8767 151.08 82.6867 151.22 82.54C151.367 82.3867 151.59 82.31 151.89 82.31C152.19 82.31 152.41 82.3867 152.55 82.54C152.697 82.6867 152.77 82.8767 152.77 83.11V83.31C152.77 83.5433 152.697 83.7367 152.55 83.89C152.41 84.0367 152.19 84.11 151.89 84.11ZM154.82 84.11C154.52 84.11 154.297 84.0367 154.15 83.89C154.01 83.7367 153.94 83.5433 153.94 83.31V83.11C153.94 82.8767 154.01 82.6867 154.15 82.54C154.297 82.3867 154.52 82.31 154.82 82.31C155.12 82.31 155.34 82.3867 155.48 82.54C155.627 82.6867 155.7 82.8767 155.7 83.11V83.31C155.7 83.5433 155.627 83.7367 155.48 83.89C155.34 84.0367 155.12 84.11 154.82 84.11ZM157.76 84.11C157.46 84.11 157.237 84.0367 157.09 83.89C156.95 83.7367 156.88 83.5433 156.88 83.31V83.11C156.88 82.8767 156.95 82.6867 157.09 82.54C157.237 82.3867 157.46 82.31 157.76 82.31C158.06 82.31 158.28 82.3867 158.42 82.54C158.567 82.6867 158.64 82.8767 158.64 83.11V83.31C158.64 83.5433 158.567 83.7367 158.42 83.89C158.28 84.0367 158.06 84.11 157.76 84.11ZM161.884 76.4V85.38H159.814V84.34H160.514V77.44H159.814V76.4H161.884Z" fill="white"/>
<path d="M265.25 62.63C265.077 62.63 264.95 62.59 264.87 62.51C264.797 62.4233 264.76 62.3133 264.76 62.18V62.05C264.76 61.9167 264.797 61.81 264.87 61.73C264.95 61.6433 265.077 61.6 265.25 61.6C265.423 61.6 265.547 61.6433 265.62 61.73C265.7 61.81 265.74 61.9167 265.74 62.05V62.18C265.74 62.3133 265.7 62.4233 265.62 62.51C265.547 62.59 265.423 62.63 265.25 62.63ZM264.85 63.84H265.65V69H264.85V63.84ZM268.9 69.12C268.42 69.12 268.017 69.03 267.69 68.85C267.37 68.6633 267.093 68.4167 266.86 68.11L267.43 67.65C267.63 67.9033 267.853 68.1 268.1 68.24C268.347 68.3733 268.633 68.44 268.96 68.44C269.3 68.44 269.563 68.3667 269.75 68.22C269.943 68.0733 270.04 67.8667 270.04 67.6C270.04 67.4 269.973 67.23 269.84 67.09C269.713 66.9433 269.48 66.8433 269.14 66.79L268.73 66.73C268.49 66.6967 268.27 66.6467 268.07 66.58C267.87 66.5067 267.693 66.4133 267.54 66.3C267.393 66.18 267.277 66.0333 267.19 65.86C267.11 65.6867 267.07 65.48 267.07 65.24C267.07 64.9867 267.117 64.7667 267.21 64.58C267.303 64.3867 267.43 64.2267 267.59 64.1C267.757 63.9733 267.953 63.88 268.18 63.82C268.407 63.7533 268.65 63.72 268.91 63.72C269.33 63.72 269.68 63.7933 269.96 63.94C270.247 64.0867 270.497 64.29 270.71 64.55L270.18 65.03C270.067 64.87 269.9 64.7267 269.68 64.6C269.46 64.4667 269.183 64.4 268.85 64.4C268.517 64.4 268.263 64.4733 268.09 64.62C267.923 64.76 267.84 64.9533 267.84 65.2C267.84 65.4533 267.923 65.6367 268.09 65.75C268.263 65.8633 268.51 65.9467 268.83 66L269.23 66.06C269.803 66.1467 270.21 66.3133 270.45 66.56C270.69 66.8 270.81 67.1167 270.81 67.51C270.81 68.01 270.64 68.4033 270.3 68.69C269.96 68.9767 269.493 69.12 268.9 69.12ZM275.726 69C275.446 69 275.233 68.9233 275.086 68.77C274.946 68.61 274.876 68.4033 274.876 68.15V64.54H274.026V63.84H274.506C274.68 63.84 274.796 63.8067 274.856 63.74C274.923 63.6667 274.956 63.5433 274.956 63.37V62.41H275.676V63.84H276.806V64.54H275.676V68.3H276.726V69H275.726ZM278.092 61.6H278.892V64.68H278.932C279.059 64.3867 279.236 64.1533 279.462 63.98C279.696 63.8067 280.006 63.72 280.392 63.72C280.926 63.72 281.346 63.8933 281.652 64.24C281.966 64.58 282.122 65.0633 282.122 65.69V69H281.322V65.83C281.322 64.9033 280.932 64.44 280.152 64.44C279.992 64.44 279.836 64.46 279.682 64.5C279.536 64.54 279.402 64.6 279.282 64.68C279.162 64.76 279.066 64.8633 278.992 64.99C278.926 65.11 278.892 65.2533 278.892 65.42V69H278.092V61.6ZM285.716 69.12C285.362 69.12 285.042 69.0567 284.756 68.93C284.476 68.8033 284.232 68.6233 284.026 68.39C283.826 68.15 283.669 67.8667 283.556 67.54C283.449 67.2067 283.396 66.8333 283.396 66.42C283.396 66.0133 283.449 65.6433 283.556 65.31C283.669 64.9767 283.826 64.6933 284.026 64.46C284.232 64.22 284.476 64.0367 284.756 63.91C285.042 63.7833 285.362 63.72 285.716 63.72C286.062 63.72 286.372 63.7833 286.646 63.91C286.919 64.0367 287.152 64.2133 287.346 64.44C287.539 64.66 287.686 64.9233 287.786 65.23C287.892 65.5367 287.946 65.8733 287.946 66.24V66.62H284.236V66.86C284.236 67.08 284.269 67.2867 284.336 67.48C284.409 67.6667 284.509 67.83 284.636 67.97C284.769 68.11 284.929 68.22 285.116 68.3C285.309 68.38 285.526 68.42 285.766 68.42C286.092 68.42 286.376 68.3433 286.616 68.19C286.862 68.0367 287.052 67.8167 287.186 67.53L287.756 67.94C287.589 68.2933 287.329 68.58 286.976 68.8C286.622 69.0133 286.202 69.12 285.716 69.12ZM285.716 64.39C285.496 64.39 285.296 64.43 285.116 64.51C284.936 64.5833 284.779 64.69 284.646 64.83C284.519 64.97 284.419 65.1367 284.346 65.33C284.272 65.5167 284.236 65.7233 284.236 65.95V66.02H287.086V65.91C287.086 65.45 286.959 65.0833 286.706 64.81C286.459 64.53 286.129 64.39 285.716 64.39ZM291.627 63.84H292.427V64.68H292.467C292.601 64.3533 292.794 64.1133 293.047 63.96C293.307 63.8 293.617 63.72 293.977 63.72C294.297 63.72 294.587 63.7833 294.847 63.91C295.107 64.0367 295.327 64.2167 295.507 64.45C295.694 64.6833 295.834 64.9667 295.927 65.3C296.027 65.6333 296.077 66.0067 296.077 66.42C296.077 66.8333 296.027 67.2067 295.927 67.54C295.834 67.8733 295.694 68.1567 295.507 68.39C295.327 68.6233 295.107 68.8033 294.847 68.93C294.587 69.0567 294.297 69.12 293.977 69.12C293.277 69.12 292.774 68.8 292.467 68.16H292.427V71H291.627V63.84ZM293.757 68.4C294.211 68.4 294.567 68.26 294.827 67.98C295.087 67.6933 295.217 67.32 295.217 66.86V65.98C295.217 65.52 295.087 65.15 294.827 64.87C294.567 64.5833 294.211 64.44 293.757 64.44C293.577 64.44 293.404 64.4667 293.237 64.52C293.077 64.5667 292.937 64.6333 292.817 64.72C292.697 64.8067 292.601 64.9133 292.527 65.04C292.461 65.16 292.427 65.29 292.427 65.43V67.35C292.427 67.5167 292.461 67.6667 292.527 67.8C292.601 67.9267 292.697 68.0367 292.817 68.13C292.937 68.2167 293.077 68.2833 293.237 68.33C293.404 68.3767 293.577 68.4 293.757 68.4ZM301.178 69C300.878 69 300.661 68.92 300.528 68.76C300.401 68.6 300.321 68.4 300.288 68.16H300.238C300.125 68.48 299.938 68.72 299.678 68.88C299.418 69.04 299.108 69.12 298.748 69.12C298.201 69.12 297.775 68.98 297.468 68.7C297.168 68.42 297.018 68.04 297.018 67.56C297.018 67.0733 297.195 66.7 297.548 66.44C297.908 66.18 298.465 66.05 299.218 66.05H300.238V65.54C300.238 65.1733 300.138 64.8933 299.938 64.7C299.738 64.5067 299.431 64.41 299.018 64.41C298.705 64.41 298.441 64.48 298.228 64.62C298.021 64.76 297.848 64.9467 297.708 65.18L297.228 64.73C297.368 64.45 297.591 64.2133 297.898 64.02C298.205 63.82 298.591 63.72 299.058 63.72C299.685 63.72 300.171 63.8733 300.518 64.18C300.865 64.4867 301.038 64.9133 301.038 65.46V68.3H301.628V69H301.178ZM298.878 68.44C299.078 68.44 299.261 68.4167 299.428 68.37C299.595 68.3233 299.738 68.2567 299.858 68.17C299.978 68.0833 300.071 67.9833 300.138 67.87C300.205 67.7567 300.238 67.6333 300.238 67.5V66.65H299.178C298.718 66.65 298.381 66.7167 298.168 66.85C297.961 66.9833 297.858 67.1767 297.858 67.43V67.64C297.858 67.8933 297.948 68.09 298.128 68.23C298.315 68.37 298.565 68.44 298.878 68.44ZM302.77 69V63.84H303.57V64.79H303.62C303.713 64.5433 303.88 64.3233 304.12 64.13C304.36 63.9367 304.69 63.84 305.11 63.84H305.42V64.64H304.95C304.517 64.64 304.177 64.7233 303.93 64.89C303.69 65.05 303.57 65.2533 303.57 65.5V69H302.77ZM308.333 69.12C307.98 69.12 307.66 69.0567 307.373 68.93C307.093 68.8033 306.85 68.6233 306.643 68.39C306.443 68.15 306.286 67.8667 306.173 67.54C306.066 67.2067 306.013 66.8333 306.013 66.42C306.013 66.0133 306.066 65.6433 306.173 65.31C306.286 64.9767 306.443 64.6933 306.643 64.46C306.85 64.22 307.093 64.0367 307.373 63.91C307.66 63.7833 307.98 63.72 308.333 63.72C308.68 63.72 308.99 63.7833 309.263 63.91C309.536 64.0367 309.77 64.2133 309.963 64.44C310.156 64.66 310.303 64.9233 310.403 65.23C310.51 65.5367 310.563 65.8733 310.563 66.24V66.62H306.853V66.86C306.853 67.08 306.886 67.2867 306.953 67.48C307.026 67.6667 307.126 67.83 307.253 67.97C307.386 68.11 307.546 68.22 307.733 68.3C307.926 68.38 308.143 68.42 308.383 68.42C308.71 68.42 308.993 68.3433 309.233 68.19C309.48 68.0367 309.67 67.8167 309.803 67.53L310.373 67.94C310.206 68.2933 309.946 68.58 309.593 68.8C309.24 69.0133 308.82 69.12 308.333 69.12ZM308.333 64.39C308.113 64.39 307.913 64.43 307.733 64.51C307.553 64.5833 307.396 64.69 307.263 64.83C307.136 64.97 307.036 65.1367 306.963 65.33C306.89 65.5167 306.853 65.7233 306.853 65.95V66.02H309.703V65.91C309.703 65.45 309.576 65.0833 309.323 64.81C309.076 64.53 308.746 64.39 308.333 64.39ZM311.881 69V63.84H312.681V64.68H312.721C312.848 64.3867 313.025 64.1533 313.251 63.98C313.485 63.8067 313.795 63.72 314.181 63.72C314.715 63.72 315.135 63.8933 315.441 64.24C315.755 64.58 315.911 65.0633 315.911 65.69V69H315.111V65.83C315.111 64.9033 314.721 64.44 313.941 64.44C313.781 64.44 313.625 64.46 313.471 64.5C313.325 64.54 313.191 64.6 313.071 64.68C312.951 64.76 312.855 64.8633 312.781 64.99C312.715 65.11 312.681 65.2533 312.681 65.42V69H311.881ZM318.705 69C318.425 69 318.212 68.9233 318.065 68.77C317.925 68.61 317.855 68.4033 317.855 68.15V64.54H317.005V63.84H317.485C317.658 63.84 317.775 63.8067 317.835 63.74C317.902 63.6667 317.935 63.5433 317.935 63.37V62.41H318.655V63.84H319.785V64.54H318.655V68.3H319.705V69H318.705ZM325.384 69.12C325.037 69.12 324.721 69.0567 324.434 68.93C324.147 68.8033 323.901 68.6233 323.694 68.39C323.494 68.15 323.337 67.8667 323.224 67.54C323.111 67.2067 323.054 66.8333 323.054 66.42C323.054 66.0133 323.111 65.6433 323.224 65.31C323.337 64.9767 323.494 64.6933 323.694 64.46C323.901 64.22 324.147 64.0367 324.434 63.91C324.721 63.7833 325.037 63.72 325.384 63.72C325.731 63.72 326.044 63.7833 326.324 63.91C326.611 64.0367 326.857 64.22 327.064 64.46C327.271 64.6933 327.431 64.9767 327.544 65.31C327.657 65.6433 327.714 66.0133 327.714 66.42C327.714 66.8333 327.657 67.2067 327.544 67.54C327.431 67.8667 327.271 68.15 327.064 68.39C326.857 68.6233 326.611 68.8033 326.324 68.93C326.044 69.0567 325.731 69.12 325.384 69.12ZM325.384 68.41C325.817 68.41 326.171 68.2767 326.444 68.01C326.717 67.7433 326.854 67.3367 326.854 66.79V66.05C326.854 65.5033 326.717 65.0967 326.444 64.83C326.171 64.5633 325.817 64.43 325.384 64.43C324.951 64.43 324.597 64.5633 324.324 64.83C324.051 65.0967 323.914 65.5033 323.914 66.05V66.79C323.914 67.3367 324.051 67.7433 324.324 68.01C324.597 68.2767 324.951 68.41 325.384 68.41ZM329.251 64.54H328.411V63.84H329.251V62.8C329.251 62.44 329.344 62.15 329.531 61.93C329.718 61.71 330.001 61.6 330.381 61.6H331.161V62.3H330.051V63.84H331.161V64.54H330.051V69H329.251V64.54Z" fill="white"/>
<path d="M271.25 136.63C271.077 136.63 270.95 136.59 270.87 136.51C270.797 136.423 270.76 136.313 270.76 136.18V136.05C270.76 135.917 270.797 135.81 270.87 135.73C270.95 135.643 271.077 135.6 271.25 135.6C271.423 135.6 271.547 135.643 271.62 135.73C271.7 135.81 271.74 135.917 271.74 136.05V136.18C271.74 136.313 271.7 136.423 271.62 136.51C271.547 136.59 271.423 136.63 271.25 136.63ZM270.85 137.84H271.65V143H270.85V137.84ZM274.9 143.12C274.42 143.12 274.017 143.03 273.69 142.85C273.37 142.663 273.093 142.417 272.86 142.11L273.43 141.65C273.63 141.903 273.853 142.1 274.1 142.24C274.347 142.373 274.633 142.44 274.96 142.44C275.3 142.44 275.563 142.367 275.75 142.22C275.943 142.073 276.04 141.867 276.04 141.6C276.04 141.4 275.973 141.23 275.84 141.09C275.713 140.943 275.48 140.843 275.14 140.79L274.73 140.73C274.49 140.697 274.27 140.647 274.07 140.58C273.87 140.507 273.693 140.413 273.54 140.3C273.393 140.18 273.277 140.033 273.19 139.86C273.11 139.687 273.07 139.48 273.07 139.24C273.07 138.987 273.117 138.767 273.21 138.58C273.303 138.387 273.43 138.227 273.59 138.1C273.757 137.973 273.953 137.88 274.18 137.82C274.407 137.753 274.65 137.72 274.91 137.72C275.33 137.72 275.68 137.793 275.96 137.94C276.247 138.087 276.497 138.29 276.71 138.55L276.18 139.03C276.067 138.87 275.9 138.727 275.68 138.6C275.46 138.467 275.183 138.4 274.85 138.4C274.517 138.4 274.263 138.473 274.09 138.62C273.923 138.76 273.84 138.953 273.84 139.2C273.84 139.453 273.923 139.637 274.09 139.75C274.263 139.863 274.51 139.947 274.83 140L275.23 140.06C275.803 140.147 276.21 140.313 276.45 140.56C276.69 140.8 276.81 141.117 276.81 141.51C276.81 142.01 276.64 142.403 276.3 142.69C275.96 142.977 275.493 143.12 274.9 143.12ZM284.336 143C284.036 143 283.82 142.92 283.686 142.76C283.56 142.6 283.48 142.4 283.446 142.16H283.396C283.283 142.48 283.096 142.72 282.836 142.88C282.576 143.04 282.266 143.12 281.906 143.12C281.36 143.12 280.933 142.98 280.626 142.7C280.326 142.42 280.176 142.04 280.176 141.56C280.176 141.073 280.353 140.7 280.706 140.44C281.066 140.18 281.623 140.05 282.376 140.05H283.396V139.54C283.396 139.173 283.296 138.893 283.096 138.7C282.896 138.507 282.59 138.41 282.176 138.41C281.863 138.41 281.6 138.48 281.386 138.62C281.18 138.76 281.006 138.947 280.866 139.18L280.386 138.73C280.526 138.45 280.75 138.213 281.056 138.02C281.363 137.82 281.75 137.72 282.216 137.72C282.843 137.72 283.33 137.873 283.676 138.18C284.023 138.487 284.196 138.913 284.196 139.46V142.3H284.786V143H284.336ZM282.036 142.44C282.236 142.44 282.42 142.417 282.586 142.37C282.753 142.323 282.896 142.257 283.016 142.17C283.136 142.083 283.23 141.983 283.296 141.87C283.363 141.757 283.396 141.633 283.396 141.5V140.65H282.336C281.876 140.65 281.54 140.717 281.326 140.85C281.12 140.983 281.016 141.177 281.016 141.43V141.64C281.016 141.893 281.106 142.09 281.286 142.23C281.473 142.37 281.723 142.44 282.036 142.44ZM288.571 138.54H287.731V137.84H288.571V136.8C288.571 136.44 288.665 136.15 288.851 135.93C289.038 135.71 289.321 135.6 289.701 135.6H290.481V136.3H289.371V137.84H290.481V138.54H289.371V143H288.571V138.54ZM291.534 143V137.84H292.334V138.79H292.384C292.477 138.543 292.644 138.323 292.884 138.13C293.124 137.937 293.454 137.84 293.874 137.84H294.184V138.64H293.714C293.28 138.64 292.94 138.723 292.694 138.89C292.454 139.05 292.334 139.253 292.334 139.5V143H291.534ZM295.605 136.63C295.432 136.63 295.305 136.59 295.225 136.51C295.152 136.423 295.115 136.313 295.115 136.18V136.05C295.115 135.917 295.152 135.81 295.225 135.73C295.305 135.643 295.432 135.6 295.605 135.6C295.779 135.6 295.902 135.643 295.975 135.73C296.055 135.81 296.095 135.917 296.095 136.05V136.18C296.095 136.313 296.055 136.423 295.975 136.51C295.902 136.59 295.779 136.63 295.605 136.63ZM295.205 137.84H296.005V143H295.205V137.84ZM299.645 143.12C299.292 143.12 298.972 143.057 298.685 142.93C298.405 142.803 298.162 142.623 297.955 142.39C297.755 142.15 297.599 141.867 297.485 141.54C297.379 141.207 297.325 140.833 297.325 140.42C297.325 140.013 297.379 139.643 297.485 139.31C297.599 138.977 297.755 138.693 297.955 138.46C298.162 138.22 298.405 138.037 298.685 137.91C298.972 137.783 299.292 137.72 299.645 137.72C299.992 137.72 300.302 137.783 300.575 137.91C300.849 138.037 301.082 138.213 301.275 138.44C301.469 138.66 301.615 138.923 301.715 139.23C301.822 139.537 301.875 139.873 301.875 140.24V140.62H298.165V140.86C298.165 141.08 298.199 141.287 298.265 141.48C298.339 141.667 298.439 141.83 298.565 141.97C298.699 142.11 298.859 142.22 299.045 142.3C299.239 142.38 299.455 142.42 299.695 142.42C300.022 142.42 300.305 142.343 300.545 142.19C300.792 142.037 300.982 141.817 301.115 141.53L301.685 141.94C301.519 142.293 301.259 142.58 300.905 142.8C300.552 143.013 300.132 143.12 299.645 143.12ZM299.645 138.39C299.425 138.39 299.225 138.43 299.045 138.51C298.865 138.583 298.709 138.69 298.575 138.83C298.449 138.97 298.349 139.137 298.275 139.33C298.202 139.517 298.165 139.723 298.165 139.95V140.02H301.015V139.91C301.015 139.45 300.889 139.083 300.635 138.81C300.389 138.53 300.059 138.39 299.645 138.39ZM303.194 143V137.84H303.994V138.68H304.034C304.16 138.387 304.337 138.153 304.564 137.98C304.797 137.807 305.107 137.72 305.494 137.72C306.027 137.72 306.447 137.893 306.754 138.24C307.067 138.58 307.224 139.063 307.224 139.69V143H306.424V139.83C306.424 138.903 306.034 138.44 305.254 138.44C305.094 138.44 304.937 138.46 304.784 138.5C304.637 138.54 304.504 138.6 304.384 138.68C304.264 138.76 304.167 138.863 304.094 138.99C304.027 139.11 303.994 139.253 303.994 139.42V143H303.194ZM312.177 142.16H312.137C311.824 142.8 311.321 143.12 310.627 143.12C310.307 143.12 310.017 143.057 309.757 142.93C309.497 142.803 309.274 142.623 309.087 142.39C308.907 142.157 308.767 141.873 308.667 141.54C308.574 141.207 308.527 140.833 308.527 140.42C308.527 140.007 308.574 139.633 308.667 139.3C308.767 138.967 308.907 138.683 309.087 138.45C309.274 138.217 309.497 138.037 309.757 137.91C310.017 137.783 310.307 137.72 310.627 137.72C310.987 137.72 311.294 137.8 311.547 137.96C311.807 138.113 312.004 138.353 312.137 138.68H312.177V135.6H312.977V143H312.177V142.16ZM310.847 142.4C311.027 142.4 311.197 142.377 311.357 142.33C311.524 142.283 311.667 142.217 311.787 142.13C311.907 142.037 312.001 141.927 312.067 141.8C312.141 141.667 312.177 141.517 312.177 141.35V139.43C312.177 139.29 312.141 139.16 312.067 139.04C312.001 138.913 311.907 138.807 311.787 138.72C311.667 138.633 311.524 138.567 311.357 138.52C311.197 138.467 311.027 138.44 310.847 138.44C310.394 138.44 310.037 138.583 309.777 138.87C309.517 139.15 309.387 139.52 309.387 139.98V140.86C309.387 141.32 309.517 141.693 309.777 141.98C310.037 142.26 310.394 142.4 310.847 142.4ZM318.991 143.12C318.645 143.12 318.328 143.057 318.041 142.93C317.755 142.803 317.508 142.623 317.301 142.39C317.101 142.15 316.945 141.867 316.831 141.54C316.718 141.207 316.661 140.833 316.661 140.42C316.661 140.013 316.718 139.643 316.831 139.31C316.945 138.977 317.101 138.693 317.301 138.46C317.508 138.22 317.755 138.037 318.041 137.91C318.328 137.783 318.645 137.72 318.991 137.72C319.338 137.72 319.651 137.783 319.931 137.91C320.218 138.037 320.465 138.22 320.671 138.46C320.878 138.693 321.038 138.977 321.151 139.31C321.265 139.643 321.321 140.013 321.321 140.42C321.321 140.833 321.265 141.207 321.151 141.54C321.038 141.867 320.878 142.15 320.671 142.39C320.465 142.623 320.218 142.803 319.931 142.93C319.651 143.057 319.338 143.12 318.991 143.12ZM318.991 142.41C319.425 142.41 319.778 142.277 320.051 142.01C320.325 141.743 320.461 141.337 320.461 140.79V140.05C320.461 139.503 320.325 139.097 320.051 138.83C319.778 138.563 319.425 138.43 318.991 138.43C318.558 138.43 318.205 138.563 317.931 138.83C317.658 139.097 317.521 139.503 317.521 140.05V140.79C317.521 141.337 317.658 141.743 317.931 142.01C318.205 142.277 318.558 142.41 318.991 142.41ZM322.859 138.54H322.019V137.84H322.859V136.8C322.859 136.44 322.952 136.15 323.139 135.93C323.325 135.71 323.609 135.6 323.989 135.6H324.769V136.3H323.659V137.84H324.769V138.54H323.659V143H322.859V138.54Z" fill="white"/>
</svg>
