<svg width="195" height="65" viewBox="0 0 195 65" fill="none" xmlns="http://www.w3.org/2000/svg">
<g filter="url(#filter0_d_2_44)">
<path fill-rule="evenodd" clip-rule="evenodd" d="M3.5 0C1.567 0 0 1.567 0 3.5V60.5C0 62.433 1.567 64 3.5 64C5.433 64 7 62.433 7 60.5V53.2735L28 37.5235V54.049H36V37.5652L57 53.3151V60.5C57 62.433 58.567 64 60.5 64C62.433 64 64 62.433 64 60.5V3.5C64 1.567 62.433 0 60.5 0C58.567 0 57 1.567 57 3.5V11.2133L36 26.9365V10.049H28V26.9781L7 11.2549V3.5C7 1.567 5.433 0 3.5 0ZM24.7528 32.2496L7 45.5642V18.9576L24.7528 32.2496ZM57 45.6059V18.916L39.1916 32.2496L57 45.6059ZM91.72 27.904L94.024 32.544L100.744 44H105.384V21.664H101.384V37.76H101.288L98.984 33.12L92.264 21.664H87.624V44H91.624V27.904H91.72ZM113.76 43.776C114.72 44.1813 115.797 44.384 116.992 44.384C118.187 44.384 119.264 44.1813 120.224 43.776C121.184 43.3707 121.995 42.784 122.656 42.016C123.339 41.248 123.861 40.3307 124.224 39.264C124.587 38.176 124.768 36.96 124.768 35.616C124.768 34.272 124.587 33.0667 124.224 32C123.861 30.9333 123.339 30.0267 122.656 29.28C121.995 28.512 121.184 27.9253 120.224 27.52C119.264 27.1147 118.187 26.912 116.992 26.912C115.797 26.912 114.72 27.1147 113.76 27.52C112.821 27.9253 112.011 28.512 111.328 29.28C110.667 30.0267 110.155 30.9333 109.792 32C109.429 33.0667 109.248 34.272 109.248 35.616C109.248 36.96 109.429 38.176 109.792 39.264C110.155 40.3307 110.667 41.248 111.328 42.016C112.011 42.784 112.821 43.3707 113.76 43.776ZM119.552 40.096C118.933 40.7573 118.08 41.088 116.992 41.088C115.925 41.088 115.083 40.7573 114.464 40.096C113.845 39.4347 113.536 38.464 113.536 37.184V34.08C113.536 32.8213 113.845 31.8613 114.464 31.2C115.083 30.5387 115.925 30.208 116.992 30.208C118.08 30.208 118.933 30.5387 119.552 31.2C120.171 31.8613 120.48 32.8213 120.48 34.08V37.184C120.48 38.464 120.171 39.4347 119.552 40.096ZM126.165 27.296L131.733 44H136.597L142.197 27.296H138.293L136.021 34.496L134.389 40.448H134.165L132.533 34.496L130.197 27.296H126.165ZM145.122 24.288C145.507 24.672 146.125 24.864 146.979 24.864C147.811 24.864 148.419 24.672 148.803 24.288C149.186 23.904 149.378 23.4133 149.378 22.816V22.176C149.378 21.5787 149.186 21.088 148.803 20.704C148.419 20.32 147.811 20.128 146.979 20.128C146.125 20.128 145.507 20.32 145.122 20.704C144.76 21.088 144.579 21.5787 144.579 22.176V22.816C144.579 23.4133 144.76 23.904 145.122 24.288ZM149.027 44V27.296H144.93V44H149.027ZM157.87 20.32H153.774V44H157.87V38.912L160.078 36.512L164.366 44H169.23L162.862 33.76L168.622 27.296H163.982L160.238 31.584L158.03 34.592H157.87V20.32ZM181.856 43.232C182.389 43.744 183.104 44 184 44H186.272V40.736H184.608V32.864C184.608 30.944 184.021 29.472 182.848 28.448C181.674 27.424 179.957 26.912 177.696 26.912C176.01 26.912 174.656 27.2107 173.632 27.808C172.608 28.384 171.786 29.152 171.168 30.112L173.6 32.288C174.005 31.712 174.496 31.2213 175.072 30.816C175.669 30.3893 176.448 30.176 177.408 30.176C178.496 30.176 179.285 30.432 179.776 30.944C180.266 31.456 180.512 32.1813 180.512 33.12V34.336H177.664C175.381 34.336 173.621 34.7627 172.384 35.616C171.146 36.448 170.528 37.728 170.528 39.456C170.528 40.9493 170.986 42.144 171.904 43.04C172.821 43.936 174.133 44.384 175.84 44.384C177.098 44.384 178.154 44.1173 179.008 43.584C179.861 43.0293 180.426 42.208 180.704 41.12H180.896C181.024 41.9947 181.344 42.6987 181.856 43.232ZM179.552 40.8C178.912 41.2053 178.133 41.408 177.216 41.408C176.405 41.408 175.776 41.248 175.328 40.928C174.901 40.5867 174.688 40.0747 174.688 39.392V38.848C174.688 37.4827 175.754 36.8 177.888 36.8H180.512V39.008C180.512 39.7973 180.192 40.3947 179.552 40.8ZM190.347 43.712C190.774 44.1387 191.425 44.352 192.299 44.352C193.195 44.352 193.846 44.1387 194.251 43.712C194.657 43.264 194.859 42.6987 194.859 42.016V41.44C194.859 40.7573 194.657 40.192 194.251 39.744C193.846 39.296 193.195 39.072 192.299 39.072C191.425 39.072 190.774 39.296 190.347 39.744C189.942 40.192 189.739 40.7573 189.739 41.44V42.016C189.739 42.6987 189.942 43.264 190.347 43.712Z" fill="url(#paint0_linear_2_44)"/>
</g>
<defs>
<filter id="filter0_d_2_44" x="0" y="0" width="194.859" height="65" filterUnits="userSpaceOnUse" color-interpolation-filters="sRGB">
<feFlood flood-opacity="0" result="BackgroundImageFix"/>
<feColorMatrix in="SourceAlpha" type="matrix" values="0 0 0 0 0 0 0 0 0 0 0 0 0 0 0 0 0 0 127 0" result="hardAlpha"/>
<feOffset dy="1"/>
<feComposite in2="hardAlpha" operator="out"/>
<feColorMatrix type="matrix" values="0 0 0 0 0.230139 0 0 0 0 0.368222 0 0 0 0 0.575347 0 0 0 0.36 0"/>
<feBlend mode="normal" in2="BackgroundImageFix" result="effect1_dropShadow_2_44"/>
<feBlend mode="normal" in="SourceGraphic" in2="effect1_dropShadow_2_44" result="shape"/>
</filter>
<linearGradient id="paint0_linear_2_44" x1="92.3744" y1="0" x2="92.3744" y2="64" gradientUnits="userSpaceOnUse">
<stop stop-color="#4472B0"/>
<stop offset="1" stop-color="#6559F4"/>
</linearGradient>
</defs>
</svg>
